{"glyphs":{"0":{"ha":694,"x_min":35,"x_max":660,"o":"m 35 474 q 79 741 35 629 q 213 917 124 853 q 279 951 244 940 q 353 963 314 963 q 465 931 411 963 q 561 839 518 900 q 635 681 611 771 q 660 472 660 590 q 615 201 660 314 q 482 25 571 89 q 419 -8 451 3 q 351 -18 388 -18 q 235 13 290 -18 q 135 104 179 44 q 59 263 83 174 q 35 472 35 353 l 35 474 m 253 474 q 260 214 253 307 q 282 81 267 121 q 309 47 290 60 q 349 33 328 33 q 413 74 394 33 q 435 163 431 114 q 438 203 438 183 q 439 242 438 224 q 439 256 439 249 q 439 268 439 263 q 443 351 442 311 q 444 431 444 392 q 444 451 444 440 q 444 471 444 461 q 443 572 444 521 q 439 675 442 624 q 439 685 439 679 q 439 697 439 690 q 437 735 438 714 q 435 779 436 757 q 411 869 429 829 q 349 910 393 910 q 309 897 328 910 q 282 863 290 883 q 260 728 267 819 q 253 472 253 638 l 253 474 z "},"1":{"ha":694,"x_min":92,"x_max":615,"o":"m 96 779 l 96 814 l 467 964 l 467 207 q 488 67 467 93 q 615 40 508 40 l 615 0 l 92 0 l 92 42 q 232 63 207 40 q 257 206 257 85 l 257 711 q 245 783 257 763 q 201 803 233 803 q 198 803 200 803 q 194 803 196 803 q 164 798 182 803 q 96 778 146 793 l 96 779 z "},"2":{"ha":694,"x_min":11,"x_max":649,"o":"m 11 43 q 52 85 35 67 q 85 121 69 104 q 88 124 86 122 q 90 128 89 126 q 135 180 111 151 q 200 256 160 208 q 219 278 210 267 q 239 303 229 290 q 351 458 300 375 q 401 638 401 540 q 354 754 401 706 q 240 803 307 803 q 140 774 181 803 q 63 672 99 744 l 35 681 q 144 877 64 790 q 347 964 225 964 q 523 892 454 964 q 592 710 592 821 q 587 649 592 678 q 571 593 582 621 q 502 481 550 539 q 369 343 454 424 q 350 324 360 333 q 331 307 340 315 q 275 252 303 279 q 219 196 247 225 l 482 197 q 553 210 528 196 q 600 264 579 224 q 609 282 604 272 q 618 303 614 292 l 649 304 l 586 0 l 11 0 l 11 43 l 11 43 z "},"3":{"ha":694,"x_min":21,"x_max":639,"o":"m 44 749 q 176 906 93 850 q 361 963 260 963 q 522 911 464 963 q 581 769 581 860 q 572 707 581 735 q 542 653 563 679 q 516 625 531 639 q 483 596 501 611 q 598 491 557 549 q 639 340 639 433 q 519 86 639 190 q 229 -18 400 -18 q 76 14 132 -18 q 21 104 21 46 q 48 163 21 138 q 110 188 75 188 q 179 167 151 188 q 232 122 207 146 q 235 118 233 119 q 239 115 238 117 q 287 74 261 92 q 347 56 313 56 q 444 101 407 56 q 482 219 482 147 q 407 388 482 328 q 243 483 332 449 q 224 490 233 486 q 206 496 215 493 l 206 525 q 339 594 299 553 q 379 703 379 636 q 342 806 379 768 q 240 844 306 844 q 160 825 196 844 q 92 761 125 806 q 81 747 86 754 q 72 733 76 740 l 44 749 l 44 749 z "},"4":{"ha":694,"x_min":17,"x_max":653,"o":"m 17 356 l 450 946 l 565 946 l 565 356 l 653 356 l 653 193 l 565 193 l 565 0 l 364 0 l 364 193 l 17 193 l 17 356 l 17 356 m 82 356 l 364 356 l 364 747 l 82 356 l 82 356 z "},"5":{"ha":694,"x_min":35,"x_max":671,"o":"m 81 456 l 219 946 l 671 946 l 604 763 l 219 763 l 190 654 q 209 651 200 651 q 228 649 218 650 q 344 633 300 642 q 425 610 388 624 q 431 608 428 610 q 438 606 435 607 q 584 493 532 568 q 636 319 636 418 q 526 78 636 175 q 251 -18 417 -18 q 96 17 157 -18 q 35 104 35 51 q 62 165 35 139 q 124 192 89 192 q 192 173 161 192 q 253 132 224 154 q 315 89 283 108 q 386 69 346 69 q 484 109 444 69 q 524 207 524 149 q 442 357 524 307 q 261 429 360 407 q 165 444 213 439 q 81 454 118 450 l 81 456 z "},"6":{"ha":694,"x_min":36,"x_max":658,"o":"m 651 964 l 651 919 q 410 804 504 893 q 286 567 317 715 q 344 587 324 581 q 381 594 364 593 q 387 594 383 594 q 393 594 390 594 q 585 517 511 594 q 658 314 658 439 q 573 77 658 172 q 363 -18 488 -18 q 128 92 219 -18 q 36 378 36 203 q 220 793 36 647 q 651 963 404 939 l 651 964 m 271 510 q 262 458 265 481 q 257 417 258 436 q 255 383 256 400 q 254 346 254 367 q 263 197 254 265 q 286 89 271 128 q 315 47 297 61 q 358 33 332 33 q 422 69 403 33 q 442 189 442 106 q 442 213 442 201 q 442 238 442 225 q 438 317 440 278 q 433 388 436 357 q 401 489 428 453 q 332 525 375 525 q 319 524 325 525 q 308 524 314 524 q 292 519 301 522 q 271 508 283 515 l 271 510 z "},"7":{"ha":694,"x_min":32,"x_max":674,"o":"m 32 626 l 99 946 l 674 946 l 342 -18 l 211 -18 l 486 749 l 211 749 q 131 728 160 747 q 79 654 103 708 q 74 640 76 647 q 68 625 71 633 l 32 626 l 32 626 z "},"8":{"ha":694,"x_min":38,"x_max":657,"o":"m 240 449 q 111 557 168 494 q 54 713 54 619 q 140 892 54 821 q 357 963 226 963 q 560 904 483 963 q 638 751 638 846 q 593 634 638 672 q 488 567 549 596 q 476 560 482 564 q 463 554 469 557 q 611 419 565 489 q 657 264 657 350 q 567 60 657 139 q 336 -18 478 -18 q 119 46 200 -18 q 38 217 38 110 q 97 367 38 321 q 240 447 156 413 l 240 449 m 285 415 q 271 399 278 407 q 258 383 264 392 q 215 306 228 346 q 203 214 203 267 q 239 81 203 129 q 340 33 275 33 q 429 72 397 33 q 461 176 461 110 q 406 317 461 264 q 285 414 351 371 l 285 415 m 413 589 q 415 591 414 589 q 418 594 417 593 q 460 663 447 626 q 472 750 472 699 q 438 866 472 822 q 347 910 404 910 q 269 877 300 910 q 238 796 238 844 q 278 692 238 733 q 365 618 318 650 q 390 602 378 610 q 413 588 401 594 l 413 589 z "},"9":{"ha":694,"x_min":36,"x_max":658,"o":"m 43 -18 l 43 26 q 284 140 189 50 q 408 376 379 229 q 351 356 371 363 q 314 349 331 350 q 308 349 311 349 q 301 349 304 349 q 110 427 183 349 q 36 631 36 506 q 122 867 36 771 q 333 963 207 963 q 567 852 476 963 q 658 567 658 742 q 474 153 658 301 q 43 -18 289 4 l 43 -18 m 424 436 q 433 484 429 463 q 438 525 436 506 q 440 560 439 542 q 440 599 440 578 q 432 748 440 679 q 408 854 424 817 q 381 896 399 882 q 336 910 363 910 q 273 874 293 910 q 253 754 253 838 q 253 730 253 742 q 253 706 253 718 q 256 626 254 665 q 261 556 258 586 q 294 454 268 490 q 363 418 319 418 q 375 419 369 418 q 386 419 381 419 q 402 425 393 421 q 424 435 411 429 l 424 436 z "}," ":{"ha":347,"x_min":0,"x_max":0,"o":""}," ":{"ha":347,"x_min":0,"x_max":0,"o":""},"!":{"ha":463,"x_min":114,"x_max":349,"o":"m 115 100 q 149 182 115 147 q 232 217 183 217 q 315 182 281 217 q 349 99 349 147 q 315 16 349 50 q 232 -18 281 -18 q 149 16 183 -18 q 115 99 115 50 l 115 100 m 254 339 l 204 339 q 191 472 200 410 q 169 581 182 533 l 126 740 q 117 785 121 763 q 114 829 114 807 q 145 926 114 890 q 228 963 176 963 q 316 925 283 963 q 349 826 349 888 q 347 787 349 807 q 338 746 344 767 q 313 654 325 699 q 289 565 300 610 q 267 455 276 511 q 254 338 258 399 l 254 339 z "},"\"":{"ha":771,"x_min":178,"x_max":593,"o":"m 228 560 l 178 560 l 236 871 q 263 942 246 921 q 310 963 279 963 q 351 947 335 963 q 368 907 368 932 q 365 884 368 896 q 356 857 363 872 l 228 560 l 228 560 m 438 560 l 393 560 l 458 858 q 463 879 461 869 q 468 899 465 889 q 493 950 479 938 q 535 963 507 963 q 576 947 558 963 q 593 907 593 931 q 590 883 593 896 q 581 857 586 869 q 578 849 579 853 q 575 843 576 846 l 438 560 l 438 560 z "},"#":{"ha":694,"x_min":4,"x_max":692,"o":"m 656 407 l 656 303 l 508 303 l 464 0 l 357 0 l 401 303 l 251 303 l 207 0 l 100 0 l 146 303 l 4 303 l 4 407 l 163 407 l 185 560 l 40 560 l 40 664 l 200 664 l 242 946 l 346 946 l 306 664 l 454 664 l 496 946 l 603 946 l 561 664 l 692 664 l 692 560 l 546 560 l 525 407 l 656 407 l 656 407 m 439 560 l 289 560 l 268 407 l 417 407 l 439 560 l 439 560 z "},"$":{"ha":694,"x_min":46,"x_max":649,"o":"m 293 938 l 293 1026 l 375 1026 l 375 938 q 385 935 381 936 q 394 933 389 935 q 452 924 428 929 q 499 911 476 919 q 541 892 519 903 q 592 865 563 882 l 592 669 l 554 669 q 481 818 529 753 q 331 883 432 883 q 222 851 263 883 q 181 765 181 819 q 184 731 181 746 q 199 704 188 717 q 256 661 215 685 q 376 599 297 638 q 380 597 378 597 q 385 594 382 596 q 566 477 483 544 q 649 283 649 410 q 578 101 649 169 q 375 19 508 33 l 375 -115 l 293 -115 l 293 21 q 203 30 240 24 q 135 49 167 36 q 101 63 118 56 q 67 82 85 71 l 67 294 l 104 294 q 177 137 124 206 q 331 68 231 68 q 448 107 404 68 q 492 210 492 146 q 481 263 492 240 q 444 308 471 286 q 408 334 429 321 q 358 363 388 347 q 315 385 338 374 q 269 410 293 397 q 116 520 186 456 q 46 688 46 585 q 118 861 46 803 q 293 936 190 919 l 293 938 z "},"%":{"ha":1389,"x_min":219,"x_max":1169,"o":"m 940 965 l 1003 965 l 454 -18 l 374 -18 l 851 846 q 801 819 818 826 q 768 811 783 811 q 767 811 768 811 q 765 811 767 811 q 739 814 760 811 q 690 821 718 817 q 691 808 690 815 q 692 796 692 801 q 692 783 692 789 q 693 769 693 776 q 686 710 693 742 q 667 649 679 679 q 563 493 632 564 q 407 422 493 422 q 273 477 326 422 q 219 615 219 532 q 220 638 219 626 q 224 663 221 650 q 328 863 242 772 q 529 954 415 954 q 565 951 550 954 q 596 942 581 949 q 613 932 604 938 q 631 919 621 926 q 661 895 649 904 q 685 881 674 886 q 715 874 699 875 q 757 872 731 872 q 824 878 796 872 q 876 903 851 885 q 907 928 892 914 q 940 964 922 943 l 940 965 m 629 838 q 619 841 624 839 q 613 846 615 843 q 610 847 611 846 q 607 849 608 849 q 601 853 604 851 q 594 858 599 856 q 579 872 585 868 q 569 876 574 875 q 566 878 568 878 q 561 878 564 878 q 535 869 549 878 q 507 846 521 860 q 463 784 485 821 q 424 708 440 747 q 395 631 406 668 q 385 569 385 593 q 402 518 385 538 q 449 499 419 499 q 542 551 501 499 q 607 667 583 603 q 628 738 621 703 q 636 796 636 772 q 636 806 636 801 q 635 814 636 810 q 633 824 635 819 q 629 836 632 829 l 629 838 m 699 172 q 701 204 699 188 q 707 238 703 221 q 814 428 731 342 q 1004 515 897 515 q 1123 467 1076 515 q 1169 346 1169 419 q 1083 94 1169 206 q 888 -18 997 -18 q 752 35 806 -18 q 699 171 699 89 l 699 172 m 864 114 q 885 74 867 90 q 928 57 903 57 q 1020 110 979 57 q 1085 226 1061 163 q 1105 296 1097 263 q 1113 354 1113 329 q 1094 415 1113 392 q 1044 439 1075 439 q 965 383 1003 439 q 900 261 926 328 q 874 178 883 218 q 864 113 864 138 l 864 114 z "},"&":{"ha":1157,"x_min":93,"x_max":1076,"o":"m 356 550 q 310 636 325 601 q 289 701 294 671 q 287 723 288 713 q 286 744 286 733 q 360 903 286 843 q 551 963 433 963 q 722 916 658 963 q 785 792 785 869 q 735 678 785 721 q 628 608 686 635 q 605 598 617 603 q 582 589 593 593 q 650 484 624 525 q 701 408 676 443 q 704 403 703 406 q 708 399 706 401 q 740 353 724 376 q 776 303 756 331 q 853 407 828 360 q 878 493 878 454 q 857 534 878 521 q 788 549 836 547 l 788 590 l 1076 590 l 1076 550 q 1015 533 1038 546 q 974 488 992 519 q 963 468 968 478 q 950 449 957 458 q 887 347 919 397 q 814 250 854 297 q 878 173 851 200 q 932 136 906 146 q 949 131 940 132 q 968 129 958 129 q 997 134 985 129 q 1022 150 1010 139 q 1034 163 1028 156 q 1047 179 1040 171 l 1076 161 q 994 35 1043 88 q 857 -18 946 -18 q 812 -13 833 -18 q 769 0 790 -8 q 715 39 743 14 q 654 103 688 64 q 510 15 586 47 q 344 -18 433 -18 q 166 54 239 -18 q 93 232 93 126 q 165 411 93 340 q 324 531 238 482 q 340 540 332 536 q 356 549 347 544 l 356 550 m 385 497 q 307 437 332 469 q 282 364 282 404 q 288 316 282 342 q 306 264 294 290 q 383 147 333 200 q 492 94 433 94 q 499 94 496 94 q 507 96 503 94 q 555 110 529 97 q 618 149 581 122 q 524 282 569 214 q 435 418 479 350 q 433 422 435 419 q 431 426 432 424 q 408 460 419 443 q 385 496 396 478 l 385 497 m 550 636 q 574 646 564 640 q 594 658 585 651 q 631 693 621 675 q 642 739 642 711 q 606 858 642 807 q 525 910 571 910 q 472 888 492 910 q 451 831 451 867 q 451 823 451 826 q 451 815 451 819 q 476 747 456 785 q 550 635 497 708 l 550 636 z "},"'":{"ha":386,"x_min":92,"x_max":294,"o":"m 139 560 l 92 560 l 149 832 q 157 870 153 853 q 165 901 161 888 q 190 951 176 940 q 231 963 204 963 q 275 945 256 963 q 294 906 294 928 q 292 886 294 896 q 288 867 290 876 q 284 857 286 861 q 281 847 282 853 l 139 560 l 139 560 z "},"(":{"ha":463,"x_min":94,"x_max":463,"o":"m 428 964 l 449 913 q 315 744 350 847 q 271 529 279 640 q 267 447 268 488 q 267 367 267 406 q 290 60 267 178 q 363 -119 314 -58 q 374 -133 368 -126 q 386 -146 379 -139 q 413 -169 399 -157 q 440 -190 426 -181 q 451 -198 446 -194 q 463 -204 457 -201 l 446 -250 q 183 8 271 -158 q 94 368 94 175 q 183 708 94 558 q 428 963 272 857 l 428 964 z "},")":{"ha":463,"x_min":0,"x_max":368,"o":"m 35 -250 l 14 -199 q 142 -44 104 -139 q 189 153 181 51 q 191 174 190 164 q 192 194 192 185 q 195 269 194 232 q 196 344 196 307 q 172 651 196 533 q 100 832 149 769 q 87 847 94 839 q 69 864 79 856 q 48 883 60 874 q 25 900 36 892 q 12 908 18 904 q 0 917 6 913 l 17 964 q 280 703 192 871 q 368 343 368 536 q 280 3 368 158 q 35 -250 192 -151 l 35 -250 z "},"*":{"ha":694,"x_min":68,"x_max":628,"o":"m 331 696 q 322 755 331 729 q 303 803 314 781 q 294 821 299 813 q 286 838 290 829 q 278 862 282 850 q 275 888 275 874 q 295 941 275 919 q 344 963 315 963 q 394 940 374 963 q 414 886 414 918 q 413 873 414 879 q 411 861 413 867 q 401 832 407 846 q 389 803 396 818 q 372 758 379 781 q 364 710 364 735 q 364 708 364 708 q 364 706 364 707 q 364 705 364 706 q 365 704 364 704 q 365 701 365 703 q 365 697 365 700 q 417 721 396 707 q 456 749 439 735 q 476 768 467 758 q 494 786 486 778 q 523 806 508 799 q 557 814 538 814 q 608 794 588 814 q 628 747 628 775 q 603 695 628 717 q 543 674 579 674 q 515 675 529 674 q 488 678 501 676 q 477 680 482 679 q 468 681 472 681 q 440 679 454 681 q 414 675 426 678 q 396 671 404 674 q 378 665 388 668 q 403 634 390 647 q 431 611 417 621 q 466 589 449 599 q 499 571 483 579 q 538 542 522 558 q 553 494 553 526 q 533 448 553 468 q 486 428 514 428 q 427 461 444 428 q 396 538 410 494 q 393 548 394 543 q 390 557 392 553 q 374 603 383 581 q 353 643 365 625 q 333 616 340 628 q 321 593 325 604 q 314 576 317 585 q 310 556 311 567 q 310 553 310 554 q 310 553 310 553 q 306 532 308 543 q 303 510 304 521 q 279 449 296 476 q 222 421 263 421 q 176 440 196 421 q 156 485 156 458 q 177 539 156 517 q 226 581 199 561 q 238 588 232 585 q 250 596 244 592 q 290 626 271 610 q 322 661 308 642 q 292 671 304 668 q 271 675 281 674 q 260 676 265 676 q 250 676 256 676 q 212 674 231 676 q 175 667 193 671 q 167 666 171 667 q 160 664 164 665 q 153 664 157 664 q 146 664 150 664 q 92 685 117 668 q 68 736 68 701 q 88 784 68 765 q 142 803 108 803 q 156 801 149 803 q 172 796 164 799 q 206 774 189 788 q 243 744 224 760 q 284 717 263 731 q 331 694 306 703 l 331 696 z "},"+":{"ha":792,"x_min":61,"x_max":731,"o":"m 343 544 l 343 811 l 449 811 l 449 544 l 731 544 l 731 436 l 449 436 l 450 161 l 343 161 l 343 436 l 61 436 l 61 544 l 343 544 l 343 544 z "},",":{"ha":347,"x_min":58,"x_max":313,"o":"m 64 -212 q 90 -195 76 -204 q 117 -175 103 -186 q 185 -115 154 -149 q 215 -35 215 -81 q 210 -15 215 -22 q 193 -8 204 -8 l 192 -8 q 186 -9 189 -8 q 181 -10 183 -10 q 178 -10 179 -10 q 175 -11 176 -11 q 165 -12 169 -11 q 157 -12 161 -12 q 86 17 114 -12 q 58 94 58 47 q 91 182 58 147 q 174 217 124 217 q 274 170 235 217 q 313 50 313 124 q 243 -129 313 -60 q 86 -250 174 -199 l 64 -212 l 64 -212 z "},"-":{"ha":463,"x_min":42,"x_max":422,"o":"m 42 404 l 422 404 l 422 258 l 42 258 l 42 404 l 42 404 z "},".":{"ha":347,"x_min":57,"x_max":290,"o":"m 57 100 q 92 182 57 147 q 174 217 126 217 q 256 182 222 217 q 290 99 290 147 q 256 16 290 50 q 174 -18 222 -18 q 92 16 126 -18 q 57 99 57 50 l 57 100 z "},"/":{"ha":386,"x_min":-18,"x_max":403,"o":"m 403 946 l 122 -231 l -18 -231 l 263 946 l 403 946 l 403 946 z "},":":{"ha":463,"x_min":115,"x_max":349,"o":"m 115 100 q 150 182 115 147 q 232 217 185 217 q 315 182 281 217 q 349 99 349 147 q 315 16 349 50 q 232 -18 281 -18 q 150 16 185 -18 q 115 99 115 50 l 115 100 m 115 532 q 150 614 115 579 q 232 649 185 649 q 315 614 281 649 q 349 531 349 579 q 315 447 349 482 q 232 413 281 413 q 150 447 185 413 q 115 531 115 482 l 115 532 z "},";":{"ha":463,"x_min":114,"x_max":365,"o":"m 118 -212 q 142 -195 129 -204 q 169 -176 156 -186 q 238 -115 207 -149 q 268 -35 268 -81 q 263 -15 268 -22 q 247 -8 258 -8 q 238 -9 243 -8 q 229 -11 233 -10 q 219 -12 224 -11 q 210 -12 214 -12 q 141 18 168 -12 q 114 94 114 49 q 147 182 114 147 q 228 217 179 217 q 327 170 289 217 q 365 50 365 124 q 296 -129 365 -60 q 139 -250 226 -199 l 118 -212 l 118 -212 m 118 532 q 153 614 118 579 q 235 649 188 649 q 317 614 283 649 q 351 531 351 579 q 317 447 351 482 q 235 413 283 413 q 153 447 188 413 q 118 531 118 482 l 118 532 z "},"<":{"ha":792,"x_min":78,"x_max":689,"o":"m 689 136 l 78 408 l 78 476 l 689 747 l 689 650 l 201 442 l 689 233 l 689 136 l 689 136 z "},"=":{"ha":792,"x_min":61,"x_max":731,"o":"m 731 439 l 731 331 l 61 331 l 61 439 l 731 439 l 731 439 m 731 649 l 731 540 l 61 540 l 61 649 l 731 649 l 731 649 z "},">":{"ha":792,"x_min":103,"x_max":714,"o":"m 103 747 l 714 476 l 714 408 l 103 136 l 103 233 l 590 442 l 103 650 l 103 747 l 103 747 z "},"?":{"ha":694,"x_min":81,"x_max":614,"o":"m 213 100 q 247 182 213 147 q 329 217 281 217 q 412 182 378 217 q 446 99 446 147 q 412 16 446 50 q 329 -18 378 -18 q 247 16 282 -18 q 213 99 213 50 l 213 100 m 350 344 l 306 344 q 304 362 304 353 q 304 379 304 371 q 306 434 304 415 q 313 469 308 453 q 317 478 315 474 q 321 489 318 483 q 345 541 333 517 q 367 590 357 565 q 390 661 381 625 q 399 742 399 697 q 369 867 399 824 q 283 910 340 910 q 231 895 253 910 q 210 858 210 881 q 210 855 210 857 q 211 850 211 853 q 222 833 214 842 q 238 815 229 825 q 256 785 247 801 q 264 746 264 769 q 239 683 264 708 q 176 658 214 658 q 108 688 135 658 q 81 764 81 718 q 153 906 81 849 q 335 963 226 963 q 537 901 460 963 q 614 738 614 839 q 581 622 614 674 q 478 528 547 571 q 424 494 446 508 q 388 465 401 479 q 358 416 364 443 q 350 343 351 389 l 350 344 z "},"@":{"ha":1292,"x_min":181,"x_max":1111,"o":"m 1014 246 l 1104 246 q 1079 202 1090 221 q 1057 168 1068 183 q 1034 140 1046 153 q 1010 114 1022 126 q 989 97 1000 106 q 965 78 978 88 q 829 6 900 29 q 681 -18 758 -18 q 324 120 467 -18 q 181 467 181 258 q 323 819 181 676 q 671 963 465 963 q 984 849 857 963 q 1111 569 1111 735 q 1080 408 1111 481 q 985 279 1049 336 q 953 255 969 267 q 921 233 938 243 q 858 203 889 214 q 801 193 828 193 q 733 220 757 193 q 700 310 710 247 q 660 260 678 281 q 625 226 642 240 q 585 207 606 213 q 539 201 564 201 q 412 258 464 201 q 360 396 360 315 q 448 610 360 515 q 650 704 536 704 q 724 681 696 704 q 764 613 753 658 l 786 697 l 919 697 l 817 315 q 814 306 815 310 q 811 299 813 301 q 809 290 810 294 q 808 282 808 286 q 816 256 808 265 q 836 246 824 246 q 870 256 851 246 q 908 282 889 265 q 948 325 928 300 q 983 378 968 350 q 1004 422 994 399 q 1021 468 1014 444 q 1032 519 1028 494 q 1036 567 1036 544 q 930 787 1036 694 q 678 879 824 879 q 375 763 493 879 q 257 465 257 647 q 379 172 257 288 q 690 57 501 57 q 876 110 794 57 q 1014 244 957 163 l 1014 246 m 738 561 q 737 576 738 568 q 735 594 736 585 q 716 644 731 621 q 669 667 701 667 q 581 610 619 667 q 521 488 543 554 q 500 410 507 447 q 493 346 493 372 q 512 268 493 297 q 563 239 531 239 q 650 294 614 239 q 708 414 686 349 q 729 495 722 456 q 738 560 736 535 l 738 561 z "},"A":{"ha":1003,"x_min":35,"x_max":979,"o":"m 471 964 l 513 964 l 843 208 q 874 140 861 167 q 901 94 888 113 q 936 59 918 71 q 979 40 954 47 l 979 0 l 519 0 l 519 42 l 568 42 q 619 53 604 40 q 633 92 633 65 q 622 158 633 125 q 596 222 610 192 q 584 249 590 236 q 574 274 578 261 l 261 275 q 250 247 256 261 q 238 219 244 233 q 228 197 233 208 q 219 175 224 186 q 207 132 213 153 q 201 92 201 111 q 217 53 201 65 q 267 40 232 40 l 329 42 l 329 0 l 35 0 l 35 42 q 68 53 53 43 q 99 82 83 63 q 129 132 114 101 q 163 207 144 163 l 471 964 l 471 964 m 285 335 l 549 335 l 413 660 l 285 335 l 285 335 z "},"B":{"ha":926,"x_min":35,"x_max":879,"o":"m 617 508 q 626 505 621 506 q 636 503 631 504 q 803 422 726 481 q 879 258 879 364 q 778 72 879 144 q 518 0 676 0 l 35 0 l 35 43 l 67 43 q 144 73 126 42 q 163 207 163 104 l 163 738 q 146 869 163 838 q 35 901 129 901 l 35 946 l 513 946 q 553 943 532 944 q 594 939 574 942 q 760 875 685 925 q 835 719 835 825 q 767 575 835 621 q 617 507 700 529 l 617 508 m 389 474 l 389 149 q 405 67 389 85 q 479 50 421 50 q 594 100 554 50 q 633 247 633 150 q 575 426 633 379 q 389 472 517 472 l 389 474 m 389 525 q 403 524 396 524 q 415 524 410 524 q 426 522 421 522 q 435 522 431 522 q 560 566 521 522 q 599 707 599 610 q 565 849 599 803 q 457 894 531 894 q 406 881 424 894 q 389 839 389 867 l 389 525 l 389 525 z "},"C":{"ha":1003,"x_min":47,"x_max":919,"o":"m 856 963 l 894 963 l 894 632 l 853 632 q 845 650 849 640 q 839 668 842 660 q 790 763 815 726 q 724 833 764 800 q 713 842 718 838 q 701 850 707 846 q 660 877 681 865 q 619 896 639 889 q 579 906 600 903 q 538 910 558 910 q 356 799 418 910 q 293 478 293 689 q 362 163 293 268 q 568 57 431 57 q 740 106 667 57 q 876 222 813 156 l 919 188 q 751 37 843 92 q 533 -18 660 -18 q 183 118 319 -18 q 47 469 47 254 q 184 822 47 682 q 526 963 321 963 q 617 952 576 963 q 692 931 658 942 q 749 908 724 918 q 793 897 775 897 q 823 904 811 897 q 844 932 835 911 q 850 946 847 939 q 856 961 853 953 l 856 963 z "},"D":{"ha":1003,"x_min":35,"x_max":956,"o":"m 35 0 l 35 43 l 53 43 q 131 73 113 42 q 149 207 149 104 l 149 738 q 131 870 149 839 q 53 901 113 901 l 35 903 l 35 946 l 429 946 q 578 933 507 944 q 701 900 649 921 q 881 743 818 851 q 954 515 944 635 q 955 494 954 504 q 956 474 956 483 q 885 210 956 326 q 694 40 815 93 q 677 33 686 36 q 660 26 668 29 q 563 5 615 10 q 424 0 511 0 l 35 0 l 35 0 m 375 108 q 390 59 375 71 q 453 47 406 47 q 646 155 582 47 q 710 481 710 263 q 644 779 710 674 q 460 885 579 885 q 392 868 410 885 q 375 803 375 851 l 375 108 l 375 108 z "},"E":{"ha":926,"x_min":35,"x_max":903,"o":"m 835 946 l 835 661 l 792 661 q 791 669 792 664 q 789 678 790 674 q 768 768 781 739 q 729 821 756 797 q 718 830 724 825 q 707 839 713 835 q 705 841 706 840 q 703 842 704 842 q 624 878 667 868 q 506 888 581 888 q 409 878 429 888 q 389 831 389 868 l 389 513 q 540 565 501 514 q 592 717 579 615 l 635 718 l 635 238 l 592 238 q 544 396 582 340 q 389 451 506 451 l 389 172 q 409 71 389 93 q 501 49 429 49 q 723 110 639 49 q 860 294 807 171 l 903 296 l 835 0 l 35 0 l 35 43 l 67 43 q 144 73 126 42 q 163 207 163 104 l 163 738 q 146 869 163 838 q 35 901 129 901 l 35 946 l 835 946 l 835 946 z "},"F":{"ha":849,"x_min":35,"x_max":835,"o":"m 835 946 l 835 661 l 793 661 q 710 840 775 792 q 511 888 644 888 q 408 877 428 888 q 389 826 389 867 l 389 513 q 540 565 501 514 q 592 717 579 615 l 635 718 l 635 238 l 592 238 q 544 396 582 340 q 389 451 506 451 l 389 208 q 408 68 389 94 q 538 42 428 42 l 538 0 l 35 0 l 35 43 l 67 43 q 144 73 126 42 q 163 207 163 104 l 163 738 q 146 869 163 838 q 35 901 129 901 l 35 946 l 835 946 l 835 946 z "},"G":{"ha":1081,"x_min":47,"x_max":1049,"o":"m 575 372 l 575 413 l 1049 413 l 1049 372 q 953 344 976 365 q 931 263 931 324 l 931 60 q 908 51 919 54 q 888 43 897 47 q 733 -1 810 17 q 574 -18 656 -18 q 199 107 351 -18 q 47 465 47 232 q 188 822 47 681 q 540 963 328 963 q 637 953 594 963 q 711 931 679 943 q 769 908 744 918 q 817 899 794 899 q 849 910 836 899 q 874 950 863 921 q 876 956 875 953 q 878 963 876 960 l 917 964 l 917 633 l 872 633 q 870 638 871 635 q 869 642 869 640 q 816 758 844 715 q 739 839 788 801 q 731 844 735 842 q 724 850 728 847 q 682 877 703 865 q 642 896 661 889 q 601 906 622 903 q 560 910 581 910 q 371 815 426 910 q 301 607 315 721 q 294 535 296 571 q 293 467 293 500 q 369 149 293 264 q 579 33 444 33 q 686 60 656 33 q 717 153 717 88 l 717 268 q 681 357 717 343 q 575 371 644 371 l 575 372 z "},"H":{"ha":1081,"x_min":35,"x_max":1046,"o":"m 389 524 l 692 524 l 692 738 q 676 868 692 835 q 564 901 660 901 l 564 946 l 1046 946 l 1046 903 l 1014 903 q 936 870 954 901 q 918 736 918 839 l 918 208 q 936 74 918 106 q 1014 42 954 42 l 1046 43 l 1046 0 l 564 0 l 564 43 l 596 43 q 674 73 656 42 q 692 207 692 104 l 692 447 l 389 447 l 389 208 q 407 73 389 104 q 485 42 425 42 l 517 43 l 517 0 l 35 0 l 35 43 l 67 43 q 144 74 126 42 q 163 207 163 106 l 163 738 q 146 869 163 838 q 35 901 129 901 l 35 946 l 517 946 l 517 903 l 485 903 q 407 870 425 901 q 389 736 389 839 l 389 524 l 389 524 z "},"I":{"ha":540,"x_min":29,"x_max":511,"o":"m 29 946 l 511 946 l 511 903 l 479 903 q 401 870 419 901 q 383 736 383 839 l 383 208 q 401 73 383 104 q 479 42 419 42 l 511 43 l 511 0 l 29 0 l 29 43 l 61 43 q 139 74 121 42 q 157 207 157 106 l 157 738 q 140 869 157 836 q 29 901 124 901 l 29 946 l 29 946 z "},"J":{"ha":694,"x_min":0,"x_max":660,"o":"m 660 903 l 628 903 q 550 871 568 901 q 532 738 532 840 l 532 299 q 455 62 532 142 q 226 -18 378 -18 q 66 33 132 -18 q 0 161 0 85 q 29 239 0 208 q 101 269 58 269 q 169 240 142 269 q 197 169 197 211 q 192 142 197 156 q 182 118 188 129 q 176 107 179 113 q 171 96 174 101 q 167 84 168 90 q 165 71 165 78 q 181 44 165 56 q 219 33 197 33 q 283 58 261 33 q 306 126 306 82 l 306 738 q 289 872 306 843 q 175 901 272 901 l 175 946 l 660 946 l 660 903 l 660 903 z "},"K":{"ha":1081,"x_min":35,"x_max":1057,"o":"m 389 479 l 639 739 l 700 800 q 703 802 701 800 q 707 806 706 804 q 739 849 726 828 q 751 881 751 869 q 742 898 751 893 q 706 903 732 903 l 614 904 l 614 946 l 1011 946 l 1011 900 q 880 870 933 896 q 778 801 826 844 q 742 768 760 786 q 704 731 724 750 l 567 590 l 878 207 q 956 112 929 142 q 1004 67 982 82 q 1019 57 1011 61 q 1038 49 1028 53 q 1047 44 1042 46 q 1057 40 1051 43 l 1057 0 l 581 0 l 581 42 l 643 42 q 683 47 671 40 q 694 67 694 53 q 688 93 694 79 q 674 122 682 107 q 659 142 667 132 q 643 161 651 151 q 623 185 633 174 q 606 206 613 196 l 422 443 l 389 410 l 389 207 q 407 72 389 104 q 485 40 425 40 l 517 42 l 517 0 l 35 0 l 35 42 l 67 42 q 144 72 126 40 q 163 206 163 104 l 163 739 q 146 870 163 838 q 35 903 129 903 l 35 946 l 517 946 l 517 904 l 485 904 q 407 872 425 903 q 389 738 389 840 l 389 479 l 389 479 z "},"L":{"ha":926,"x_min":35,"x_max":892,"o":"m 851 325 l 892 325 l 831 0 l 35 0 l 35 43 l 67 43 q 144 74 126 42 q 163 207 163 106 l 163 738 q 146 869 163 836 q 35 901 129 901 l 35 946 l 525 946 l 525 903 l 485 903 q 407 870 425 901 q 389 736 389 839 l 389 138 q 416 69 389 89 q 507 49 443 49 q 728 123 651 49 q 851 324 804 197 l 851 325 z "},"M":{"ha":1311,"x_min":22,"x_max":1288,"o":"m 379 946 l 650 285 l 933 946 l 1288 946 l 1288 903 l 1256 903 q 1178 870 1196 901 q 1160 736 1160 839 l 1160 208 q 1178 73 1160 104 q 1256 42 1196 42 l 1288 43 l 1288 0 l 806 0 l 806 43 q 917 79 900 42 q 933 207 933 117 l 933 810 l 583 0 l 549 0 l 206 818 l 206 208 q 223 72 206 103 q 342 42 240 42 l 342 0 l 22 0 l 22 43 l 54 43 q 132 73 114 42 q 150 207 150 104 l 150 738 q 133 869 150 838 q 22 901 117 901 l 22 946 l 379 946 l 379 946 z "},"N":{"ha":1003,"x_min":25,"x_max":979,"o":"m 322 946 l 796 354 l 796 739 q 778 873 796 843 q 660 903 761 903 l 660 946 l 979 946 l 979 904 l 947 904 q 869 872 888 903 q 851 738 851 840 l 851 -18 l 813 -18 l 208 735 l 208 208 q 226 74 208 106 q 303 42 244 42 l 336 43 l 336 0 l 25 0 l 25 43 l 57 43 q 135 74 117 42 q 153 207 153 106 l 153 739 q 136 870 153 838 q 25 903 119 903 l 25 946 l 322 946 l 322 946 z "},"O":{"ha":1081,"x_min":47,"x_max":1033,"o":"m 540 964 q 893 824 753 963 q 1033 474 1033 685 q 892 122 1033 263 q 540 -18 751 -18 q 188 122 329 -18 q 47 474 47 263 q 188 824 47 685 q 540 963 329 963 l 540 964 m 540 911 q 360 792 426 910 q 293 469 293 674 q 357 147 293 260 q 540 33 421 33 q 724 147 660 33 q 788 469 788 260 q 722 792 788 674 q 540 910 656 910 l 540 911 z "},"P":{"ha":849,"x_min":35,"x_max":838,"o":"m 375 419 l 375 208 q 393 73 375 104 q 471 42 411 42 l 503 43 l 503 0 l 35 0 l 35 43 l 53 43 q 131 73 113 42 q 149 207 149 104 l 149 738 q 131 870 149 839 q 53 901 113 901 l 35 903 l 35 946 l 508 946 q 517 944 513 944 q 528 944 522 944 q 741 885 644 940 q 838 692 838 829 q 811 574 838 626 q 731 485 785 522 q 722 479 726 482 q 714 474 718 476 q 610 431 665 443 q 461 418 554 418 l 375 419 l 375 419 m 375 478 q 406 474 394 475 q 426 474 418 474 q 565 535 529 474 q 601 685 601 596 q 563 839 601 789 q 446 889 525 889 q 390 874 406 889 q 375 817 375 858 l 375 478 l 375 478 z "},"Q":{"ha":1081,"x_min":47,"x_max":1033,"o":"m 378 8 q 135 185 224 60 q 47 474 47 310 q 188 824 47 685 q 540 963 328 963 q 893 824 753 963 q 1033 474 1033 685 q 940 175 1033 301 q 682 0 847 49 q 767 -123 706 -76 q 906 -169 829 -169 q 908 -169 907 -169 q 911 -169 910 -169 q 949 -167 929 -169 q 1007 -157 969 -164 l 1019 -192 q 901 -228 961 -215 q 776 -242 840 -242 q 624 -222 692 -242 q 497 -158 556 -201 q 478 -143 488 -150 q 461 -129 468 -136 q 426 -89 440 -110 q 397 -39 411 -68 q 388 -17 392 -28 q 378 7 383 -6 l 378 8 m 540 911 q 360 792 426 910 q 293 469 293 674 q 357 147 293 260 q 540 33 421 33 q 724 147 660 33 q 788 469 788 260 q 722 792 788 674 q 540 910 656 910 l 540 911 z "},"R":{"ha":1003,"x_min":35,"x_max":992,"o":"m 646 465 l 825 208 q 897 108 872 140 q 944 61 922 75 q 967 50 956 54 q 992 42 978 46 l 992 0 l 704 0 l 418 439 l 389 439 l 389 208 q 407 73 389 104 q 485 42 425 42 l 517 43 l 517 0 l 35 0 l 35 43 l 67 43 q 144 74 126 42 q 163 207 163 106 l 163 738 q 146 869 163 836 q 35 901 129 901 l 35 946 l 456 946 q 583 942 543 944 q 651 932 622 940 q 671 926 661 929 q 692 919 681 924 q 813 837 765 892 q 861 700 861 782 q 799 543 861 599 q 646 464 738 488 l 646 465 m 389 485 q 569 526 513 485 q 625 696 625 567 q 587 844 625 797 q 467 892 549 892 q 406 876 424 892 q 389 824 389 861 l 389 485 l 389 485 z "},"S":{"ha":772,"x_min":71,"x_max":725,"o":"m 71 332 l 113 332 q 209 120 129 204 q 390 36 289 36 q 512 78 464 36 q 560 183 560 119 q 547 243 560 218 q 504 292 535 268 q 475 311 492 301 q 438 331 458 321 l 299 403 q 147 511 210 446 q 83 686 83 576 q 163 888 83 813 q 378 963 243 963 q 444 955 414 963 q 501 939 475 947 q 552 922 528 929 q 600 914 576 914 q 621 920 613 914 q 636 940 629 926 q 640 949 638 944 q 643 958 642 953 l 683 960 l 683 656 l 643 656 q 553 831 619 751 q 378 910 488 910 q 269 874 311 910 q 226 781 226 838 q 276 685 226 722 q 393 613 325 647 q 434 593 414 603 q 476 574 454 583 q 647 461 569 528 q 725 272 725 394 q 629 65 725 146 q 385 -15 533 -15 q 313 -8 347 -15 q 249 6 278 -1 q 194 19 219 13 q 150 26 169 26 q 125 15 135 26 q 113 -18 115 4 l 71 -18 l 71 332 l 71 332 z "},"T":{"ha":926,"x_min":49,"x_max":878,"o":"m 49 946 l 878 946 l 878 653 l 840 653 q 765 833 821 779 q 576 888 708 886 l 576 208 q 594 72 576 103 q 713 42 611 42 l 713 0 l 214 0 l 214 43 q 333 72 317 42 q 350 207 350 103 l 350 889 q 165 833 224 883 q 86 651 106 783 l 49 653 l 49 946 l 49 946 z "},"U":{"ha":1003,"x_min":24,"x_max":979,"o":"m 24 946 l 500 946 l 500 903 l 458 903 q 382 871 400 901 q 364 738 364 840 l 364 263 q 419 113 364 168 q 565 57 474 57 q 761 147 713 57 q 810 364 810 238 l 810 739 q 792 872 810 842 q 674 901 775 901 l 674 946 l 979 946 l 979 903 l 961 903 q 883 871 901 901 q 865 738 865 840 l 865 363 q 851 209 865 274 q 808 104 836 144 q 686 15 768 49 q 510 -18 604 -18 q 240 66 342 -18 q 138 290 138 150 l 138 739 q 119 871 138 840 q 42 901 101 901 l 24 903 l 24 946 l 24 946 z "},"V":{"ha":1003,"x_min":24,"x_max":979,"o":"m 593 303 l 764 739 q 767 748 765 743 q 772 757 769 753 q 790 804 782 781 q 799 853 799 828 q 784 892 799 881 q 735 903 769 903 l 671 904 l 671 946 l 979 946 l 979 904 q 922 888 944 900 q 879 843 899 875 q 856 799 868 825 q 831 738 844 774 l 532 -18 l 494 -18 l 172 739 q 142 805 156 778 q 114 850 128 832 q 75 888 96 876 q 24 903 54 899 l 24 946 l 504 946 l 504 904 l 440 904 q 391 892 406 903 q 376 854 376 881 q 376 848 376 851 q 376 842 376 844 q 385 808 378 828 q 413 738 392 789 l 593 303 l 593 303 z "},"W":{"ha":1389,"x_min":24,"x_max":1365,"o":"m 514 314 l 681 728 q 677 735 679 731 q 674 744 675 740 q 673 748 674 746 q 671 753 672 750 q 621 856 650 810 q 518 903 592 903 l 518 946 l 965 946 l 965 904 l 944 904 q 892 890 908 903 q 876 844 876 876 q 876 840 876 842 q 876 836 876 838 q 882 801 878 821 q 901 738 886 782 l 1036 314 l 1179 739 q 1200 803 1194 785 q 1207 833 1206 821 q 1207 839 1207 836 q 1207 846 1207 842 q 1192 890 1207 876 q 1139 903 1176 903 l 1094 904 l 1094 946 l 1365 946 l 1365 904 q 1296 863 1321 897 q 1256 790 1271 829 q 1246 763 1250 776 q 1238 738 1242 750 l 979 -18 l 940 -18 l 710 644 l 442 -18 l 407 -18 l 144 739 q 124 795 133 771 q 106 835 114 819 q 78 872 93 860 q 40 896 64 885 q 33 899 38 897 q 24 903 28 901 l 24 946 l 440 946 l 440 904 l 414 904 q 362 890 378 903 q 346 847 346 876 q 351 805 346 825 q 364 764 357 785 q 366 760 365 763 q 368 754 367 757 q 371 746 369 750 q 374 738 372 742 l 514 314 l 514 314 z "},"X":{"ha":1003,"x_min":35,"x_max":978,"o":"m 560 601 l 658 739 q 673 756 665 746 q 690 778 681 767 q 701 795 696 786 q 713 813 707 804 q 729 844 722 829 q 736 874 736 860 q 724 896 736 889 q 683 903 713 903 l 622 904 l 622 946 l 964 946 l 964 904 q 848 871 892 903 q 767 789 804 839 q 747 765 757 778 q 728 738 738 751 l 592 550 l 814 207 q 890 99 860 135 q 946 50 919 63 q 962 44 954 46 q 978 40 969 42 l 978 0 l 499 0 l 499 42 l 556 42 q 599 49 586 40 q 611 75 611 57 q 599 126 611 101 q 571 172 586 150 q 560 190 565 182 q 550 206 554 197 l 446 376 l 328 207 q 315 188 322 197 q 301 169 308 179 q 269 122 283 147 q 256 71 256 97 q 268 47 256 54 q 308 40 281 40 l 376 42 l 376 0 l 35 0 l 35 42 q 146 84 100 43 q 229 174 192 125 q 241 190 235 182 q 253 206 247 197 l 415 421 l 208 739 q 184 774 196 757 q 163 807 172 792 q 111 862 139 839 q 36 903 83 885 l 36 946 l 522 946 l 522 904 l 464 904 q 422 895 435 903 q 410 869 410 888 q 410 863 410 867 q 410 857 410 860 q 424 817 413 840 q 472 738 436 794 l 560 601 l 560 601 z "},"Y":{"ha":1003,"x_min":36,"x_max":979,"o":"m 588 460 l 750 739 q 758 751 754 744 q 767 763 763 757 q 790 806 779 783 q 801 851 801 828 q 781 890 801 881 q 738 901 761 900 q 724 903 731 903 q 710 903 717 903 l 710 946 l 979 946 l 979 904 q 902 865 933 899 q 849 793 871 832 q 831 765 839 779 q 817 738 824 750 l 622 410 l 622 208 q 640 72 622 101 q 758 42 658 42 l 758 0 l 269 0 l 269 43 l 303 43 q 379 73 361 42 q 397 207 397 104 l 397 365 l 199 739 q 196 743 197 740 q 193 749 194 746 q 189 755 190 751 q 185 763 188 758 q 127 851 160 810 q 36 903 94 893 l 36 946 l 506 946 l 506 904 l 451 904 q 407 894 421 903 q 393 863 393 885 q 393 855 393 858 q 394 849 393 851 q 406 812 396 833 q 443 738 415 790 l 588 460 l 588 460 z "},"Z":{"ha":926,"x_min":36,"x_max":879,"o":"m 36 17 l 568 890 q 544 889 556 889 q 522 890 532 889 q 504 890 513 890 q 489 890 496 890 q 257 851 343 890 q 128 656 171 813 l 86 657 l 113 946 l 842 946 l 842 928 l 317 60 l 519 60 q 542 59 531 58 q 565 61 553 60 q 647 81 607 67 q 714 115 686 94 q 771 172 747 139 q 815 264 794 206 q 828 301 822 281 q 842 343 835 321 l 879 344 l 842 0 l 36 0 l 36 17 l 36 17 z "},"[":{"ha":463,"x_min":103,"x_max":449,"o":"m 103 946 l 449 946 l 449 886 l 335 886 q 291 872 306 885 q 276 831 276 858 l 276 -108 q 289 -157 276 -142 q 332 -172 301 -172 l 449 -172 l 449 -231 l 103 -231 l 103 946 l 103 946 z "},"\\":{"ha":386,"x_min":-1,"x_max":388,"o":"m -1 946 l 138 946 l 388 -82 l 247 -82 l -1 946 l -1 946 z "},"]":{"ha":463,"x_min":14,"x_max":360,"o":"m 360 -231 l 14 -231 l 14 -171 l 128 -171 q 172 -158 157 -171 q 186 -117 186 -144 l 186 824 q 173 871 186 856 q 131 886 160 886 l 14 888 l 14 946 l 360 946 l 360 -231 l 360 -231 z "},"^":{"ha":807,"x_min":189,"x_max":618,"o":"m 285 642 l 189 642 l 358 919 l 449 919 l 618 642 l 522 642 l 404 811 l 285 642 l 285 642 z "},"_":{"ha":694,"x_min":21,"x_max":674,"o":"m 21 -111 l 674 -111 l 674 -208 l 21 -208 l 21 -111 l 21 -111 z "},"`":{"ha":463,"x_min":103,"x_max":358,"o":"m 103 969 l 285 969 l 358 744 l 299 744 l 103 969 l 103 969 z "},"a":{"ha":694,"x_min":35,"x_max":682,"o":"m 407 388 q 409 429 408 414 q 410 458 410 444 q 384 572 410 540 q 294 604 358 604 q 229 590 257 604 q 201 557 201 576 q 201 554 201 556 q 201 551 201 553 q 210 534 204 543 q 224 517 217 525 q 238 492 231 504 q 244 463 244 479 q 219 406 244 428 q 154 383 194 383 q 85 412 113 383 q 58 483 58 440 q 138 601 58 553 q 331 649 217 649 q 517 604 436 649 q 597 440 597 560 l 597 196 l 599 122 q 607 87 600 99 q 626 75 614 75 q 629 75 628 75 q 632 75 631 75 q 644 80 638 76 q 660 92 650 83 l 682 64 q 608 3 650 24 q 522 -18 567 -18 q 450 3 476 -18 q 407 75 424 24 q 309 6 364 29 q 193 -18 254 -18 q 81 24 126 -18 q 35 126 35 65 q 103 257 35 207 q 253 338 171 307 q 335 365 294 353 q 407 386 376 376 l 407 388 m 407 335 q 281 272 325 315 q 236 167 236 228 q 255 104 236 128 q 306 81 274 81 q 335 85 321 81 q 364 99 350 89 q 385 115 375 106 q 407 138 396 125 l 407 335 l 407 335 z "},"b":{"ha":772,"x_min":35,"x_max":728,"o":"m 297 946 l 297 565 q 337 601 318 585 q 375 626 356 617 q 419 643 397 638 q 468 649 442 649 q 653 556 579 649 q 728 324 728 464 q 642 79 728 176 q 424 -18 556 -18 q 357 -11 388 -18 q 297 11 326 -4 q 266 31 282 19 q 233 56 250 42 l 133 -18 l 107 -7 l 107 785 q 93 885 107 861 q 35 911 79 910 l 35 946 l 297 946 l 297 946 m 297 506 l 297 175 q 319 59 297 93 q 394 25 342 25 q 495 91 464 25 q 526 304 526 157 q 496 504 526 436 q 406 572 465 572 q 388 571 397 572 q 372 567 379 569 q 338 545 356 560 q 297 504 321 531 l 297 506 z "},"c":{"ha":617,"x_min":35,"x_max":592,"o":"m 563 157 l 592 132 q 478 24 549 65 q 326 -18 407 -18 q 117 74 200 -18 q 35 310 35 167 q 124 551 35 454 q 349 649 214 649 q 506 606 446 649 q 565 494 565 564 q 540 438 565 461 q 479 414 515 414 q 417 445 432 414 q 400 515 401 476 q 399 531 399 522 q 399 546 399 539 q 384 590 399 575 q 342 604 369 604 q 264 544 292 604 q 236 374 236 483 q 287 163 236 240 q 426 85 338 85 q 474 91 451 85 q 517 113 496 97 q 539 131 528 121 q 563 156 550 142 l 563 157 z "},"d":{"ha":772,"x_min":44,"x_max":738,"o":"m 475 569 l 475 785 q 457 893 475 874 q 361 913 439 913 l 361 946 l 665 946 l 665 142 q 680 77 665 93 q 738 58 694 61 l 738 26 q 594 9 656 19 q 475 -18 532 -1 l 475 85 q 461 65 468 74 q 449 50 454 57 q 380 -3 415 13 q 300 -18 344 -18 q 115 74 186 -18 q 44 315 44 167 q 120 554 44 460 q 311 649 196 649 q 366 642 340 649 q 417 618 392 635 q 445 597 431 610 q 475 568 460 585 l 475 569 m 475 514 q 430 551 447 538 q 397 568 413 564 q 383 572 390 571 q 368 572 376 572 q 275 515 304 572 q 246 325 246 457 q 272 125 246 186 q 356 64 297 64 q 423 87 396 64 q 475 161 450 110 l 475 514 l 475 514 z "},"e":{"ha":617,"x_min":35,"x_max":592,"o":"m 235 335 q 238 301 236 318 q 242 268 239 285 q 286 142 251 199 q 401 85 321 85 q 489 107 450 85 q 560 176 528 129 l 592 156 q 481 32 546 82 q 326 -18 417 -18 q 115 75 196 -18 q 35 319 35 168 q 115 556 35 464 q 319 649 196 649 q 433 624 382 649 q 522 550 485 599 q 526 545 524 547 q 529 542 528 543 q 569 455 558 501 q 581 333 581 408 l 235 335 l 235 335 m 226 394 l 413 394 q 413 407 413 400 q 414 419 413 414 q 414 429 414 425 q 414 438 414 433 q 392 569 414 526 q 325 611 371 611 q 251 563 274 611 q 226 393 229 514 l 226 394 z "},"f":{"ha":463,"x_min":24,"x_max":557,"o":"m 413 0 l 28 0 l 28 33 l 38 33 q 94 57 81 32 q 108 160 108 82 l 108 564 l 24 564 l 24 629 l 108 629 l 108 676 q 120 806 108 761 q 167 886 132 851 q 251 941 203 922 q 360 960 300 960 q 505 922 453 960 q 557 817 557 885 q 532 757 557 782 q 471 732 507 732 q 410 756 436 732 q 385 813 385 779 q 388 838 385 828 q 397 856 392 847 q 399 859 397 857 q 401 863 400 861 q 406 874 404 868 q 408 889 408 881 q 399 908 408 901 q 371 915 389 915 q 316 892 335 915 q 297 824 297 869 l 299 676 l 299 629 l 428 629 l 428 564 l 299 564 l 299 161 q 315 53 299 75 q 413 32 331 32 l 413 0 l 413 0 z "},"g":{"ha":694,"x_min":50,"x_max":674,"o":"m 158 -64 q 90 -15 111 -42 q 68 49 68 11 q 105 139 68 99 q 222 215 142 179 q 106 299 150 250 q 63 433 63 349 q 142 591 63 533 q 360 649 221 649 q 385 648 374 649 q 408 647 397 647 q 444 641 425 644 q 490 631 464 638 l 668 632 l 668 556 l 567 556 q 590 515 581 533 q 607 478 600 496 q 615 444 613 461 q 617 410 617 428 q 541 256 617 304 q 375 201 465 207 q 364 201 369 201 q 353 201 358 201 q 338 201 346 201 q 321 203 331 201 q 302 203 313 203 q 281 203 292 203 q 261 190 269 196 q 246 179 253 185 q 230 158 235 168 q 225 133 225 147 q 240 101 225 113 q 281 89 254 89 l 447 90 q 614 44 554 89 q 674 -83 674 -1 q 598 -235 674 -189 q 432 -294 522 -281 q 374 -300 403 -299 q 318 -301 344 -301 q 120 -267 190 -301 q 50 -171 50 -233 q 76 -107 50 -133 q 158 -64 103 -81 l 158 -64 m 219 -86 q 191 -115 201 -103 q 176 -140 181 -128 q 173 -151 174 -146 q 172 -162 172 -157 q 220 -231 172 -208 q 365 -253 268 -253 q 511 -226 457 -253 q 565 -156 565 -200 q 538 -102 565 -121 q 463 -83 511 -83 q 401 -84 432 -83 q 342 -85 371 -85 q 281 -85 311 -85 q 219 -86 250 -86 l 219 -86 m 246 447 q 247 407 246 429 q 250 361 247 385 q 276 282 257 318 q 340 246 296 246 q 407 285 386 246 q 428 411 428 325 q 406 559 428 514 q 336 604 385 604 q 267 567 289 604 q 246 446 246 529 l 246 447 z "},"h":{"ha":772,"x_min":35,"x_max":749,"o":"m 297 946 l 297 542 q 385 624 339 599 q 499 649 432 649 q 644 572 613 649 q 676 401 676 496 l 676 161 q 690 58 676 85 q 742 32 703 32 l 749 33 l 749 0 l 414 0 l 415 33 q 473 58 460 33 q 486 160 486 82 l 486 467 q 466 531 486 508 q 410 554 446 554 q 372 546 390 554 q 335 521 353 538 q 316 501 325 513 q 297 476 307 490 l 297 161 q 311 58 297 82 q 368 32 325 33 l 369 0 l 35 0 l 35 33 l 42 33 q 94 58 81 32 q 107 160 107 85 l 107 785 q 94 885 107 858 q 42 911 81 911 l 35 913 l 35 946 l 297 946 l 297 946 z "},"i":{"ha":386,"x_min":35,"x_max":369,"o":"m 297 632 l 297 161 q 310 58 297 85 q 363 32 324 32 l 369 33 l 369 0 l 35 0 l 35 33 l 42 33 q 94 58 81 32 q 107 160 107 85 l 107 471 q 94 571 107 544 q 42 597 81 597 l 35 599 l 35 632 l 297 632 l 297 632 m 308 858 q 277 783 308 814 q 201 751 246 751 q 127 783 158 751 q 96 857 96 814 q 127 932 96 901 q 203 963 158 963 q 278 932 247 963 q 308 857 308 901 l 308 858 z "},"j":{"ha":463,"x_min":-81,"x_max":369,"o":"m 360 632 l 360 4 q 308 -215 360 -129 q 104 -301 257 -301 q -30 -262 21 -301 q -81 -161 -81 -224 q -56 -97 -81 -124 q 4 -69 -31 -69 q 60 -94 36 -69 q 85 -150 85 -118 q 80 -175 85 -164 q 69 -196 75 -186 q 60 -208 64 -203 q 54 -221 57 -214 q 53 -224 54 -222 q 53 -229 53 -226 q 65 -249 53 -240 q 96 -257 78 -257 q 153 -228 136 -257 q 169 -131 169 -200 l 169 471 q 158 569 169 542 q 75 597 146 597 l 75 632 l 360 632 l 360 632 m 369 858 q 339 783 369 814 q 264 751 308 751 q 190 783 221 751 q 158 857 158 814 q 190 932 158 901 q 264 963 221 963 q 339 932 308 963 q 369 857 369 901 l 369 858 z "},"k":{"ha":772,"x_min":35,"x_max":772,"o":"m 297 946 l 297 329 l 435 472 l 481 521 q 508 552 499 538 q 518 576 518 567 q 497 594 518 592 q 425 597 476 597 l 425 632 l 710 632 l 710 599 q 600 560 647 597 q 513 478 553 522 q 488 451 500 464 q 465 426 476 439 q 462 423 464 425 q 458 419 460 421 l 646 161 q 657 143 651 151 q 668 125 663 135 q 713 69 689 96 q 772 32 738 43 l 772 0 l 438 0 l 438 33 l 451 33 q 478 38 469 32 q 488 56 488 43 q 476 94 488 75 q 451 131 465 114 q 440 146 446 139 q 429 160 433 153 l 328 306 l 297 278 l 297 161 q 310 58 297 85 q 363 32 324 32 l 368 33 l 368 0 l 35 0 l 35 33 l 42 33 q 94 58 81 32 q 107 160 107 85 l 107 785 q 94 885 107 858 q 42 911 81 911 l 35 913 l 35 946 l 297 946 l 297 946 z "},"l":{"ha":386,"x_min":35,"x_max":369,"o":"m 297 946 l 297 161 q 310 59 297 86 q 361 32 324 32 l 369 33 l 369 0 l 35 0 l 35 33 l 42 33 q 94 58 81 32 q 107 160 107 85 l 107 785 q 94 885 107 858 q 42 911 81 911 l 35 913 l 35 946 l 297 946 l 297 946 z "},"m":{"ha":1157,"x_min":36,"x_max":1121,"o":"m 299 632 l 299 525 q 329 563 314 546 q 358 593 344 581 q 426 636 390 624 q 507 649 461 649 q 615 618 574 649 q 674 524 656 588 q 714 574 694 553 q 751 610 733 596 q 806 640 778 631 q 869 649 835 649 q 1008 590 968 649 q 1049 442 1049 531 l 1049 161 q 1062 58 1049 85 q 1113 32 1075 32 l 1121 33 l 1121 0 l 786 0 l 786 33 l 794 33 q 845 58 832 32 q 858 160 858 85 l 858 443 q 844 531 858 508 q 788 554 829 554 q 724 535 750 554 q 674 474 697 517 l 674 161 q 687 58 674 85 q 738 32 700 32 l 746 33 l 746 0 l 411 0 l 411 33 l 419 33 q 470 58 457 32 q 483 160 483 85 l 483 458 q 467 532 483 510 q 415 554 451 554 q 380 549 396 554 q 350 533 364 544 q 325 509 338 524 q 299 474 313 494 l 299 161 q 312 58 299 85 q 363 32 325 32 l 371 33 l 371 0 l 36 0 l 36 33 l 43 33 q 95 58 82 32 q 108 160 108 85 l 108 471 q 94 572 108 547 q 36 597 81 597 l 36 632 l 299 632 l 299 632 z "},"n":{"ha":772,"x_min":35,"x_max":749,"o":"m 297 632 l 297 526 q 385 619 339 590 q 494 649 431 649 q 635 587 594 649 q 676 435 676 525 l 676 161 q 690 58 676 85 q 740 32 703 32 l 749 33 l 749 0 l 414 0 l 414 33 l 422 33 q 473 59 460 32 q 486 160 486 86 l 486 435 q 471 528 486 503 q 415 554 456 554 q 388 551 400 554 q 363 540 375 547 q 332 516 347 532 q 297 476 317 500 l 297 161 q 310 58 297 85 q 363 32 324 32 l 369 33 l 369 0 l 35 0 l 35 33 l 42 33 q 94 58 81 32 q 107 160 107 85 l 107 471 q 94 571 107 544 q 42 597 81 597 l 35 599 l 35 632 l 297 632 l 297 632 z "},"o":{"ha":694,"x_min":35,"x_max":660,"o":"m 35 322 q 124 556 35 463 q 349 649 214 649 q 572 555 485 649 q 660 317 660 461 q 571 76 660 171 q 346 -18 482 -18 q 122 76 208 -18 q 35 321 35 169 l 35 322 m 236 342 q 247 153 239 214 q 278 61 256 93 q 308 34 289 43 q 347 25 326 25 q 390 35 369 25 q 422 64 410 46 q 449 151 440 88 q 458 311 458 215 q 433 536 458 468 q 346 604 407 604 q 261 549 286 604 q 236 363 236 494 l 236 342 l 236 342 z "},"p":{"ha":772,"x_min":35,"x_max":728,"o":"m 289 632 l 289 542 q 368 624 326 600 q 471 649 410 649 q 655 556 582 649 q 728 318 728 463 q 650 78 728 174 q 456 -18 572 -18 q 403 -12 426 -18 q 357 8 379 -6 q 328 32 343 18 q 297 65 314 46 l 297 -122 q 315 -231 297 -211 q 411 -250 332 -250 l 411 -283 l 35 -283 l 35 -250 l 42 -250 q 94 -224 81 -250 q 107 -122 107 -197 l 107 471 q 94 571 107 544 q 42 597 81 597 l 35 599 l 35 632 l 289 632 l 289 632 m 297 138 q 305 124 301 129 q 313 113 308 118 q 356 70 333 83 q 407 57 378 57 q 472 85 443 57 q 510 157 500 113 q 522 233 518 189 q 526 326 526 278 q 497 506 526 446 q 408 565 468 565 q 346 543 372 565 q 297 471 319 521 l 297 138 l 297 138 z "},"q":{"ha":772,"x_min":44,"x_max":738,"o":"m 475 69 q 458 49 467 58 q 439 32 449 39 q 376 -7 408 4 q 304 -18 344 -18 q 119 74 194 -18 q 44 304 44 167 q 134 550 44 451 q 354 649 224 649 q 409 644 383 649 q 458 628 435 639 q 497 605 478 618 q 539 574 517 592 l 665 665 l 665 -122 q 678 -224 665 -197 q 729 -250 692 -250 l 738 -250 l 738 -283 l 361 -283 l 361 -250 q 458 -229 442 -250 q 475 -122 475 -208 l 475 69 l 475 69 m 475 144 l 475 490 q 449 573 475 542 q 381 604 424 604 q 279 536 313 604 q 246 325 246 468 q 278 129 246 194 q 376 64 311 64 q 428 79 407 64 q 469 131 450 94 q 472 137 471 133 q 475 143 474 140 l 475 144 z "},"r":{"ha":617,"x_min":36,"x_max":615,"o":"m 299 632 l 299 510 q 396 606 354 574 q 478 646 438 639 q 490 648 483 647 q 501 649 496 649 q 583 618 550 649 q 615 542 615 588 q 590 476 615 503 q 526 449 564 449 q 485 461 501 449 q 457 488 469 474 q 451 495 454 492 q 444 503 449 499 q 428 519 436 513 q 407 526 419 526 q 331 476 363 526 q 299 357 299 426 l 299 161 q 313 58 299 83 q 368 32 326 32 l 393 33 l 393 0 l 36 0 l 36 33 l 43 33 q 95 58 82 32 q 108 160 108 85 l 108 471 q 95 571 108 544 q 43 597 82 597 l 36 599 l 36 632 l 299 632 l 299 632 z "},"s":{"ha":540,"x_min":47,"x_max":504,"o":"m 47 -18 l 47 207 l 83 207 q 147 74 97 121 q 269 26 196 26 q 346 50 317 26 q 375 113 375 74 q 358 167 375 142 q 310 206 340 192 l 183 265 q 83 344 118 294 q 47 453 47 393 q 109 592 47 535 q 260 649 171 649 q 298 644 279 649 q 336 635 317 640 q 348 631 342 633 q 360 628 354 629 q 385 623 372 625 q 410 621 397 621 q 432 628 424 621 q 444 649 440 635 l 476 650 l 476 450 l 444 450 q 374 573 414 535 q 272 611 333 611 q 208 590 235 611 q 182 536 182 568 q 215 468 182 493 q 294 421 249 443 q 319 410 307 415 q 343 399 331 404 q 453 325 403 369 q 504 192 504 281 q 445 41 504 99 q 292 -17 386 -17 q 247 -11 269 -17 q 203 0 224 -6 q 163 11 182 6 q 125 17 143 17 q 97 8 108 17 q 83 -18 86 0 l 47 -18 l 47 -18 z "},"t":{"ha":463,"x_min":24,"x_max":450,"o":"m 24 614 q 145 733 90 669 q 250 869 200 797 l 285 871 l 285 629 l 415 629 l 415 564 l 285 564 l 285 156 q 299 94 285 114 q 342 75 313 75 q 363 78 354 75 q 381 92 372 82 q 397 115 389 100 q 415 154 404 131 l 450 142 q 367 19 414 56 q 251 -18 319 -18 q 135 22 175 -18 q 94 140 94 63 l 94 572 l 24 572 l 24 614 l 24 614 z "},"u":{"ha":772,"x_min":24,"x_max":738,"o":"m 286 632 l 286 181 q 304 99 286 124 q 363 75 322 75 q 412 85 389 75 q 457 115 435 94 q 466 124 461 119 q 475 133 471 128 l 475 471 q 461 573 475 547 q 406 599 447 599 l 393 600 l 393 632 l 665 632 l 665 203 l 665 149 q 678 79 665 96 q 738 58 692 63 l 738 26 q 606 8 671 18 q 475 -18 540 -1 l 475 83 q 406 19 449 44 q 315 -14 363 -6 q 296 -17 306 -17 q 276 -18 286 -18 q 142 33 189 -18 q 96 181 96 83 l 96 471 q 83 572 96 544 q 31 599 69 599 l 24 600 l 24 632 l 286 632 l 286 632 z "},"v":{"ha":694,"x_min":1,"x_max":682,"o":"m 421 232 l 522 471 q 544 524 539 510 q 551 550 550 539 q 551 555 551 553 q 551 560 551 557 q 540 588 551 579 q 506 597 529 597 l 468 599 l 468 632 l 682 632 l 682 599 q 680 597 681 597 q 679 597 679 597 q 677 596 678 596 q 676 596 676 596 q 669 593 672 594 q 663 590 665 592 q 637 576 647 583 q 617 554 626 568 q 599 522 608 542 q 578 469 590 501 l 375 -18 l 336 -18 l 114 471 q 112 474 113 472 q 110 479 111 476 q 69 552 92 518 q 1 597 47 586 l 1 632 l 365 632 l 365 599 l 342 599 q 302 588 315 597 q 289 558 289 578 q 290 549 289 554 q 292 540 290 544 q 298 518 293 529 q 308 496 303 507 q 315 483 311 489 q 321 469 318 476 l 421 232 l 421 232 z "},"w":{"ha":1003,"x_min":-8,"x_max":989,"o":"m 403 240 l 499 472 q 497 479 497 475 q 494 488 496 483 q 492 499 493 493 q 489 510 490 504 q 465 571 481 543 q 408 599 449 599 l 408 636 l 740 636 l 740 600 l 718 600 q 681 588 693 599 q 668 554 668 578 q 668 549 668 551 q 668 544 668 547 q 673 519 669 533 q 686 471 676 504 l 757 240 l 844 472 q 863 523 858 507 q 869 550 868 539 q 869 553 869 551 q 869 558 869 556 q 858 589 869 579 q 822 599 847 599 l 797 600 l 797 636 l 989 636 l 989 600 q 938 556 954 583 q 908 496 921 528 q 904 487 906 492 q 900 478 903 482 q 899 474 900 476 q 897 471 899 472 l 696 -18 l 669 -18 l 522 407 l 338 -18 l 313 -18 l 111 472 q 98 500 104 486 q 86 525 92 514 q 45 576 67 560 q -7 599 24 592 l -8 636 l 339 636 l 339 600 q 294 592 310 599 q 278 561 278 586 q 285 524 278 542 q 299 488 292 506 q 303 479 301 483 q 307 471 306 475 l 403 240 l 403 240 z "},"x":{"ha":694,"x_min":35,"x_max":674,"o":"m 401 411 q 422 438 408 421 q 449 475 435 456 q 453 483 451 479 q 458 490 456 486 q 490 540 476 517 q 503 575 503 563 q 494 592 503 586 q 468 597 486 597 l 433 599 l 433 632 l 660 632 l 660 599 q 577 553 618 593 q 501 467 536 514 q 465 415 482 440 q 433 372 447 390 l 565 161 q 600 106 586 126 q 626 71 614 85 q 638 59 632 65 q 651 49 644 53 q 663 40 657 44 q 674 32 668 36 l 674 0 l 340 0 l 340 33 l 361 33 q 390 38 381 32 q 399 58 399 44 q 388 97 399 74 q 360 147 376 121 q 354 158 357 153 q 347 168 351 163 q 323 206 335 188 q 304 236 311 224 q 281 206 296 225 q 250 165 265 186 q 242 154 246 160 q 233 143 238 149 q 201 93 215 117 q 188 54 188 69 q 195 38 188 43 q 221 32 203 32 l 264 33 l 264 0 l 35 0 l 35 33 q 63 38 50 33 q 86 49 75 42 q 131 87 107 61 q 190 160 154 113 l 278 278 l 157 471 q 110 541 128 517 q 76 578 92 565 q 58 590 67 585 q 36 597 49 594 l 36 632 l 378 632 l 378 599 l 353 599 q 326 591 335 597 q 317 572 317 585 q 324 537 317 556 q 344 497 332 518 q 354 481 349 489 q 365 464 360 472 q 385 435 375 449 q 401 410 394 421 l 401 411 z "},"y":{"ha":694,"x_min":15,"x_max":685,"o":"m 426 254 l 515 471 q 536 524 531 506 q 542 557 542 542 q 542 559 542 558 q 542 560 542 560 q 531 588 542 579 q 496 597 519 597 l 468 599 l 468 632 l 685 632 l 685 599 q 639 584 657 594 q 606 546 621 574 q 590 514 597 533 q 572 469 582 494 l 350 -125 q 281 -248 325 -194 q 154 -301 236 -301 q 53 -271 92 -301 q 15 -189 15 -240 q 40 -128 15 -153 q 100 -104 64 -104 q 156 -123 142 -104 q 174 -165 169 -142 q 176 -174 175 -169 q 176 -182 176 -178 q 184 -212 179 -200 q 206 -225 189 -225 q 227 -219 217 -225 q 249 -201 238 -214 q 292 -126 269 -178 q 339 10 314 -75 l 132 471 q 128 477 131 474 q 125 485 126 481 q 90 550 110 521 q 29 596 69 579 q 28 596 29 596 q 28 597 28 596 q 26 597 26 597 q 25 597 25 597 l 25 632 l 376 632 l 376 599 l 353 599 q 317 588 329 597 q 306 560 306 579 q 313 524 306 542 q 326 489 319 506 q 331 480 329 485 q 336 469 333 475 l 426 254 l 426 254 z "},"z":{"ha":617,"x_min":24,"x_max":581,"o":"m 24 29 l 357 593 q 350 592 353 592 q 344 593 347 592 q 340 593 342 593 q 335 593 338 593 q 174 569 233 593 q 89 435 114 546 l 50 436 l 61 632 l 581 632 l 581 593 l 250 47 q 293 44 274 44 q 328 43 313 43 q 470 90 422 43 q 544 222 518 138 l 581 224 l 561 0 l 24 0 l 24 29 l 24 29 z "},"{":{"ha":547,"x_min":108,"x_max":482,"o":"m 253 357 q 342 303 318 338 q 367 196 367 268 l 367 -94 q 394 -183 367 -149 q 478 -231 422 -217 q 451 -232 464 -232 q 424 -232 438 -232 q 270 -199 326 -232 q 214 -54 214 -167 l 214 226 q 190 313 214 282 q 108 356 165 343 q 189 401 164 371 q 214 486 214 432 l 214 786 q 283 918 214 892 q 438 944 353 944 l 482 946 q 467 939 475 942 q 454 933 460 936 q 390 892 411 917 q 368 806 368 868 l 367 507 q 342 407 367 439 q 253 356 318 375 l 253 357 z "},"|":{"ha":306,"x_min":103,"x_max":203,"o":"m 103 919 l 203 919 l 203 -272 l 103 -272 l 103 919 l 103 919 z "},"}":{"ha":547,"x_min":67,"x_max":440,"o":"m 296 357 q 206 407 232 375 q 181 506 181 439 l 181 807 q 157 891 181 865 q 89 935 133 917 q 78 940 83 938 q 67 944 72 942 l 110 946 q 265 921 197 944 q 333 785 333 897 l 333 488 q 359 401 333 432 q 440 356 385 371 q 358 313 383 343 q 333 225 333 282 l 333 -54 q 278 -197 333 -162 q 124 -232 222 -232 q 110 -232 117 -232 q 97 -232 104 -232 q 84 -231 90 -232 q 71 -231 78 -231 q 153 -183 126 -217 q 181 -94 181 -149 l 181 197 q 206 303 181 269 q 296 356 232 338 l 296 357 z "},"~":{"ha":751,"x_min":79,"x_max":672,"o":"m 626 558 l 672 507 q 604 406 646 439 q 507 372 563 372 q 439 388 471 372 q 376 421 407 403 q 313 454 344 439 q 244 469 281 469 q 217 466 229 469 q 194 454 206 463 q 166 420 181 443 q 129 357 151 397 l 79 410 q 153 506 113 474 q 243 539 194 539 q 276 535 260 539 q 308 525 293 531 q 344 509 326 518 q 381 490 363 500 q 446 457 414 472 q 504 442 478 442 q 531 445 519 442 q 554 457 543 449 q 586 493 569 469 q 626 557 603 517 l 626 558 z "},"Ä":{"ha":1003,"x_min":35,"x_max":979,"o":"m 471 964 l 513 964 l 843 208 q 874 140 861 167 q 901 94 888 113 q 936 59 918 71 q 979 40 954 47 l 979 0 l 519 0 l 519 42 l 568 42 q 619 53 604 40 q 633 92 633 65 q 622 158 633 125 q 596 222 610 192 q 584 249 590 236 q 574 274 578 261 l 261 275 q 250 247 256 261 q 238 219 244 233 q 228 197 233 208 q 219 175 224 186 q 207 132 213 153 q 201 92 201 111 q 217 53 201 65 q 267 40 232 40 l 329 42 l 329 0 l 35 0 l 35 42 q 68 53 53 43 q 99 82 83 63 q 129 132 114 101 q 163 207 144 163 l 471 964 l 471 964 m 285 335 l 549 335 l 413 660 l 285 335 l 285 335 m 476 1124 q 449 1058 476 1085 q 385 1031 422 1031 q 320 1058 347 1031 q 293 1122 293 1085 q 320 1187 293 1160 q 385 1214 347 1214 q 450 1188 424 1214 q 476 1122 476 1161 l 476 1124 m 722 1124 q 695 1058 722 1085 q 631 1031 668 1031 q 566 1058 593 1031 q 539 1122 539 1085 q 566 1187 539 1160 q 631 1214 593 1214 q 696 1188 669 1214 q 722 1122 722 1161 l 722 1124 z "},"Å":{"ha":1003,"x_min":35,"x_max":979,"o":"m 471 964 l 513 964 l 843 208 q 874 140 861 167 q 901 94 888 113 q 936 59 918 71 q 979 40 954 47 l 979 0 l 519 0 l 519 42 l 568 42 q 619 53 604 40 q 633 92 633 65 q 622 158 633 125 q 596 222 610 192 q 584 249 590 236 q 574 274 578 261 l 261 275 q 250 247 256 261 q 238 219 244 233 q 228 197 233 208 q 219 175 224 186 q 207 132 213 153 q 201 92 201 111 q 217 53 201 65 q 267 40 232 40 l 329 42 l 329 0 l 35 0 l 35 42 q 68 53 53 43 q 99 82 83 63 q 129 132 114 101 q 163 207 144 163 l 471 964 l 471 964 m 285 335 l 549 335 l 413 660 l 285 335 l 285 335 m 619 1129 q 581 1037 619 1075 q 489 999 543 999 q 397 1037 435 999 q 358 1128 358 1075 q 397 1220 358 1182 q 489 1258 435 1258 q 581 1220 543 1258 q 619 1128 619 1182 l 619 1129 m 543 1129 q 528 1167 543 1151 q 489 1182 513 1182 q 451 1167 467 1182 q 435 1128 435 1151 q 451 1090 435 1106 q 489 1075 467 1075 q 528 1090 513 1075 q 543 1128 543 1106 l 543 1129 z "},"Ç":{"ha":1003,"x_min":47,"x_max":919,"o":"m 569 -17 l 538 -71 q 623 -112 594 -86 q 651 -174 651 -137 q 603 -252 651 -225 q 463 -279 554 -279 l 342 -279 l 342 -243 l 392 -243 q 462 -228 438 -243 q 486 -185 486 -212 q 473 -151 486 -161 q 443 -132 460 -140 q 438 -130 440 -131 q 432 -128 435 -129 q 428 -126 431 -126 q 425 -124 426 -125 l 496 -17 q 169 133 290 0 q 47 471 47 265 q 184 823 47 683 q 526 963 321 963 q 616 953 575 963 q 690 931 657 943 q 749 908 724 918 q 793 899 775 899 q 828 909 815 899 q 850 949 840 919 q 853 954 851 951 q 856 963 854 957 l 894 964 l 894 632 l 853 632 q 845 650 849 640 q 839 668 842 660 q 790 763 815 726 q 724 833 764 800 q 713 842 718 838 q 701 850 707 846 q 660 877 681 865 q 619 896 639 889 q 579 906 600 903 q 538 910 558 910 q 356 799 418 910 q 293 478 293 689 q 362 163 293 268 q 568 57 431 57 q 740 106 667 57 q 876 224 814 156 l 919 188 q 767 47 849 97 q 569 -17 685 -3 l 569 -17 z "},"É":{"ha":926,"x_min":35,"x_max":903,"o":"m 835 946 l 835 661 l 792 661 q 791 669 792 664 q 789 678 790 674 q 768 768 781 739 q 729 821 756 797 q 718 830 724 825 q 707 839 713 835 q 705 841 706 840 q 703 842 704 842 q 624 878 667 868 q 506 888 581 888 q 409 878 429 888 q 389 831 389 868 l 389 513 q 540 565 501 514 q 592 717 579 615 l 635 718 l 635 238 l 592 238 q 544 396 582 340 q 389 451 506 451 l 389 172 q 409 71 389 93 q 501 49 429 49 q 723 110 639 49 q 860 294 807 171 l 903 296 l 835 0 l 35 0 l 35 43 l 67 43 q 144 73 126 42 q 163 207 163 104 l 163 738 q 146 869 163 838 q 35 901 129 901 l 35 946 l 835 946 l 835 946 m 639 1233 l 443 1008 l 383 1008 l 456 1233 l 639 1233 l 639 1233 z "},"Ñ":{"ha":1003,"x_min":25,"x_max":979,"o":"m 322 946 l 796 354 l 796 739 q 778 873 796 843 q 660 903 761 903 l 660 946 l 979 946 l 979 904 l 947 904 q 869 872 888 903 q 851 738 851 840 l 851 -18 l 813 -18 l 208 735 l 208 208 q 226 74 208 106 q 303 42 244 42 l 336 43 l 336 0 l 25 0 l 25 43 l 57 43 q 135 74 117 42 q 153 207 153 106 l 153 739 q 136 870 153 838 q 25 903 119 903 l 25 946 l 322 946 l 322 946 m 731 1181 q 710 1151 722 1168 q 682 1115 697 1135 q 654 1084 669 1100 q 624 1058 639 1068 q 602 1045 613 1050 q 581 1040 592 1040 q 530 1049 556 1040 q 481 1067 504 1057 q 463 1073 471 1069 q 446 1079 454 1076 q 440 1081 443 1081 q 433 1083 436 1082 q 403 1091 417 1088 q 383 1094 389 1094 q 344 1082 363 1094 q 310 1040 326 1069 l 272 1064 l 310 1117 q 331 1142 319 1129 q 356 1164 343 1154 q 383 1182 369 1175 q 406 1189 396 1189 q 454 1182 431 1189 q 503 1167 478 1175 q 550 1150 526 1157 q 599 1143 574 1143 q 651 1160 626 1143 q 693 1203 676 1176 l 731 1181 l 731 1181 z "},"Ö":{"ha":1081,"x_min":47,"x_max":1033,"o":"m 540 964 q 893 824 753 963 q 1033 474 1033 685 q 892 122 1033 263 q 540 -18 751 -18 q 188 122 329 -18 q 47 474 47 263 q 188 824 47 685 q 540 963 329 963 l 540 964 m 540 911 q 360 792 426 910 q 293 469 293 674 q 357 147 293 260 q 540 33 421 33 q 724 147 660 33 q 788 469 788 260 q 722 792 788 674 q 540 910 656 910 l 540 911 m 508 1124 q 481 1058 508 1085 q 417 1031 454 1031 q 352 1058 379 1031 q 325 1122 325 1085 q 352 1187 325 1160 q 417 1214 379 1214 q 482 1188 456 1214 q 508 1122 508 1161 l 508 1124 m 754 1124 q 727 1058 754 1085 q 663 1031 700 1031 q 598 1058 625 1031 q 571 1122 571 1085 q 598 1187 571 1160 q 663 1214 625 1214 q 728 1188 701 1214 q 754 1122 754 1161 l 754 1124 z "},"Ü":{"ha":1003,"x_min":24,"x_max":979,"o":"m 24 946 l 500 946 l 500 903 l 458 903 q 382 871 400 901 q 364 738 364 840 l 364 263 q 419 113 364 168 q 565 57 474 57 q 761 147 713 57 q 810 364 810 238 l 810 739 q 792 872 810 842 q 674 901 775 901 l 674 946 l 979 946 l 979 903 l 961 903 q 883 871 901 901 q 865 738 865 840 l 865 363 q 851 209 865 274 q 808 104 836 144 q 686 15 768 49 q 510 -18 604 -18 q 240 66 342 -18 q 138 290 138 150 l 138 739 q 119 871 138 840 q 42 901 101 901 l 24 903 l 24 946 l 24 946 m 497 1124 q 470 1058 497 1085 q 406 1031 443 1031 q 341 1058 368 1031 q 314 1122 314 1085 q 341 1187 314 1160 q 406 1214 368 1214 q 471 1188 444 1214 q 497 1122 497 1161 l 497 1124 m 743 1124 q 716 1058 743 1085 q 651 1031 689 1031 q 587 1058 614 1031 q 560 1122 560 1085 q 587 1187 560 1160 q 651 1214 614 1214 q 717 1188 690 1214 q 743 1122 743 1161 l 743 1124 z "},"á":{"ha":694,"x_min":35,"x_max":682,"o":"m 407 388 q 409 429 408 414 q 410 458 410 444 q 384 572 410 540 q 294 604 358 604 q 229 590 257 604 q 201 557 201 576 q 201 554 201 556 q 201 551 201 553 q 210 534 204 543 q 224 517 217 525 q 238 492 231 504 q 244 463 244 479 q 219 406 244 428 q 154 383 194 383 q 85 412 113 383 q 58 483 58 440 q 138 601 58 553 q 331 649 217 649 q 517 604 436 649 q 597 440 597 560 l 597 196 l 599 122 q 607 87 600 99 q 626 75 614 75 q 629 75 628 75 q 632 75 631 75 q 644 80 638 76 q 660 92 650 83 l 682 64 q 608 3 650 24 q 522 -18 567 -18 q 450 3 476 -18 q 407 75 424 24 q 309 6 364 29 q 193 -18 254 -18 q 81 24 126 -18 q 35 126 35 65 q 103 257 35 207 q 253 338 171 307 q 335 365 294 353 q 407 386 376 376 l 407 388 m 407 335 q 281 272 325 315 q 236 167 236 228 q 255 104 236 128 q 306 81 274 81 q 335 85 321 81 q 364 99 350 89 q 385 115 375 106 q 407 138 396 125 l 407 335 l 407 335 m 532 969 l 336 744 l 276 744 l 349 969 l 532 969 l 532 969 z "},"à":{"ha":694,"x_min":35,"x_max":682,"o":"m 407 388 q 409 429 408 414 q 410 458 410 444 q 384 572 410 540 q 294 604 358 604 q 229 590 257 604 q 201 557 201 576 q 201 554 201 556 q 201 551 201 553 q 210 534 204 543 q 224 517 217 525 q 238 492 231 504 q 244 463 244 479 q 219 406 244 428 q 154 383 194 383 q 85 412 113 383 q 58 483 58 440 q 138 601 58 553 q 331 649 217 649 q 517 604 436 649 q 597 440 597 560 l 597 196 l 599 122 q 607 87 600 99 q 626 75 614 75 q 629 75 628 75 q 632 75 631 75 q 644 80 638 76 q 660 92 650 83 l 682 64 q 608 3 650 24 q 522 -18 567 -18 q 450 3 476 -18 q 407 75 424 24 q 309 6 364 29 q 193 -18 254 -18 q 81 24 126 -18 q 35 126 35 65 q 103 257 35 207 q 253 338 171 307 q 335 365 294 353 q 407 386 376 376 l 407 388 m 407 335 q 281 272 325 315 q 236 167 236 228 q 255 104 236 128 q 306 81 274 81 q 335 85 321 81 q 364 99 350 89 q 385 115 375 106 q 407 138 396 125 l 407 335 l 407 335 m 179 969 l 361 969 l 435 744 l 375 744 l 179 969 l 179 969 z "},"â":{"ha":694,"x_min":35,"x_max":682,"o":"m 407 388 q 409 429 408 414 q 410 458 410 444 q 384 572 410 540 q 294 604 358 604 q 229 590 257 604 q 201 557 201 576 q 201 554 201 556 q 201 551 201 553 q 210 534 204 543 q 224 517 217 525 q 238 492 231 504 q 244 463 244 479 q 219 406 244 428 q 154 383 194 383 q 85 412 113 383 q 58 483 58 440 q 138 601 58 553 q 331 649 217 649 q 517 604 436 649 q 597 440 597 560 l 597 196 l 599 122 q 607 87 600 99 q 626 75 614 75 q 629 75 628 75 q 632 75 631 75 q 644 80 638 76 q 660 92 650 83 l 682 64 q 608 3 650 24 q 522 -18 567 -18 q 450 3 476 -18 q 407 75 424 24 q 309 6 364 29 q 193 -18 254 -18 q 81 24 126 -18 q 35 126 35 65 q 103 257 35 207 q 253 338 171 307 q 335 365 294 353 q 407 386 376 376 l 407 388 m 407 335 q 281 272 325 315 q 236 167 236 228 q 255 104 236 128 q 306 81 274 81 q 335 85 321 81 q 364 99 350 89 q 385 115 375 106 q 407 138 396 125 l 407 335 l 407 335 m 419 963 l 550 728 l 503 728 l 356 847 l 215 728 l 167 728 l 294 963 l 419 963 l 419 963 z "},"ä":{"ha":694,"x_min":35,"x_max":682,"o":"m 407 388 q 409 429 408 414 q 410 458 410 444 q 384 572 410 540 q 294 604 358 604 q 229 590 257 604 q 201 557 201 576 q 201 554 201 556 q 201 551 201 553 q 210 534 204 543 q 224 517 217 525 q 238 492 231 504 q 244 463 244 479 q 219 406 244 428 q 154 383 194 383 q 85 412 113 383 q 58 483 58 440 q 138 601 58 553 q 331 649 217 649 q 517 604 436 649 q 597 440 597 560 l 597 196 l 599 122 q 607 87 600 99 q 626 75 614 75 q 629 75 628 75 q 632 75 631 75 q 644 80 638 76 q 660 92 650 83 l 682 64 q 608 3 650 24 q 522 -18 567 -18 q 450 3 476 -18 q 407 75 424 24 q 309 6 364 29 q 193 -18 254 -18 q 81 24 126 -18 q 35 126 35 65 q 103 257 35 207 q 253 338 171 307 q 335 365 294 353 q 407 386 376 376 l 407 388 m 407 335 q 281 272 325 315 q 236 167 236 228 q 255 104 236 128 q 306 81 274 81 q 335 85 321 81 q 364 99 350 89 q 385 115 375 106 q 407 138 396 125 l 407 335 l 407 335 m 326 856 q 299 790 326 817 q 235 763 272 763 q 170 790 197 763 q 143 854 143 817 q 170 919 143 892 q 235 946 197 946 q 300 919 274 946 q 326 854 326 893 l 326 856 m 572 856 q 545 790 572 817 q 481 763 518 763 q 416 790 443 763 q 389 854 389 817 q 416 919 389 892 q 481 946 443 946 q 546 919 519 946 q 572 854 572 893 l 572 856 z "},"ã":{"ha":694,"x_min":35,"x_max":682,"o":"m 407 388 q 409 429 408 414 q 410 458 410 444 q 384 572 410 540 q 294 604 358 604 q 229 590 257 604 q 201 557 201 576 q 201 554 201 556 q 201 551 201 553 q 210 534 204 543 q 224 517 217 525 q 238 492 231 504 q 244 463 244 479 q 219 406 244 428 q 154 383 194 383 q 85 412 113 383 q 58 483 58 440 q 138 601 58 553 q 331 649 217 649 q 517 604 436 649 q 597 440 597 560 l 597 196 l 599 122 q 607 87 600 99 q 626 75 614 75 q 629 75 628 75 q 632 75 631 75 q 644 80 638 76 q 660 92 650 83 l 682 64 q 608 3 650 24 q 522 -18 567 -18 q 450 3 476 -18 q 407 75 424 24 q 309 6 364 29 q 193 -18 254 -18 q 81 24 126 -18 q 35 126 35 65 q 103 257 35 207 q 253 338 171 307 q 335 365 294 353 q 407 386 376 376 l 407 388 m 407 335 q 281 272 325 315 q 236 167 236 228 q 255 104 236 128 q 306 81 274 81 q 335 85 321 81 q 364 99 350 89 q 385 115 375 106 q 407 138 396 125 l 407 335 l 407 335 m 588 915 q 567 886 579 903 q 539 850 554 869 q 511 819 526 835 q 481 793 496 803 q 459 780 469 785 q 438 775 449 775 q 387 783 413 775 q 338 801 361 792 q 319 808 328 804 q 303 814 311 811 q 297 816 300 815 q 290 818 293 817 q 260 826 274 822 q 240 829 246 829 q 201 817 219 829 q 167 775 183 804 l 129 799 l 167 851 q 188 876 176 864 q 213 899 200 889 q 240 917 226 910 q 263 924 253 924 q 311 917 288 924 q 360 901 335 910 q 407 885 383 892 q 456 878 431 878 q 508 894 483 878 q 550 938 533 911 l 588 915 l 588 915 z "},"å":{"ha":694,"x_min":35,"x_max":682,"o":"m 407 388 q 409 429 408 414 q 410 458 410 444 q 384 572 410 540 q 294 604 358 604 q 229 590 257 604 q 201 557 201 576 q 201 554 201 556 q 201 551 201 553 q 210 534 204 543 q 224 517 217 525 q 238 492 231 504 q 244 463 244 479 q 219 406 244 428 q 154 383 194 383 q 85 412 113 383 q 58 483 58 440 q 138 601 58 553 q 331 649 217 649 q 517 604 436 649 q 597 440 597 560 l 597 196 l 599 122 q 607 87 600 99 q 626 75 614 75 q 629 75 628 75 q 632 75 631 75 q 644 80 638 76 q 660 92 650 83 l 682 64 q 608 3 650 24 q 522 -18 567 -18 q 450 3 476 -18 q 407 75 424 24 q 309 6 364 29 q 193 -18 254 -18 q 81 24 126 -18 q 35 126 35 65 q 103 257 35 207 q 253 338 171 307 q 335 365 294 353 q 407 386 376 376 l 407 388 m 407 335 q 281 272 325 315 q 236 167 236 228 q 255 104 236 128 q 306 81 274 81 q 335 85 321 81 q 364 99 350 89 q 385 115 375 106 q 407 138 396 125 l 407 335 l 407 335 m 489 856 q 451 763 489 801 q 358 725 413 725 q 266 763 304 725 q 228 854 228 801 q 266 947 228 908 q 358 985 304 985 q 451 947 413 985 q 489 854 489 908 l 489 856 m 413 856 q 397 893 413 878 q 358 908 382 908 q 320 893 336 908 q 304 854 304 878 q 320 817 304 832 q 358 801 336 801 q 397 817 382 801 q 413 854 413 832 l 413 856 z "},"ç":{"ha":617,"x_min":36,"x_max":593,"o":"m 367 -18 l 354 -42 q 439 -78 411 -53 q 467 -140 467 -103 q 414 -220 467 -192 q 264 -249 361 -249 q 239 -248 251 -249 q 214 -247 226 -247 q 204 -247 208 -247 q 196 -246 200 -246 q 179 -245 188 -246 q 163 -244 171 -244 l 163 -210 q 175 -211 169 -211 q 185 -211 181 -211 q 190 -211 188 -211 q 193 -211 192 -211 q 274 -194 246 -211 q 301 -144 301 -176 q 287 -109 301 -121 q 240 -96 272 -97 l 290 -18 q 103 88 171 1 q 36 308 36 175 q 126 551 36 453 q 350 649 217 649 q 508 606 449 649 q 568 494 568 564 q 543 438 568 461 q 482 414 518 414 q 419 446 435 414 q 401 515 403 478 q 400 530 400 522 q 400 544 400 538 q 386 589 400 574 q 343 604 372 604 q 265 542 293 604 q 238 371 238 481 q 289 156 238 236 q 426 76 340 76 q 481 86 456 76 q 529 117 506 96 q 547 134 538 125 q 564 154 556 143 l 593 131 q 496 31 556 74 q 367 -18 436 -12 l 367 -18 z "},"é":{"ha":617,"x_min":35,"x_max":592,"o":"m 235 335 q 238 301 236 318 q 242 268 239 285 q 286 142 251 199 q 401 85 321 85 q 489 107 450 85 q 560 176 528 129 l 592 156 q 481 32 546 82 q 326 -18 417 -18 q 115 75 196 -18 q 35 319 35 168 q 115 556 35 464 q 319 649 196 649 q 433 624 382 649 q 522 550 485 599 q 526 545 524 547 q 529 542 528 543 q 569 455 558 501 q 581 333 581 408 l 235 335 l 235 335 m 226 394 l 413 394 q 413 407 413 400 q 414 419 413 414 q 414 429 414 425 q 414 438 414 433 q 392 569 414 526 q 325 611 371 611 q 251 563 274 611 q 226 393 229 514 l 226 394 m 533 969 l 338 744 l 278 744 l 350 969 l 533 969 l 533 969 z "},"è":{"ha":617,"x_min":35,"x_max":592,"o":"m 235 335 q 238 301 236 318 q 242 268 239 285 q 286 142 251 199 q 401 85 321 85 q 489 107 450 85 q 560 176 528 129 l 592 156 q 481 32 546 82 q 326 -18 417 -18 q 115 75 196 -18 q 35 319 35 168 q 115 556 35 464 q 319 649 196 649 q 433 624 382 649 q 522 550 485 599 q 526 545 524 547 q 529 542 528 543 q 569 455 558 501 q 581 333 581 408 l 235 335 l 235 335 m 226 394 l 413 394 q 413 407 413 400 q 414 419 413 414 q 414 429 414 425 q 414 438 414 433 q 392 569 414 526 q 325 611 371 611 q 251 563 274 611 q 226 393 229 514 l 226 394 m 157 969 l 339 969 l 413 744 l 353 744 l 157 969 l 157 969 z "},"ê":{"ha":617,"x_min":35,"x_max":592,"o":"m 235 335 q 238 301 236 318 q 242 268 239 285 q 286 142 251 199 q 401 85 321 85 q 489 107 450 85 q 560 176 528 129 l 592 156 q 481 32 546 82 q 326 -18 417 -18 q 115 75 196 -18 q 35 319 35 168 q 115 556 35 464 q 319 649 196 649 q 433 624 382 649 q 522 550 485 599 q 526 545 524 547 q 529 542 528 543 q 569 455 558 501 q 581 333 581 408 l 235 335 l 235 335 m 226 394 l 413 394 q 413 407 413 400 q 414 419 413 414 q 414 429 414 425 q 414 438 414 433 q 392 569 414 526 q 325 611 371 611 q 251 563 274 611 q 226 393 229 514 l 226 394 m 374 963 l 504 728 l 457 728 l 310 847 l 169 728 l 121 728 l 249 963 l 374 963 l 374 963 z "},"ë":{"ha":617,"x_min":35,"x_max":592,"o":"m 235 335 q 238 301 236 318 q 242 268 239 285 q 286 142 251 199 q 401 85 321 85 q 489 107 450 85 q 560 176 528 129 l 592 156 q 481 32 546 82 q 326 -18 417 -18 q 115 75 196 -18 q 35 319 35 168 q 115 556 35 464 q 319 649 196 649 q 433 624 382 649 q 522 550 485 599 q 526 545 524 547 q 529 542 528 543 q 569 455 558 501 q 581 333 581 408 l 235 335 l 235 335 m 226 394 l 413 394 q 413 407 413 400 q 414 419 413 414 q 414 429 414 425 q 414 438 414 433 q 392 569 414 526 q 325 611 371 611 q 251 563 274 611 q 226 393 229 514 l 226 394 m 294 856 q 267 790 294 817 q 203 763 240 763 q 138 790 165 763 q 111 854 111 817 q 138 919 111 892 q 203 946 165 946 q 268 919 242 946 q 294 854 294 893 l 294 856 m 540 856 q 513 790 540 817 q 449 763 486 763 q 384 790 411 763 q 357 854 357 817 q 384 919 357 892 q 449 946 411 946 q 514 919 488 946 q 540 854 540 893 l 540 856 z "},"í":{"ha":386,"x_min":32,"x_max":367,"o":"m 294 632 l 294 161 q 308 58 294 85 q 360 32 321 32 l 367 33 l 367 0 l 32 0 l 32 33 l 39 33 q 91 58 78 32 q 104 160 104 85 l 104 471 q 91 571 104 544 q 39 597 78 597 l 32 599 l 32 632 l 294 632 l 294 632 m 326 969 l 131 744 l 71 744 l 143 969 l 326 969 l 326 969 z "},"ì":{"ha":386,"x_min":32,"x_max":367,"o":"m 294 632 l 294 161 q 308 58 294 85 q 360 32 321 32 l 367 33 l 367 0 l 32 0 l 32 33 l 39 33 q 91 58 78 32 q 104 160 104 85 l 104 471 q 91 571 104 544 q 39 597 78 597 l 32 599 l 32 632 l 294 632 l 294 632 m 53 969 l 235 969 l 308 744 l 249 744 l 53 969 l 53 969 z "},"î":{"ha":386,"x_min":-6,"x_max":378,"o":"m 294 632 l 294 161 q 308 58 294 85 q 360 32 321 32 l 367 33 l 367 0 l 32 0 l 32 33 l 39 33 q 91 58 78 32 q 104 160 104 85 l 104 471 q 91 571 104 544 q 39 597 78 597 l 32 599 l 32 632 l 294 632 l 294 632 m 247 963 l 378 728 l 331 728 l 183 847 l 43 728 l -6 728 l 122 963 l 247 963 l 247 963 z "},"ï":{"ha":386,"x_min":-14,"x_max":414,"o":"m 294 632 l 294 161 q 308 58 294 85 q 360 32 321 32 l 367 33 l 367 0 l 32 0 l 32 33 l 39 33 q 91 58 78 32 q 104 160 104 85 l 104 471 q 91 571 104 544 q 39 597 78 597 l 32 599 l 32 632 l 294 632 l 294 632 m 168 856 q 141 790 168 817 q 76 763 114 763 q 13 790 39 763 q -14 854 -14 817 q 13 919 -14 892 q 76 946 39 946 q 142 919 115 946 q 168 854 168 893 l 168 856 m 414 856 q 387 790 414 817 q 322 763 360 763 q 258 790 285 763 q 231 854 231 817 q 258 919 231 892 q 322 946 285 946 q 388 919 361 946 q 414 854 414 893 l 414 856 z "},"ñ":{"ha":772,"x_min":35,"x_max":749,"o":"m 297 632 l 297 526 q 385 619 339 590 q 494 649 431 649 q 635 587 594 649 q 676 435 676 525 l 676 161 q 690 58 676 85 q 740 32 703 32 l 749 33 l 749 0 l 414 0 l 414 33 l 422 33 q 473 59 460 32 q 486 160 486 86 l 486 435 q 471 528 486 503 q 415 554 456 554 q 388 551 400 554 q 363 540 375 547 q 332 516 347 532 q 297 476 317 500 l 297 161 q 310 58 297 85 q 363 32 324 32 l 369 33 l 369 0 l 35 0 l 35 33 l 42 33 q 94 58 81 32 q 107 160 107 85 l 107 471 q 94 571 107 544 q 42 597 81 597 l 35 599 l 35 632 l 297 632 l 297 632 m 621 915 q 600 886 613 903 q 572 850 588 869 q 544 819 560 835 q 514 793 529 803 q 492 780 503 785 q 471 775 482 775 q 420 783 446 775 q 371 801 394 792 q 353 808 361 804 q 336 814 344 811 q 330 816 333 815 q 324 818 326 817 q 293 826 307 822 q 274 829 279 829 q 235 817 253 829 q 200 775 217 804 l 163 799 l 200 851 q 222 876 210 864 q 246 899 233 889 q 273 917 260 910 q 296 924 286 924 q 344 917 321 924 q 393 901 368 910 q 440 885 417 892 q 489 878 464 878 q 542 894 517 878 q 583 938 567 911 l 621 915 l 621 915 z "},"ó":{"ha":694,"x_min":35,"x_max":660,"o":"m 35 322 q 124 556 35 463 q 349 649 214 649 q 572 555 485 649 q 660 317 660 461 q 571 76 660 171 q 346 -18 482 -18 q 122 76 208 -18 q 35 321 35 169 l 35 322 m 236 342 q 247 153 239 214 q 278 61 256 93 q 308 34 289 43 q 347 25 326 25 q 390 35 369 25 q 422 64 410 46 q 449 151 440 88 q 458 311 458 215 q 433 536 458 468 q 346 604 407 604 q 261 549 286 604 q 236 363 236 494 l 236 342 l 236 342 m 531 969 l 335 744 l 275 744 l 347 969 l 531 969 l 531 969 z "},"ò":{"ha":694,"x_min":35,"x_max":660,"o":"m 35 322 q 124 556 35 463 q 349 649 214 649 q 572 555 485 649 q 660 317 660 461 q 571 76 660 171 q 346 -18 482 -18 q 122 76 208 -18 q 35 321 35 169 l 35 322 m 236 342 q 247 153 239 214 q 278 61 256 93 q 308 34 289 43 q 347 25 326 25 q 390 35 369 25 q 422 64 410 46 q 449 151 440 88 q 458 311 458 215 q 433 536 458 468 q 346 604 407 604 q 261 549 286 604 q 236 363 236 494 l 236 342 l 236 342 m 196 969 l 378 969 l 451 744 l 392 744 l 196 969 l 196 969 z "},"ô":{"ha":694,"x_min":35,"x_max":660,"o":"m 35 322 q 124 556 35 463 q 349 649 214 649 q 572 555 485 649 q 660 317 660 461 q 571 76 660 171 q 346 -18 482 -18 q 122 76 208 -18 q 35 321 35 169 l 35 322 m 236 342 q 247 153 239 214 q 278 61 256 93 q 308 34 289 43 q 347 25 326 25 q 390 35 369 25 q 422 64 410 46 q 449 151 440 88 q 458 311 458 215 q 433 536 458 468 q 346 604 407 604 q 261 549 286 604 q 236 363 236 494 l 236 342 l 236 342 m 408 963 l 539 728 l 492 728 l 344 847 l 204 728 l 156 728 l 283 963 l 408 963 l 408 963 z "},"ö":{"ha":694,"x_min":35,"x_max":660,"o":"m 35 322 q 124 556 35 463 q 349 649 214 649 q 572 555 485 649 q 660 317 660 461 q 571 76 660 171 q 346 -18 482 -18 q 122 76 208 -18 q 35 321 35 169 l 35 322 m 236 342 q 247 153 239 214 q 278 61 256 93 q 308 34 289 43 q 347 25 326 25 q 390 35 369 25 q 422 64 410 46 q 449 151 440 88 q 458 311 458 215 q 433 536 458 468 q 346 604 407 604 q 261 549 286 604 q 236 363 236 494 l 236 342 l 236 342 m 315 856 q 288 790 315 817 q 224 763 261 763 q 159 790 186 763 q 132 854 132 817 q 159 919 132 892 q 224 946 186 946 q 289 919 263 946 q 315 854 315 893 l 315 856 m 561 856 q 534 790 561 817 q 469 763 507 763 q 405 790 432 763 q 378 854 378 817 q 405 919 378 892 q 469 946 432 946 q 535 919 508 946 q 561 854 561 893 l 561 856 z "},"õ":{"ha":694,"x_min":35,"x_max":660,"o":"m 35 322 q 124 556 35 463 q 349 649 214 649 q 572 555 485 649 q 660 317 660 461 q 571 76 660 171 q 346 -18 482 -18 q 122 76 208 -18 q 35 321 35 169 l 35 322 m 236 342 q 247 153 239 214 q 278 61 256 93 q 308 34 289 43 q 347 25 326 25 q 390 35 369 25 q 422 64 410 46 q 449 151 440 88 q 458 311 458 215 q 433 536 458 468 q 346 604 407 604 q 261 549 286 604 q 236 363 236 494 l 236 342 l 236 342 m 576 915 q 556 886 568 903 q 528 850 543 869 q 500 819 515 835 q 469 793 485 803 q 448 780 458 785 q 426 775 438 775 q 376 783 401 775 q 326 801 350 792 q 308 808 317 804 q 292 814 300 811 q 285 816 289 815 q 279 818 282 817 q 249 826 263 822 q 229 829 235 829 q 190 817 208 829 q 156 775 172 804 l 118 799 l 156 851 q 177 876 165 864 q 201 899 189 889 q 228 917 215 910 q 251 924 242 924 q 300 917 276 924 q 349 901 324 910 q 396 885 372 892 q 444 878 419 878 q 497 894 472 878 q 539 938 522 911 l 576 915 l 576 915 z "},"ú":{"ha":772,"x_min":24,"x_max":738,"o":"m 286 632 l 286 181 q 304 99 286 124 q 363 75 322 75 q 412 85 389 75 q 457 115 435 94 q 466 124 461 119 q 475 133 471 128 l 475 471 q 461 573 475 547 q 406 599 447 599 l 393 600 l 393 632 l 665 632 l 665 203 l 665 149 q 678 79 665 96 q 738 58 692 63 l 738 26 q 606 8 671 18 q 475 -18 540 -1 l 475 83 q 406 19 449 44 q 315 -14 363 -6 q 296 -17 306 -17 q 276 -18 286 -18 q 142 33 189 -18 q 96 181 96 83 l 96 471 q 83 572 96 544 q 31 599 69 599 l 24 600 l 24 632 l 286 632 l 286 632 m 554 969 l 358 744 l 299 744 l 371 969 l 554 969 l 554 969 z "},"ù":{"ha":772,"x_min":24,"x_max":738,"o":"m 286 632 l 286 181 q 304 99 286 124 q 363 75 322 75 q 412 85 389 75 q 457 115 435 94 q 466 124 461 119 q 475 133 471 128 l 475 471 q 461 573 475 547 q 406 599 447 599 l 393 600 l 393 632 l 665 632 l 665 203 l 665 149 q 678 79 665 96 q 738 58 692 63 l 738 26 q 606 8 671 18 q 475 -18 540 -1 l 475 83 q 406 19 449 44 q 315 -14 363 -6 q 296 -17 306 -17 q 276 -18 286 -18 q 142 33 189 -18 q 96 181 96 83 l 96 471 q 83 572 96 544 q 31 599 69 599 l 24 600 l 24 632 l 286 632 l 286 632 m 253 969 l 435 969 l 508 744 l 449 744 l 253 969 l 253 969 z "},"û":{"ha":772,"x_min":24,"x_max":738,"o":"m 286 632 l 286 181 q 304 99 286 124 q 363 75 322 75 q 412 85 389 75 q 457 115 435 94 q 466 124 461 119 q 475 133 471 128 l 475 471 q 461 573 475 547 q 406 599 447 599 l 393 600 l 393 632 l 665 632 l 665 203 l 665 149 q 678 79 665 96 q 738 58 692 63 l 738 26 q 606 8 671 18 q 475 -18 540 -1 l 475 83 q 406 19 449 44 q 315 -14 363 -6 q 296 -17 306 -17 q 276 -18 286 -18 q 142 33 189 -18 q 96 181 96 83 l 96 471 q 83 572 96 544 q 31 599 69 599 l 24 600 l 24 632 l 286 632 l 286 632 m 442 964 l 572 729 l 525 729 l 378 849 l 238 729 l 189 729 l 317 964 l 442 964 l 442 964 z "},"ü":{"ha":772,"x_min":24,"x_max":738,"o":"m 286 632 l 286 181 q 304 99 286 124 q 363 75 322 75 q 412 85 389 75 q 457 115 435 94 q 466 124 461 119 q 475 133 471 128 l 475 471 q 461 573 475 547 q 406 599 447 599 l 393 600 l 393 632 l 665 632 l 665 203 l 665 149 q 678 79 665 96 q 738 58 692 63 l 738 26 q 606 8 671 18 q 475 -18 540 -1 l 475 83 q 406 19 449 44 q 315 -14 363 -6 q 296 -17 306 -17 q 276 -18 286 -18 q 142 33 189 -18 q 96 181 96 83 l 96 471 q 83 572 96 544 q 31 599 69 599 l 24 600 l 24 632 l 286 632 l 286 632 m 347 857 q 320 791 347 818 q 256 764 293 764 q 191 791 218 764 q 164 856 164 818 q 191 920 164 893 q 256 947 218 947 q 321 921 294 947 q 347 856 347 894 l 347 857 m 593 857 q 566 791 593 818 q 501 764 539 764 q 437 791 464 764 q 410 856 410 818 q 437 920 410 893 q 501 947 464 947 q 567 921 540 947 q 593 856 593 894 l 593 857 z "},"†":{"ha":694,"x_min":68,"x_max":628,"o":"m 328 663 q 329 670 329 667 q 329 676 329 674 q 319 737 329 708 q 297 792 308 765 q 274 841 285 817 q 264 889 264 865 q 288 941 264 919 q 346 963 313 963 q 406 941 382 963 q 429 886 429 919 q 425 853 429 869 q 415 821 421 838 q 407 801 411 811 q 399 783 403 792 q 378 730 388 757 q 368 672 368 703 q 368 668 368 671 q 369 663 368 665 q 376 663 372 663 q 382 664 379 664 q 422 676 401 668 q 461 692 442 683 q 509 712 486 703 q 551 721 532 721 q 606 699 585 721 q 628 642 628 676 q 608 587 628 608 q 557 565 588 565 q 510 575 535 565 q 461 596 486 585 q 415 614 439 606 q 367 625 392 622 q 388 502 367 561 q 443 390 408 443 q 392 208 407 303 q 372 18 378 114 q 369 -48 371 -14 q 367 -115 368 -82 q 366 -137 367 -126 q 365 -157 365 -147 l 331 -157 l 328 -89 l 332 -47 l 319 75 l 304 214 q 301 241 303 228 q 296 268 299 254 q 280 322 290 293 q 251 390 269 350 q 309 500 289 443 q 329 621 329 557 q 326 621 328 621 q 324 622 325 621 q 319 622 321 622 q 317 622 318 622 q 272 613 293 622 q 229 594 250 604 q 185 574 207 583 q 140 565 164 565 q 89 588 110 565 q 68 644 68 611 q 90 699 68 678 q 144 719 111 719 q 181 714 164 719 q 217 700 199 708 q 228 696 222 699 q 239 690 233 693 q 283 672 261 681 q 328 661 304 663 l 328 663 z "},"¢":{"ha":694,"x_min":85,"x_max":635,"o":"m 339 829 l 339 921 l 419 921 l 419 835 q 569 784 519 822 q 619 683 619 746 q 594 619 619 644 q 531 594 569 594 q 465 622 485 594 q 446 715 446 649 q 446 719 446 718 q 447 724 446 721 q 447 727 447 725 q 447 731 447 729 q 433 774 447 758 q 390 789 418 789 q 312 725 343 789 q 281 561 281 661 q 331 353 281 435 q 461 271 382 271 q 493 274 478 271 q 524 282 508 276 q 561 304 542 290 q 604 340 581 318 l 635 318 q 622 300 628 308 q 610 285 615 292 q 522 210 567 236 q 419 178 478 185 l 419 39 l 339 39 l 339 176 q 149 284 214 199 q 85 496 85 369 q 151 713 85 626 q 339 828 217 799 l 339 829 z "},"£":{"ha":694,"x_min":4,"x_max":692,"o":"m 407 424 q 381 271 401 344 q 324 140 360 197 q 358 128 343 133 q 388 121 374 124 q 415 117 400 118 q 447 115 429 115 q 594 147 538 115 q 668 233 651 178 l 690 235 q 692 219 692 225 q 692 207 692 213 q 633 48 692 114 q 493 -18 575 -18 q 419 -10 454 -18 q 349 14 383 -3 q 308 38 328 24 q 267 68 288 51 q 206 2 239 22 q 129 -18 172 -18 q 40 14 75 -18 q 4 93 4 46 q 37 172 4 138 q 113 207 69 207 q 160 198 136 207 q 204 178 183 189 q 210 174 207 175 q 215 171 213 172 q 217 185 217 179 q 218 197 218 192 q 219 208 219 201 q 219 222 219 214 q 218 265 219 239 q 215 319 217 292 q 209 378 213 350 q 201 422 206 406 l 76 424 l 76 500 l 199 500 q 197 512 197 506 q 196 525 196 518 q 196 538 196 531 q 196 550 196 544 q 286 844 196 726 q 511 961 376 961 q 640 917 590 961 q 690 801 690 872 q 667 731 690 758 q 607 704 644 704 q 548 727 572 704 q 524 782 524 750 q 524 795 524 789 q 526 808 525 801 q 527 822 526 815 q 528 835 528 828 q 512 889 528 869 q 468 908 496 908 q 408 866 429 908 q 388 739 388 824 q 390 678 388 708 q 396 619 393 649 q 401 559 399 589 q 404 499 404 529 l 543 500 l 543 424 l 407 424 l 407 424 m 201 100 q 161 115 181 110 q 126 121 142 121 q 94 108 108 121 q 81 81 81 96 q 97 49 81 63 q 133 36 113 36 q 174 52 157 36 q 201 99 192 68 l 201 100 z "},"§":{"ha":694,"x_min":89,"x_max":606,"o":"m 264 586 q 193 660 218 629 q 158 719 168 692 q 149 751 151 735 q 147 785 147 767 q 203 913 147 863 q 347 963 260 963 q 480 922 425 963 q 535 821 535 881 q 513 763 535 786 q 457 739 492 739 q 401 760 425 739 q 378 813 378 782 q 378 821 378 817 q 381 829 379 825 q 388 846 383 838 q 396 858 392 854 q 399 860 397 860 q 401 863 400 861 q 404 865 403 864 q 407 867 406 865 q 420 878 414 872 q 426 893 426 885 q 406 916 426 907 q 353 925 385 925 q 278 899 308 925 q 249 832 249 872 q 264 782 249 806 q 306 735 279 758 q 363 688 331 711 q 428 638 394 664 q 550 523 494 586 q 606 372 606 460 q 563 254 606 294 q 433 211 519 214 q 481 169 461 189 q 515 131 501 150 q 543 76 535 104 q 551 13 551 47 q 490 -112 551 -64 q 335 -161 429 -161 q 192 -119 250 -161 q 135 -17 135 -78 q 160 43 135 18 q 221 68 185 68 q 277 46 254 68 q 300 -7 300 24 q 292 -38 300 -28 q 275 -56 285 -49 q 270 -58 272 -57 q 265 -62 268 -60 q 255 -72 260 -67 q 250 -86 250 -78 q 273 -113 250 -103 q 333 -124 296 -124 q 417 -98 386 -124 q 447 -28 447 -72 q 430 24 447 0 q 385 74 413 49 q 330 117 360 94 q 268 163 300 139 q 145 275 201 213 q 89 424 89 338 q 131 540 89 493 q 235 586 174 586 q 247 586 240 586 q 264 585 254 586 l 264 586 m 186 474 q 200 429 186 454 q 238 378 214 404 q 279 335 256 357 q 326 297 303 314 q 383 262 356 275 q 432 249 411 249 q 485 272 463 249 q 508 328 508 296 q 492 372 508 346 q 451 425 476 397 q 412 464 433 444 q 368 499 390 483 q 310 536 339 522 q 261 550 282 550 q 209 526 232 550 q 186 472 186 503 l 186 474 z "},"¶":{"ha":750,"x_min":3,"x_max":747,"o":"m 747 -83 l 242 -83 l 242 -32 q 321 -16 306 -32 q 336 63 336 0 l 336 449 q 313 445 322 446 q 294 444 303 444 q 288 444 292 444 q 278 444 283 444 q 76 511 150 444 q 3 696 3 578 q 44 840 3 779 q 156 924 86 901 q 178 931 168 928 q 199 936 189 933 q 249 942 221 940 q 332 944 276 943 q 344 944 338 944 q 357 944 350 944 l 747 946 l 747 893 l 726 893 q 665 876 678 892 q 653 797 653 861 l 653 64 q 665 -16 653 0 q 726 -32 678 -32 l 747 -32 l 747 -83 l 747 -83 m 549 893 l 440 893 l 440 -31 l 549 -31 l 549 893 l 549 893 z "},"ß":{"ha":772,"x_min":35,"x_max":728,"o":"m 464 542 q 665 442 603 510 q 728 260 728 375 q 666 64 728 147 q 519 -19 604 -19 q 447 -12 485 -19 q 368 11 410 -4 l 386 53 q 413 45 403 47 q 432 43 422 43 q 435 43 433 43 q 440 43 438 43 q 506 95 485 43 q 526 261 526 147 q 513 394 526 339 q 472 471 499 449 q 431 493 453 486 q 386 504 410 500 q 377 506 382 506 q 368 508 372 507 l 368 553 q 453 596 432 561 q 475 719 475 631 q 452 869 475 821 q 381 918 429 918 q 316 885 335 918 q 297 769 297 851 l 297 0 l 35 0 l 35 33 l 49 33 q 94 60 81 32 q 107 160 107 88 l 107 664 q 183 883 107 803 q 394 963 260 963 q 587 905 514 963 q 660 753 660 847 q 610 617 660 671 q 464 540 561 563 l 464 542 z "},"®":{"ha":1038,"x_min":28,"x_max":1010,"o":"m 1010 472 q 866 125 1010 268 q 518 -18 722 -18 q 172 125 315 -18 q 28 472 28 268 q 172 819 28 675 q 518 963 315 963 q 866 819 722 963 q 1010 471 1010 675 l 1010 472 m 933 472 q 812 765 933 643 q 518 886 690 886 q 226 765 347 886 q 104 472 104 643 q 226 178 104 300 q 518 57 347 57 q 812 178 690 57 q 933 471 933 300 l 933 472 m 299 721 l 299 751 l 531 751 q 676 717 629 750 q 724 617 724 685 q 690 529 724 563 q 586 479 656 496 q 647 438 624 471 q 689 365 671 404 q 697 348 693 357 q 704 331 700 339 q 737 274 719 297 q 779 250 754 250 l 785 251 l 785 224 l 697 224 q 667 228 679 222 q 643 249 654 233 q 623 283 633 261 q 599 336 613 304 q 581 380 588 361 q 567 413 574 399 q 532 451 553 442 q 457 461 511 461 l 457 306 q 463 261 457 269 q 493 251 469 253 q 499 251 496 251 q 506 250 501 250 q 511 250 508 250 q 517 250 514 250 l 517 224 l 299 224 l 299 251 q 350 256 339 251 q 361 282 361 261 l 360 296 l 360 674 q 355 711 360 704 q 326 719 350 718 l 299 721 l 299 721 m 457 497 q 474 494 468 494 q 485 494 479 494 q 592 522 558 494 q 625 607 625 549 q 597 689 625 661 q 513 717 568 717 q 504 717 508 717 q 497 717 500 717 q 489 715 493 715 q 481 715 485 715 q 463 708 468 715 q 457 682 457 701 l 457 497 l 457 497 z "},"©":{"ha":1038,"x_min":28,"x_max":1010,"o":"m 1010 472 q 866 125 1010 268 q 518 -18 722 -18 q 172 125 315 -18 q 28 472 28 268 q 172 819 28 675 q 518 963 315 963 q 866 819 722 963 q 1010 471 1010 675 l 1010 472 m 933 472 q 812 765 933 643 q 518 886 690 886 q 226 765 347 886 q 104 472 104 643 q 226 178 104 300 q 518 57 347 57 q 812 178 690 57 q 933 471 933 300 l 933 472 m 729 706 l 729 561 l 683 561 q 641 655 679 617 q 550 693 603 693 q 431 635 476 693 q 386 483 386 578 q 436 311 386 378 q 564 244 486 244 q 567 244 565 244 q 571 244 568 244 q 653 271 614 246 q 708 336 692 296 l 746 322 q 661 228 725 265 q 521 192 597 192 q 335 268 407 192 q 264 465 264 344 q 341 665 264 589 q 543 742 418 742 q 582 740 561 742 q 625 733 603 738 q 676 723 651 729 q 721 708 701 717 q 724 706 722 707 q 729 704 726 706 l 729 706 z "},"™":{"ha":1389,"x_min":42,"x_max":1349,"o":"m 561 946 q 559 921 560 931 q 558 903 558 911 q 558 897 558 900 q 558 890 558 893 q 559 868 558 879 q 560 846 560 857 q 560 824 560 835 q 561 801 561 813 l 519 803 q 495 882 518 864 q 396 900 472 900 l 356 901 l 356 458 q 367 420 356 428 q 426 413 379 413 l 440 414 l 440 378 l 163 378 l 163 414 q 236 422 221 414 q 251 460 251 429 l 251 901 q 238 901 243 900 q 229 901 233 901 q 224 901 226 901 q 217 901 221 901 q 113 881 140 901 q 85 801 86 861 l 42 803 q 44 838 43 819 q 47 874 46 856 q 49 908 49 890 q 50 944 50 926 l 561 946 l 561 946 m 1344 414 l 1344 378 l 1100 378 l 1100 414 q 1158 424 1144 414 q 1172 463 1172 433 l 1172 872 l 968 378 l 953 378 l 742 872 l 742 469 q 754 424 742 433 q 811 413 767 414 l 811 378 l 628 378 l 628 414 q 685 421 672 414 q 697 454 697 428 l 697 472 l 697 878 q 691 905 697 899 q 665 911 685 911 l 638 913 l 638 946 l 824 946 l 990 554 l 1157 946 l 1349 946 l 1347 913 l 1324 913 q 1290 906 1304 911 q 1276 876 1276 900 l 1276 465 q 1288 424 1276 433 q 1344 413 1300 415 l 1344 414 z "},"´":{"ha":463,"x_min":104,"x_max":360,"o":"m 360 969 l 164 744 l 104 744 l 176 969 l 360 969 l 360 969 z "},"¨":{"ha":463,"x_min":17,"x_max":446,"o":"m 200 856 q 173 790 200 817 q 108 763 146 763 q 44 790 71 763 q 17 854 17 817 q 44 919 17 892 q 108 946 71 946 q 174 919 147 946 q 200 854 200 893 l 200 856 m 446 856 q 419 790 446 817 q 354 763 392 763 q 290 790 317 763 q 263 854 263 817 q 290 919 263 892 q 354 946 317 946 q 419 919 393 946 q 446 854 446 893 l 446 856 z "},"≠":{"ha":783,"x_min":96,"x_max":686,"o":"m 467 508 l 436 403 l 686 403 l 686 315 l 410 315 l 368 178 l 268 178 l 308 315 l 96 315 l 96 403 l 335 403 l 367 508 l 96 508 l 96 596 l 392 596 l 433 733 l 535 733 l 493 596 l 686 596 l 686 508 l 467 508 l 467 508 z "},"Æ":{"ha":1389,"x_min":11,"x_max":1365,"o":"m 1296 946 l 1296 661 l 1254 661 q 1174 836 1242 785 q 981 888 1107 888 q 964 888 972 888 q 947 888 956 888 q 929 886 938 886 q 913 886 921 886 q 854 873 868 885 q 840 821 840 861 l 840 507 q 992 560 954 508 q 1043 711 1031 611 l 1086 713 l 1086 232 l 1043 232 q 999 390 1033 333 q 840 446 964 446 l 840 172 q 861 71 840 93 q 956 49 882 49 q 1183 108 1100 49 q 1322 294 1265 167 l 1365 296 l 1296 0 l 486 0 l 486 43 l 519 43 q 596 74 578 42 q 614 207 614 106 l 614 447 l 400 447 l 274 208 q 236 131 246 151 q 224 96 226 110 q 224 88 224 92 q 224 81 224 85 q 238 51 224 60 q 283 42 251 42 l 296 43 l 296 0 l 11 0 l 11 43 q 66 49 43 42 q 110 78 89 57 q 149 127 129 96 q 196 207 169 158 l 488 739 q 528 816 518 792 q 539 854 539 840 q 517 890 539 878 q 454 901 496 901 l 432 903 l 432 946 l 1296 946 l 1296 946 m 614 507 l 614 838 l 432 507 l 614 507 l 614 507 z "},"Ø":{"ha":1081,"x_min":47,"x_max":1033,"o":"m 821 883 l 883 964 l 942 915 l 879 836 q 995 671 957 763 q 1033 474 1033 579 q 892 122 1033 261 q 540 -18 751 -18 q 434 -8 485 -18 q 332 24 383 1 q 299 40 315 31 q 265 58 282 49 l 193 -32 l 139 13 l 208 101 q 88 268 129 174 q 47 472 47 363 q 188 823 47 683 q 539 963 328 963 q 691 942 619 963 q 821 882 763 922 l 821 883 m 761 688 l 347 163 q 428 65 381 96 q 540 33 476 33 q 724 146 660 33 q 788 471 788 258 q 786 535 788 507 q 781 592 785 564 q 773 637 778 614 q 761 686 768 660 l 761 688 m 732 771 q 651 875 699 840 q 540 910 604 910 q 360 792 426 910 q 293 469 293 674 q 299 350 293 406 q 319 242 306 294 l 732 771 l 732 771 z "},"∞":{"ha":986,"x_min":32,"x_max":953,"o":"m 493 514 q 615 626 550 588 q 749 664 679 664 q 896 608 839 664 q 953 463 953 553 q 898 313 953 369 q 753 256 843 256 q 706 261 729 256 q 658 276 682 267 q 574 328 617 294 q 493 408 532 361 q 472 387 482 397 q 450 365 461 376 q 353 288 404 319 q 231 256 303 256 q 88 313 143 256 q 32 458 32 369 q 90 606 32 549 q 236 664 147 664 q 249 663 243 664 q 263 663 256 663 q 381 617 322 656 q 493 513 440 578 l 493 514 m 447 463 q 367 541 403 513 q 296 583 331 569 q 263 592 279 589 q 229 594 247 594 q 135 558 171 594 q 99 461 99 521 q 134 363 99 401 q 226 325 169 325 q 272 331 249 325 q 319 350 296 338 q 384 394 351 367 q 447 461 417 422 l 447 463 m 539 461 q 544 454 542 457 q 549 449 546 451 q 640 364 590 403 q 756 325 690 325 q 848 363 813 325 q 883 460 883 400 q 846 557 883 519 q 750 594 808 594 q 719 591 735 594 q 686 582 703 588 q 607 535 646 567 q 539 460 568 504 l 539 461 z "},"±":{"ha":792,"x_min":65,"x_max":728,"o":"m 65 154 l 728 154 l 728 50 l 65 50 l 65 154 l 65 154 m 344 622 l 344 899 l 449 899 l 449 622 l 728 622 l 728 518 l 449 518 l 449 238 l 344 238 l 344 518 l 65 518 l 65 622 l 344 622 l 344 622 z "},"≤":{"ha":783,"x_min":74,"x_max":685,"o":"m 685 88 l 685 0 l 74 0 l 74 88 l 685 88 l 685 88 m 685 136 l 74 408 l 74 476 l 685 747 l 685 650 l 197 442 l 685 233 l 685 136 l 685 136 z "},"≥":{"ha":783,"x_min":99,"x_max":710,"o":"m 710 88 l 710 0 l 99 0 l 99 88 l 710 88 l 710 88 m 99 747 l 710 476 l 710 408 l 99 136 l 99 233 l 586 442 l 99 650 l 99 747 l 99 747 z "},"¥":{"ha":694,"x_min":1,"x_max":693,"o":"m 258 361 l 203 521 l 8 521 l 8 574 l 185 574 l 100 815 q 63 880 85 860 q 1 903 40 900 l 1 946 l 361 946 l 361 904 q 313 897 326 903 q 300 878 300 892 q 301 866 300 872 q 304 854 303 860 q 306 849 304 851 q 307 843 307 846 q 309 837 308 840 q 311 829 310 833 l 436 447 l 533 758 q 535 763 535 760 q 538 771 536 767 q 548 817 544 794 q 551 851 551 839 q 535 891 551 881 q 474 903 518 901 l 474 946 l 693 946 l 693 904 q 633 874 657 897 q 596 807 610 851 l 524 574 l 686 574 l 686 521 l 507 521 q 501 503 504 511 q 496 488 499 496 q 495 484 496 486 q 494 481 494 482 q 476 421 483 450 q 468 360 468 392 l 686 361 l 686 308 l 468 308 l 468 157 q 490 63 468 86 q 579 40 511 40 q 588 40 582 40 q 604 42 594 40 l 604 0 l 122 0 l 122 42 q 125 40 124 40 q 128 40 126 40 q 130 40 129 40 q 131 42 131 40 q 135 42 133 42 q 139 42 138 42 q 141 42 140 42 q 143 42 142 42 q 144 42 144 42 q 146 42 144 42 q 149 40 147 40 q 151 40 150 40 q 238 66 217 40 q 258 156 258 92 l 258 308 l 8 308 l 8 361 l 258 361 l 258 361 z "},"µ":{"ha":768,"x_min":47,"x_max":751,"o":"m 656 632 l 656 196 q 664 106 656 128 q 699 85 672 85 q 704 85 701 85 q 710 85 707 85 q 725 89 717 86 q 751 100 733 92 l 751 50 l 592 -12 q 578 -17 585 -15 q 565 -18 572 -18 q 519 0 540 -18 q 485 53 499 18 q 440 17 460 31 q 400 -4 419 3 q 365 -15 383 -12 q 325 -18 347 -18 q 261 -12 285 -18 q 217 11 238 -6 q 197 31 207 19 q 175 58 186 43 q 177 46 176 51 q 179 35 178 40 q 185 7 182 19 q 190 -18 188 -6 q 203 -61 196 -39 q 222 -114 211 -83 q 234 -153 229 -135 q 239 -181 239 -171 q 213 -235 239 -212 q 149 -257 188 -257 q 74 -236 101 -257 q 47 -176 47 -215 q 51 -142 47 -162 q 61 -89 54 -122 q 95 108 83 8 q 107 310 107 208 l 107 632 l 297 632 l 297 236 q 312 117 297 150 q 365 85 326 85 q 381 86 374 85 q 397 89 389 88 q 428 105 413 94 q 465 132 444 115 l 465 632 l 656 632 l 656 632 z "},"∂":{"ha":958,"x_min":143,"x_max":817,"o":"m 178 942 q 217 942 203 942 q 244 943 232 943 q 249 943 247 943 q 254 943 251 943 q 662 774 507 943 q 817 356 817 604 q 724 83 817 185 q 475 -18 632 -18 q 235 75 328 -18 q 143 318 143 168 q 233 556 143 463 q 467 649 324 649 q 569 635 524 649 q 656 590 615 621 q 492 788 583 724 q 243 853 400 853 q 218 853 233 853 q 183 851 203 853 l 178 942 l 178 942 m 700 307 q 634 490 700 417 q 465 563 568 563 q 312 494 371 563 q 253 315 253 426 q 313 137 253 204 q 472 69 374 69 q 635 137 571 69 q 700 306 700 204 l 700 307 z "},"Σ":{"ha":956,"x_min":122,"x_max":793,"o":"m 782 1051 l 782 751 l 688 751 l 672 974 l 235 974 l 531 485 l 225 -56 l 688 -56 l 697 169 l 793 169 l 793 -133 l 122 -133 l 122 -50 l 414 488 l 122 971 l 122 1051 l 782 1051 l 782 1051 z "},"∏":{"ha":956,"x_min":43,"x_max":914,"o":"m 43 1050 l 914 1050 l 914 972 l 793 972 l 793 -56 l 914 -56 l 914 -133 l 567 -133 l 567 -56 l 689 -56 l 689 972 l 269 972 l 269 -56 l 389 -56 l 389 -133 l 43 -133 l 43 -56 l 165 -56 l 165 972 l 43 972 l 43 1050 l 43 1050 z "},"π":{"ha":833,"x_min":0,"x_max":451,"o":"m 0 313 l 0 382 l 451 382 l 451 -347 l 382 -347 l 382 313 l 0 313 l 0 313 z "},"∫":{"ha":982,"x_min":250,"x_max":733,"o":"m 442 -86 l 442 -28 l 442 739 q 498 954 442 871 q 643 1038 554 1038 q 708 1017 683 1038 q 733 961 733 996 q 716 918 733 935 q 671 901 699 901 q 635 910 650 901 q 607 942 621 919 q 599 954 603 949 q 590 963 594 960 q 582 967 586 965 q 574 968 578 968 q 547 947 554 968 q 540 858 540 926 l 540 739 l 540 -28 q 485 -244 540 -158 q 343 -331 429 -331 q 276 -310 301 -331 q 250 -256 250 -289 q 267 -212 250 -229 q 313 -196 285 -196 q 349 -206 336 -196 q 372 -229 363 -217 q 378 -235 375 -232 q 383 -243 381 -239 q 395 -256 389 -250 q 411 -261 401 -261 q 436 -241 431 -261 q 442 -150 442 -221 l 442 -86 l 442 -86 z "},"ª":{"ha":417,"x_min":1,"x_max":449,"o":"m 449 471 l 449 383 l 1 383 l 1 471 l 449 471 l 449 471 m 238 604 q 192 573 211 583 q 154 558 172 563 q 138 555 146 556 q 119 554 129 554 q 56 578 81 554 q 31 642 31 603 q 67 719 31 690 q 147 768 104 747 q 171 778 160 774 q 193 789 182 783 q 215 800 204 794 q 233 811 225 806 l 233 876 q 222 901 233 892 q 188 910 210 910 q 178 909 185 910 q 167 907 172 908 q 151 901 158 906 q 143 890 143 897 q 144 885 143 888 q 147 879 146 882 q 152 874 150 876 q 157 869 154 872 q 165 857 161 864 q 169 840 169 850 q 151 806 169 819 q 106 792 133 792 q 58 809 78 792 q 39 853 39 826 q 88 931 39 899 q 207 963 136 963 q 328 933 288 963 q 368 842 368 903 l 368 635 q 370 622 368 624 q 379 619 372 619 q 388 622 385 619 q 393 631 392 625 l 421 632 q 385 576 415 599 q 315 554 356 554 q 271 565 289 554 q 238 603 253 576 l 238 604 m 233 661 l 233 763 q 190 732 207 747 q 165 700 172 717 q 161 690 163 694 q 160 679 160 685 q 169 657 160 665 q 194 649 179 649 q 202 649 199 649 q 210 650 206 650 q 221 653 215 651 q 233 660 226 656 l 233 661 z "},"º":{"ha":458,"x_min":8,"x_max":451,"o":"m 451 471 l 451 383 l 8 383 l 8 471 l 451 471 l 451 471 m 35 757 q 90 902 35 842 q 226 963 146 963 q 362 903 306 963 q 418 757 418 843 q 361 613 418 672 q 221 554 304 554 q 88 613 142 554 q 35 756 35 671 l 35 757 m 178 693 q 191 628 179 649 q 228 607 203 607 q 265 628 251 607 q 279 688 279 649 q 278 718 279 703 q 278 750 278 733 q 277 760 278 754 q 276 769 276 765 q 276 791 276 781 q 275 811 275 801 q 264 890 274 869 q 228 910 254 910 q 190 885 203 910 q 176 814 176 860 q 176 783 176 799 q 178 753 176 768 q 178 722 178 738 q 178 692 178 707 l 178 693 z "},"Ω":{"ha":1181,"x_min":26,"x_max":1154,"o":"m 1154 249 l 1101 0 l 646 0 l 646 143 q 685 168 668 156 q 718 192 703 181 q 765 244 747 217 q 799 310 783 272 q 828 422 818 363 q 839 547 839 481 q 774 815 839 719 q 589 910 708 910 q 408 814 474 910 q 343 547 343 718 q 353 422 343 481 q 383 310 363 363 q 417 244 399 272 q 464 192 435 217 q 495 168 478 181 q 535 142 513 156 l 535 0 l 81 0 l 26 249 l 115 249 q 152 165 131 186 q 225 144 174 144 q 269 144 247 144 q 314 143 292 144 q 358 141 336 143 q 403 136 381 139 l 394 156 q 290 185 328 168 q 218 239 251 203 q 200 260 208 249 q 182 283 192 271 q 119 406 142 339 q 97 540 97 472 q 233 844 97 726 q 581 963 368 963 q 868 901 753 963 q 1044 717 983 840 q 1069 651 1060 685 q 1083 583 1079 617 q 1084 566 1083 575 q 1085 549 1085 557 q 1083 509 1085 529 q 1076 469 1081 489 q 1048 371 1068 419 q 1000 283 1028 322 q 984 263 992 272 q 969 244 976 253 q 895 187 935 206 q 788 154 856 168 l 778 138 q 867 144 822 143 q 957 144 913 144 q 1030 165 1008 144 q 1065 247 1051 186 l 1154 249 l 1154 249 z "},"æ":{"ha":1003,"x_min":35,"x_max":989,"o":"m 979 335 l 621 335 q 622 304 621 319 q 625 274 622 289 q 673 144 635 203 q 792 83 711 86 q 875 108 839 86 q 942 176 911 131 l 989 156 q 874 31 940 79 q 714 -18 808 -18 q 612 -8 653 -18 q 533 31 571 1 q 504 56 519 42 q 472 90 489 71 q 345 10 414 39 q 197 -18 276 -18 q 82 24 129 -18 q 35 126 35 65 q 103 255 35 204 q 254 339 172 306 q 340 370 299 357 q 414 393 382 383 q 416 438 415 421 q 417 465 417 456 q 390 579 417 547 q 297 611 364 611 q 230 597 258 611 q 201 563 201 582 q 208 542 201 553 q 221 521 214 532 q 234 497 228 510 q 240 467 240 483 q 215 408 240 432 q 153 385 190 385 q 85 413 113 385 q 58 485 58 442 q 140 601 58 554 q 344 649 222 649 q 453 637 408 649 q 532 599 497 625 q 611 638 568 626 q 714 650 654 650 q 828 625 776 650 q 918 551 881 600 q 923 545 921 549 q 928 539 925 542 q 968 453 957 499 q 979 333 979 407 l 979 335 m 414 335 q 283 272 329 314 q 236 168 236 229 q 256 106 236 129 q 308 82 275 82 q 349 89 329 82 q 388 113 368 96 q 401 123 394 117 q 414 136 407 129 l 414 335 l 414 335 m 613 394 l 810 394 q 811 419 811 408 q 811 438 811 431 q 789 565 811 524 q 719 607 767 607 q 640 559 664 607 q 613 393 615 511 l 613 394 z "},"ø":{"ha":694,"x_min":35,"x_max":660,"o":"m 176 29 l 126 -40 l 75 -1 l 128 71 q 59 182 83 118 q 35 318 35 246 q 124 556 35 463 q 349 649 213 649 q 415 644 386 649 q 471 626 443 639 q 490 618 481 624 q 510 607 500 613 l 571 692 l 622 657 l 560 568 q 636 452 613 511 q 660 317 660 393 q 571 76 660 171 q 346 -18 482 -18 q 306 -16 325 -18 q 267 -8 286 -14 q 222 6 244 -3 q 176 28 200 14 l 176 29 m 456 421 l 251 135 q 286 51 264 76 q 347 25 308 25 q 389 35 369 25 q 422 64 408 46 q 450 155 442 89 q 458 333 458 221 q 458 358 458 347 q 458 378 458 368 q 458 397 458 388 q 456 419 457 407 l 456 421 m 240 231 l 442 511 q 408 581 431 558 q 347 604 385 604 q 261 548 286 604 q 236 350 236 492 q 236 308 236 325 q 238 276 236 292 q 238 255 238 267 q 240 229 239 243 l 240 231 z "},"¿":{"ha":694,"x_min":81,"x_max":614,"o":"m 344 288 l 390 288 l 390 251 q 388 195 390 214 q 382 160 386 176 q 378 151 379 156 q 374 140 376 146 q 350 90 361 114 q 328 42 339 65 q 305 -30 314 6 q 296 -111 296 -65 q 326 -236 296 -193 q 411 -279 356 -279 q 463 -265 442 -279 q 485 -228 485 -250 q 479 -212 485 -222 q 461 -189 474 -203 q 447 -172 453 -179 q 438 -157 440 -164 q 432 -139 433 -149 q 431 -115 431 -129 q 456 -53 431 -78 q 518 -28 481 -28 q 587 -58 560 -28 q 614 -133 614 -87 q 541 -275 614 -218 q 360 -332 468 -332 q 158 -270 235 -332 q 81 -107 81 -208 q 114 8 81 -43 q 217 101 147 58 q 271 135 249 121 q 308 164 293 150 q 338 213 331 186 q 344 286 344 240 l 344 288 m 482 532 q 448 447 482 482 q 365 413 414 413 q 283 447 318 413 q 249 531 249 482 q 283 614 249 579 q 365 649 318 649 q 448 614 414 649 q 482 531 482 579 l 482 532 z "},"¡":{"ha":463,"x_min":114,"x_max":349,"o":"m 208 293 l 258 293 q 272 158 264 219 q 294 49 281 96 l 338 -108 q 346 -154 343 -132 q 349 -199 349 -176 q 318 -296 349 -260 q 235 -332 288 -332 q 147 -294 179 -332 q 114 -196 114 -257 q 117 -156 114 -176 q 125 -115 119 -136 q 150 -24 138 -68 q 174 64 163 19 q 196 174 186 118 q 208 292 206 231 l 208 293 m 349 532 q 315 447 349 482 q 232 413 281 413 q 149 447 183 413 q 115 531 115 482 q 149 614 115 579 q 232 649 183 649 q 315 614 281 649 q 349 531 349 579 l 349 532 z "},"¬":{"ha":792,"x_min":72,"x_max":719,"o":"m 72 499 l 719 499 l 719 0 l 636 0 l 636 421 l 72 421 l 72 499 l 72 499 z "},"√":{"ha":957,"x_min":0,"x_max":996,"o":"m 0 519 l 232 519 l 301 247 l 597 1139 l 996 1139 l 996 1051 l 681 1051 l 293 -56 l 143 432 l 0 432 l 0 519 l 0 519 z "},"ƒ":{"ha":694,"x_min":-139,"x_max":710,"o":"m 422 526 l 521 526 l 521 461 l 414 461 l 386 258 q 370 158 381 211 q 344 50 360 106 q 226 -191 306 -81 q 6 -301 146 -301 q -98 -272 -57 -301 q -139 -196 -139 -242 q -112 -137 -139 -161 q -44 -112 -85 -112 q 15 -130 -10 -112 q 39 -174 39 -147 q 38 -185 39 -179 q 35 -196 36 -190 q 33 -199 33 -197 q 32 -203 32 -201 q 32 -208 32 -206 q 32 -212 32 -210 q 38 -228 33 -221 q 53 -236 42 -236 q 113 -188 86 -236 q 150 -61 140 -140 l 221 460 l 126 460 l 126 525 l 231 525 l 240 596 q 351 858 264 757 q 557 960 439 960 q 663 924 617 960 q 710 840 710 888 q 681 783 710 807 q 613 758 653 758 q 555 778 576 758 q 533 833 533 799 q 533 841 533 838 q 535 849 533 844 q 535 855 535 851 q 535 863 535 858 q 529 888 535 881 q 508 894 524 894 q 468 853 478 894 q 453 764 458 813 q 453 762 453 763 q 453 760 453 761 l 422 526 l 422 526 z "},"≈":{"ha":463,"x_min":0,"x_max":0,"o":""},"∆":{"ha":963,"x_min":0,"x_max":963,"o":"m 529 964 l 963 0 l 0 0 l 429 964 l 529 964 l 529 964 m 421 729 l 235 226 q 223 191 226 203 q 219 171 219 179 q 229 151 219 157 q 264 144 239 146 l 294 146 l 667 146 l 421 729 l 421 729 z "},"«":{"ha":694,"x_min":22,"x_max":660,"o":"m 22 335 l 310 651 l 376 651 l 199 335 l 376 26 l 301 26 l 22 335 l 22 335 m 306 335 l 593 651 l 660 651 l 482 335 l 660 26 l 586 26 l 306 335 l 306 335 z "},"»":{"ha":694,"x_min":35,"x_max":672,"o":"m 389 335 l 108 26 l 35 26 l 213 335 l 35 651 l 101 651 l 389 335 l 389 335 m 672 335 l 393 26 l 318 26 l 496 335 l 318 651 l 385 651 l 672 335 l 672 335 z "},"…":{"ha":1389,"x_min":115,"x_max":1275,"o":"m 115 100 q 150 182 115 147 q 232 217 185 217 q 315 182 281 217 q 349 99 349 147 q 315 16 349 50 q 232 -18 281 -18 q 150 16 185 -18 q 115 99 115 50 l 115 100 m 578 100 q 613 182 578 147 q 694 217 647 217 q 777 182 743 217 q 811 99 811 147 q 777 16 811 50 q 694 -18 743 -18 q 613 16 647 -18 q 578 99 578 50 l 578 100 m 1042 100 q 1076 182 1042 147 q 1158 217 1110 217 q 1241 182 1207 217 q 1275 99 1275 147 q 1241 16 1275 50 q 1158 -18 1207 -18 q 1076 16 1110 -18 q 1042 99 1042 50 l 1042 100 z "},"À":{"ha":1003,"x_min":35,"x_max":979,"o":"m 471 964 l 513 964 l 843 208 q 874 140 861 167 q 901 94 888 113 q 936 59 918 71 q 979 40 954 47 l 979 0 l 519 0 l 519 42 l 568 42 q 619 53 604 40 q 633 92 633 65 q 622 158 633 125 q 596 222 610 192 q 584 249 590 236 q 574 274 578 261 l 261 275 q 250 247 256 261 q 238 219 244 233 q 228 197 233 208 q 219 175 224 186 q 207 132 213 153 q 201 92 201 111 q 217 53 201 65 q 267 40 232 40 l 329 42 l 329 0 l 35 0 l 35 42 q 68 53 53 43 q 99 82 83 63 q 129 132 114 101 q 163 207 144 163 l 471 964 l 471 964 m 285 335 l 549 335 l 413 660 l 285 335 l 285 335 m 333 1233 l 515 1233 l 589 1008 l 529 1008 l 333 1233 l 333 1233 z "},"Ã":{"ha":1003,"x_min":35,"x_max":979,"o":"m 471 964 l 513 964 l 843 208 q 874 140 861 167 q 901 94 888 113 q 936 59 918 71 q 979 40 954 47 l 979 0 l 519 0 l 519 42 l 568 42 q 619 53 604 40 q 633 92 633 65 q 622 158 633 125 q 596 222 610 192 q 584 249 590 236 q 574 274 578 261 l 261 275 q 250 247 256 261 q 238 219 244 233 q 228 197 233 208 q 219 175 224 186 q 207 132 213 153 q 201 92 201 111 q 217 53 201 65 q 267 40 232 40 l 329 42 l 329 0 l 35 0 l 35 42 q 68 53 53 43 q 99 82 83 63 q 129 132 114 101 q 163 207 144 163 l 471 964 l 471 964 m 285 335 l 549 335 l 413 660 l 285 335 l 285 335 m 718 1179 q 697 1150 710 1167 q 669 1114 685 1133 q 642 1083 657 1099 q 611 1057 626 1067 q 590 1044 600 1049 q 568 1039 579 1039 q 517 1047 543 1039 q 468 1065 492 1056 q 450 1072 458 1068 q 433 1078 442 1075 q 427 1080 431 1079 q 421 1082 424 1081 q 390 1090 404 1086 q 371 1093 376 1093 q 332 1081 350 1093 q 297 1039 314 1068 l 260 1063 l 297 1115 q 319 1140 307 1128 q 343 1163 331 1153 q 370 1181 357 1174 q 393 1188 383 1188 q 442 1181 418 1188 q 490 1165 465 1174 q 538 1149 514 1156 q 586 1142 561 1142 q 639 1158 614 1142 q 681 1201 664 1175 l 718 1179 l 718 1179 z "},"Õ":{"ha":1081,"x_min":47,"x_max":1033,"o":"m 540 964 q 893 824 753 963 q 1033 474 1033 685 q 892 122 1033 263 q 540 -18 751 -18 q 188 122 329 -18 q 47 474 47 263 q 188 824 47 685 q 540 963 329 963 l 540 964 m 540 911 q 360 792 426 910 q 293 469 293 674 q 357 147 293 260 q 540 33 421 33 q 724 147 660 33 q 788 469 788 260 q 722 792 788 674 q 540 910 656 910 l 540 911 m 769 1179 q 749 1150 761 1167 q 721 1114 736 1133 q 693 1083 708 1099 q 663 1057 678 1067 q 641 1044 651 1049 q 619 1039 631 1039 q 569 1047 594 1039 q 519 1065 543 1056 q 501 1072 510 1068 q 485 1078 493 1075 q 478 1080 482 1079 q 472 1082 475 1081 q 442 1090 456 1086 q 422 1093 428 1093 q 383 1081 401 1093 q 349 1039 365 1068 l 311 1063 l 349 1115 q 370 1140 358 1128 q 394 1163 382 1153 q 422 1181 408 1174 q 444 1188 435 1188 q 493 1181 469 1188 q 542 1165 517 1174 q 589 1149 565 1156 q 638 1142 613 1142 q 690 1158 665 1142 q 732 1201 715 1175 l 769 1179 l 769 1179 z "},"Œ":{"ha":1389,"x_min":47,"x_max":1364,"o":"m 1296 946 l 1296 660 l 1253 660 q 1228 766 1244 729 q 1175 832 1213 803 q 1172 835 1174 833 q 1168 838 1169 836 q 1090 876 1133 864 q 983 888 1046 888 q 966 888 975 888 q 949 888 957 888 q 931 886 940 886 q 914 886 922 886 q 858 874 871 885 q 844 828 844 864 l 844 513 q 997 565 958 514 q 1047 717 1035 615 l 1090 718 l 1090 238 l 1047 238 q 1002 395 1038 339 q 844 451 967 451 l 844 176 q 865 69 844 90 q 969 49 886 49 q 1188 113 1108 49 q 1324 296 1268 176 l 1364 297 l 1296 0 l 694 0 q 594 -15 631 -11 q 528 -18 558 -18 q 183 121 318 -18 q 47 475 47 260 q 192 822 47 681 q 546 963 336 963 q 555 963 550 963 q 564 963 560 963 q 626 957 594 961 q 694 944 658 953 l 1296 946 l 1296 946 m 618 892 q 605 898 611 894 q 592 903 599 901 q 569 908 581 907 q 538 910 557 910 q 356 799 418 910 q 293 472 293 688 q 356 144 293 254 q 544 33 419 33 q 565 34 556 33 q 582 35 574 35 q 598 38 589 36 q 618 44 607 40 l 618 892 l 618 892 z "},"œ":{"ha":1003,"x_min":35,"x_max":989,"o":"m 543 576 q 567 596 556 586 q 590 613 579 606 q 652 641 621 632 q 724 650 683 650 q 835 624 785 650 q 921 550 885 599 q 924 545 922 547 q 928 542 926 543 q 968 455 957 501 q 979 333 979 408 l 639 335 q 640 297 639 315 q 644 258 642 278 q 692 139 656 193 q 803 85 728 85 q 888 107 850 85 q 957 176 926 129 l 989 157 q 880 32 944 82 q 724 -18 815 -18 q 643 -7 678 -18 q 576 31 608 4 q 560 45 568 38 q 543 61 551 53 q 449 1 499 19 q 338 -18 400 -18 q 119 75 204 -18 q 35 317 35 168 q 122 553 35 461 q 346 646 210 646 q 456 628 408 646 q 543 575 503 611 l 543 576 m 236 363 q 242 205 236 274 q 258 97 249 136 q 290 44 268 64 q 343 25 313 25 q 348 25 346 25 q 351 25 350 25 q 386 38 369 28 q 414 64 403 49 q 440 151 431 88 q 449 313 449 215 q 424 540 449 471 q 342 608 399 608 q 260 553 283 608 q 236 361 236 497 l 236 363 m 631 394 l 810 394 q 811 419 811 408 q 811 436 811 429 q 791 564 811 522 q 728 606 771 606 q 655 558 676 606 q 631 393 633 511 l 631 394 z "},"—":{"ha":1389,"x_min":65,"x_max":1324,"o":"m 65 392 l 1324 392 l 1324 271 l 65 271 l 65 392 l 65 392 z "},"“":{"ha":694,"x_min":36,"x_max":592,"o":"m 260 964 l 282 932 q 185 851 218 882 q 142 790 153 819 q 135 768 138 779 q 133 744 133 757 q 140 729 133 735 q 157 724 146 724 l 194 726 q 263 694 235 725 q 290 617 290 663 q 257 531 290 565 q 174 497 224 497 q 76 545 115 497 q 36 665 36 593 q 106 844 36 771 q 260 963 175 917 l 260 964 m 563 964 l 585 932 q 489 850 521 882 q 446 790 457 818 q 440 768 442 779 q 438 744 438 757 q 444 729 438 735 q 461 724 450 724 l 497 726 q 565 694 538 725 q 592 617 592 663 q 558 531 592 565 q 475 497 525 497 q 379 545 418 497 q 340 665 340 593 q 409 843 340 768 q 563 963 478 918 l 563 964 z "},"”":{"ha":694,"x_min":103,"x_max":658,"o":"m 126 501 l 107 535 q 197 604 164 572 q 244 667 231 636 q 253 692 250 679 q 256 717 256 704 q 249 733 256 729 q 222 738 242 738 q 138 765 174 738 q 103 844 103 793 q 135 930 103 897 q 218 963 167 963 q 315 915 278 963 q 353 792 353 867 q 283 617 353 690 q 131 501 214 544 q 128 501 129 501 q 126 500 128 500 l 126 501 m 429 501 l 408 535 q 502 604 468 572 q 550 668 536 636 q 558 692 556 681 q 561 717 561 704 q 554 733 561 729 q 526 738 547 738 q 442 765 478 738 q 406 844 406 793 q 438 930 406 897 q 522 963 471 963 q 620 915 582 963 q 658 792 658 867 q 590 621 658 693 q 440 506 522 549 q 435 503 438 504 q 429 500 432 501 l 429 501 z "},"‘":{"ha":386,"x_min":92,"x_max":294,"o":"m 139 560 l 92 560 l 149 832 q 157 870 153 853 q 165 901 161 888 q 190 951 176 940 q 231 963 204 963 q 275 945 256 963 q 294 906 294 928 q 292 886 294 896 q 288 867 290 876 q 284 857 286 861 q 281 847 282 853 l 139 560 l 139 560 z "},"’":{"ha":463,"x_min":103,"x_max":358,"o":"m 103 969 l 285 969 l 358 744 l 299 744 l 103 969 l 103 969 z "},"÷":{"ha":396,"x_min":114,"x_max":283,"o":"m 114 488 q 139 547 114 522 q 199 571 164 571 q 258 546 233 571 q 283 485 283 521 q 259 424 283 450 q 199 399 235 399 q 139 424 164 399 q 114 486 114 450 l 114 488 z "},"◊":{"ha":983,"x_min":147,"x_max":838,"o":"m 490 939 l 838 463 l 490 -18 l 147 463 l 490 939 l 490 939 m 490 832 l 236 463 l 490 94 l 747 463 l 490 832 l 490 832 z "},"ÿ":{"ha":694,"x_min":15,"x_max":685,"o":"m 426 254 l 515 471 q 536 524 531 506 q 542 557 542 542 q 542 559 542 558 q 542 560 542 560 q 531 588 542 579 q 496 597 519 597 l 468 599 l 468 632 l 685 632 l 685 599 q 639 584 657 594 q 606 546 621 574 q 590 514 597 533 q 572 469 582 494 l 350 -125 q 281 -248 325 -194 q 154 -301 236 -301 q 53 -271 92 -301 q 15 -189 15 -240 q 40 -128 15 -153 q 100 -104 64 -104 q 156 -123 142 -104 q 174 -165 169 -142 q 176 -174 175 -169 q 176 -182 176 -178 q 184 -212 179 -200 q 206 -225 189 -225 q 227 -219 217 -225 q 249 -201 238 -214 q 292 -126 269 -178 q 339 10 314 -75 l 132 471 q 128 477 131 474 q 125 485 126 481 q 90 550 110 521 q 29 596 69 579 q 28 596 29 596 q 28 597 28 596 q 26 597 26 597 q 25 597 25 597 l 25 632 l 376 632 l 376 599 l 353 599 q 317 588 329 597 q 306 560 306 579 q 313 524 306 542 q 326 489 319 506 q 331 480 329 485 q 336 469 333 475 l 426 254 l 426 254 m 328 857 q 301 791 328 818 q 236 764 274 764 q 172 791 199 764 q 144 856 144 818 q 172 920 144 893 q 236 947 199 947 q 301 921 275 947 q 328 856 328 894 l 328 857 m 574 857 q 547 791 574 818 q 482 764 519 764 q 417 791 444 764 q 390 856 390 818 q 417 920 390 893 q 482 947 444 947 q 547 921 521 947 q 574 856 574 894 l 574 857 z "},"Ÿ":{"ha":1003,"x_min":36,"x_max":979,"o":"m 588 460 l 750 739 q 758 751 754 744 q 767 763 763 757 q 790 806 779 783 q 801 851 801 828 q 781 890 801 881 q 738 901 761 900 q 724 903 731 903 q 710 903 717 903 l 710 946 l 979 946 l 979 904 q 902 865 933 899 q 849 793 871 832 q 831 765 839 779 q 817 738 824 750 l 622 410 l 622 208 q 640 72 622 101 q 758 42 658 42 l 758 0 l 269 0 l 269 43 l 303 43 q 379 73 361 42 q 397 207 397 104 l 397 365 l 199 739 q 196 743 197 740 q 193 749 194 746 q 189 755 190 751 q 185 763 188 758 q 127 851 160 810 q 36 903 94 893 l 36 946 l 506 946 l 506 904 l 451 904 q 407 894 421 903 q 393 863 393 885 q 393 855 393 858 q 394 849 393 851 q 406 812 396 833 q 443 738 415 790 l 588 460 l 588 460 m 504 1124 q 477 1058 504 1085 q 413 1031 450 1031 q 348 1058 375 1031 q 321 1122 321 1085 q 348 1187 321 1160 q 413 1214 375 1214 q 478 1188 451 1214 q 504 1122 504 1161 l 504 1124 m 750 1124 q 723 1058 750 1085 q 658 1031 696 1031 q 594 1058 621 1031 q 567 1122 567 1085 q 594 1187 567 1160 q 658 1214 621 1214 q 724 1188 697 1214 q 750 1122 750 1161 l 750 1124 z "},"∕":{"ha":232,"x_min":-71,"x_max":308,"o":"m 308 946 l 11 0 l -71 0 l 228 946 l 308 946 l 308 946 z "},"¤":{"ha":694,"x_min":40,"x_max":654,"o":"m 211 657 q 229 667 221 663 q 247 676 238 672 q 295 693 271 688 q 347 699 319 699 q 410 691 381 699 q 467 667 439 683 q 475 661 471 664 q 483 656 479 658 l 588 761 l 654 694 l 551 590 q 563 571 557 579 q 572 553 568 563 q 588 505 583 529 q 593 453 593 481 q 588 399 593 425 q 571 350 582 374 q 562 333 567 342 q 551 317 557 325 l 654 214 l 588 147 l 483 251 q 437 226 458 235 q 394 213 415 217 q 372 208 383 210 q 347 207 360 207 q 281 217 314 207 q 211 250 247 228 l 107 147 l 40 214 l 144 318 q 126 348 135 333 q 114 378 118 363 q 104 415 107 396 q 101 453 101 433 q 104 491 101 472 q 114 528 107 510 q 126 558 118 543 q 144 589 135 572 l 40 694 l 107 761 l 211 657 l 211 657 m 224 454 q 260 365 224 401 q 347 329 296 329 q 435 365 399 329 q 471 453 471 401 q 435 540 471 504 q 347 576 399 576 q 260 540 296 576 q 224 453 224 504 l 224 454 z "},"‹":{"ha":463,"x_min":43,"x_max":396,"o":"m 43 343 l 322 651 l 396 651 l 218 343 l 396 26 l 329 26 l 43 343 l 43 343 z "},"›":{"ha":463,"x_min":67,"x_max":419,"o":"m 419 335 l 140 26 l 67 26 l 244 335 l 67 651 l 133 651 l 419 335 l 419 335 z "},"":{"ha":347,"x_min":0,"x_max":0,"o":""},"":{"ha":347,"x_min":0,"x_max":0,"o":""},"‡":{"ha":694,"x_min":67,"x_max":628,"o":"m 328 185 q 310 286 328 239 q 265 381 293 333 q 260 390 263 385 q 254 399 257 394 q 309 508 292 463 q 329 593 326 553 q 329 601 329 597 q 329 607 329 604 q 329 610 329 608 q 329 614 329 613 q 328 617 328 615 q 328 621 328 619 q 284 610 306 618 q 242 594 263 603 q 189 576 214 585 q 142 567 164 567 q 91 588 111 567 q 71 642 71 610 q 92 694 71 674 q 143 714 113 714 q 183 706 164 714 q 221 689 201 699 q 222 688 221 689 q 225 688 224 688 q 265 668 244 676 q 307 660 285 660 q 310 660 308 660 q 313 660 311 660 q 319 660 315 660 q 331 663 324 661 q 321 739 329 708 q 303 793 313 769 q 292 819 297 807 q 282 842 286 831 q 276 863 278 853 q 274 886 274 874 q 294 940 274 918 q 346 963 315 963 q 404 940 382 963 q 426 881 426 917 q 417 834 426 858 q 399 782 408 810 q 378 725 388 756 q 369 660 369 694 q 419 668 396 660 q 464 686 442 676 q 469 689 467 688 q 474 690 471 690 q 513 706 493 700 q 554 713 532 713 q 607 692 586 713 q 628 640 628 672 q 608 587 628 607 q 554 567 589 567 q 512 575 535 567 q 464 594 489 583 q 417 611 440 603 q 369 621 393 619 q 372 567 369 589 q 379 524 374 544 q 401 470 386 499 q 442 399 415 442 q 388 297 408 350 q 367 183 367 244 q 372 183 369 183 q 378 183 375 183 q 382 182 379 182 q 386 182 385 182 q 430 190 410 182 q 469 208 450 199 q 510 225 489 217 q 553 233 531 233 q 606 212 585 233 q 628 158 628 190 q 607 106 628 128 q 556 85 586 85 q 517 94 542 85 q 464 114 493 103 q 445 122 454 118 q 426 128 436 125 q 396 138 411 133 q 367 143 381 142 q 376 72 367 104 q 396 14 385 40 q 415 -36 406 -12 q 424 -82 424 -60 q 401 -139 424 -117 q 346 -161 379 -161 q 290 -138 313 -161 q 268 -81 268 -115 q 277 -37 268 -61 q 297 13 286 -14 q 317 74 308 42 q 326 143 326 106 q 271 133 296 142 q 225 117 246 125 q 204 107 214 111 q 185 99 194 103 q 162 92 174 94 q 138 89 150 89 q 87 110 107 89 q 67 163 67 132 q 88 216 67 196 q 143 236 108 236 q 175 232 160 236 q 204 221 190 228 q 217 215 211 218 q 229 210 224 213 q 275 192 251 200 q 328 183 299 183 l 328 185 z "},"∙":{"ha":463,"x_min":139,"x_max":322,"o":"m 322 856 q 295 790 322 817 q 231 763 268 763 q 166 790 193 763 q 139 854 139 817 q 166 919 139 892 q 231 946 193 946 q 296 919 269 946 q 322 854 322 893 l 322 856 z "},"‚":{"ha":547,"x_min":108,"x_max":482,"o":"m 253 357 q 342 303 318 338 q 367 196 367 268 l 367 -94 q 394 -183 367 -149 q 478 -231 422 -217 q 451 -232 464 -232 q 424 -232 438 -232 q 270 -199 326 -232 q 214 -54 214 -167 l 214 226 q 190 313 214 282 q 108 356 165 343 q 189 401 164 371 q 214 486 214 432 l 214 786 q 283 918 214 892 q 438 944 353 944 l 482 946 q 467 939 475 942 q 454 933 460 936 q 390 892 411 917 q 368 806 368 868 l 367 507 q 342 407 367 439 q 253 356 318 375 l 253 357 z "},"„":{"ha":694,"x_min":103,"x_max":658,"o":"m 126 -244 l 107 -211 q 197 -140 164 -172 q 244 -78 231 -108 q 253 -53 250 -65 q 256 -28 256 -40 q 249 -11 256 -15 q 222 -7 242 -7 q 138 20 174 -7 q 103 99 103 47 q 135 184 103 151 q 218 217 167 217 q 315 169 278 217 q 353 46 353 121 q 283 -127 353 -53 q 131 -243 214 -201 q 128 -244 129 -243 q 126 -244 128 -244 l 126 -244 m 429 -244 l 408 -211 q 501 -140 467 -172 q 550 -76 536 -108 q 558 -52 556 -64 q 561 -28 561 -40 q 554 -11 561 -15 q 526 -7 547 -7 q 442 20 478 -7 q 406 99 406 47 q 438 184 406 151 q 522 217 471 217 q 620 169 582 217 q 658 46 658 121 q 590 -124 658 -50 q 440 -239 522 -199 q 435 -242 438 -240 q 429 -244 432 -243 l 429 -244 z "},"‰":{"ha":1389,"x_min":-31,"x_max":1419,"o":"m 689 965 l 751 965 l 203 -18 l 122 -18 l 600 846 q 555 822 574 829 q 519 811 536 814 q 514 811 517 811 q 508 811 511 811 q 491 812 500 811 q 474 814 482 813 q 456 817 465 815 q 439 821 447 819 q 440 808 439 815 q 440 796 440 801 q 441 783 440 789 q 442 769 442 776 q 435 710 442 742 q 414 646 428 679 q 312 492 381 563 q 156 422 243 422 q 22 477 75 422 q -31 615 -31 532 q -30 638 -31 626 q -26 663 -29 650 q 78 863 -8 772 q 278 954 165 954 q 314 951 299 954 q 344 942 329 949 q 361 932 353 938 q 379 919 369 926 q 410 895 397 904 q 433 881 422 886 q 463 874 447 875 q 506 872 479 872 q 572 878 544 872 q 625 903 600 885 q 656 928 640 914 q 689 964 671 943 l 689 965 m 378 838 q 369 841 372 839 q 363 844 365 843 q 358 847 360 846 q 356 849 357 847 q 350 853 353 850 q 343 858 347 856 q 328 872 333 868 q 318 876 322 875 q 315 878 317 878 q 310 878 313 878 q 284 870 297 878 q 258 849 271 863 q 212 787 235 825 q 172 708 189 749 q 144 631 154 668 q 133 569 133 593 q 151 518 133 538 q 197 499 168 499 q 291 551 250 499 q 356 667 332 603 q 377 738 369 703 q 385 796 385 772 q 385 806 385 801 q 383 814 385 810 q 382 824 383 819 q 378 836 381 829 l 378 838 m 447 172 q 449 204 447 188 q 456 238 451 221 q 563 428 479 342 q 753 515 646 515 q 872 467 825 515 q 918 346 918 419 q 832 94 918 206 q 636 -18 746 -18 q 501 35 554 -18 q 447 171 447 89 l 447 172 m 613 114 q 633 74 615 90 q 676 57 651 57 q 769 110 728 57 q 833 228 810 164 q 854 297 847 264 q 861 356 861 331 q 842 415 861 392 q 793 439 824 439 q 713 383 751 439 q 649 261 675 328 q 622 178 632 218 q 613 113 613 138 l 613 114 m 949 172 q 951 204 949 188 q 957 238 953 221 q 1064 428 981 342 q 1254 515 1147 515 q 1373 467 1326 515 q 1419 346 1419 419 q 1333 94 1419 206 q 1138 -18 1247 -18 q 1002 35 1056 -18 q 949 171 949 89 l 949 172 m 1114 114 q 1135 74 1117 90 q 1178 57 1153 57 q 1270 110 1229 57 q 1335 228 1311 164 q 1356 297 1349 264 q 1363 356 1363 331 q 1344 415 1363 392 q 1294 439 1325 439 q 1215 383 1253 439 q 1150 261 1176 328 q 1124 178 1133 218 q 1114 113 1114 138 l 1114 114 z "},"Â":{"ha":1003,"x_min":35,"x_max":979,"o":"m 471 964 l 513 964 l 843 208 q 874 140 861 167 q 901 94 888 113 q 936 59 918 71 q 979 40 954 47 l 979 0 l 519 0 l 519 42 l 568 42 q 619 53 604 40 q 633 92 633 65 q 622 158 633 125 q 596 222 610 192 q 584 249 590 236 q 574 274 578 261 l 261 275 q 250 247 256 261 q 238 219 244 233 q 228 197 233 208 q 219 175 224 186 q 207 132 213 153 q 201 92 201 111 q 217 53 201 65 q 267 40 232 40 l 329 42 l 329 0 l 35 0 l 35 42 q 68 53 53 43 q 99 82 83 63 q 129 132 114 101 q 163 207 144 163 l 471 964 l 471 964 m 285 335 l 549 335 l 413 660 l 285 335 l 285 335 m 554 1238 l 685 1003 l 638 1003 l 490 1122 l 350 1003 l 301 1003 l 429 1238 l 554 1238 l 554 1238 z "},"Ê":{"ha":926,"x_min":35,"x_max":903,"o":"m 835 946 l 835 661 l 792 661 q 791 669 792 664 q 789 678 790 674 q 768 768 781 739 q 729 821 756 797 q 718 830 724 825 q 707 839 713 835 q 705 841 706 840 q 703 842 704 842 q 624 878 667 868 q 506 888 581 888 q 409 878 429 888 q 389 831 389 868 l 389 513 q 540 565 501 514 q 592 717 579 615 l 635 718 l 635 238 l 592 238 q 544 396 582 340 q 389 451 506 451 l 389 172 q 409 71 389 93 q 501 49 429 49 q 723 110 639 49 q 860 294 807 171 l 903 296 l 835 0 l 35 0 l 35 43 l 67 43 q 144 73 126 42 q 163 207 163 104 l 163 738 q 146 869 163 838 q 35 901 129 901 l 35 946 l 835 946 l 835 946 m 554 1238 l 685 1003 l 638 1003 l 490 1122 l 350 1003 l 301 1003 l 429 1238 l 554 1238 l 554 1238 z "},"Á":{"ha":1003,"x_min":35,"x_max":979,"o":"m 471 964 l 513 964 l 843 208 q 874 140 861 167 q 901 94 888 113 q 936 59 918 71 q 979 40 954 47 l 979 0 l 519 0 l 519 42 l 568 42 q 619 53 604 40 q 633 92 633 65 q 622 158 633 125 q 596 222 610 192 q 584 249 590 236 q 574 274 578 261 l 261 275 q 250 247 256 261 q 238 219 244 233 q 228 197 233 208 q 219 175 224 186 q 207 132 213 153 q 201 92 201 111 q 217 53 201 65 q 267 40 232 40 l 329 42 l 329 0 l 35 0 l 35 42 q 68 53 53 43 q 99 82 83 63 q 129 132 114 101 q 163 207 144 163 l 471 964 l 471 964 m 285 335 l 549 335 l 413 660 l 285 335 l 285 335 m 635 1233 l 439 1008 l 379 1008 l 451 1233 l 635 1233 l 635 1233 z "},"Ë":{"ha":926,"x_min":35,"x_max":903,"o":"m 835 946 l 835 661 l 792 661 q 791 669 792 664 q 789 678 790 674 q 768 768 781 739 q 729 821 756 797 q 718 830 724 825 q 707 839 713 835 q 705 841 706 840 q 703 842 704 842 q 624 878 667 868 q 506 888 581 888 q 409 878 429 888 q 389 831 389 868 l 389 513 q 540 565 501 514 q 592 717 579 615 l 635 718 l 635 238 l 592 238 q 544 396 582 340 q 389 451 506 451 l 389 172 q 409 71 389 93 q 501 49 429 49 q 723 110 639 49 q 860 294 807 171 l 903 296 l 835 0 l 35 0 l 35 43 l 67 43 q 144 73 126 42 q 163 207 163 104 l 163 738 q 146 869 163 838 q 35 901 129 901 l 35 946 l 835 946 l 835 946 m 443 1124 q 416 1058 443 1085 q 351 1031 389 1031 q 287 1058 314 1031 q 260 1122 260 1085 q 287 1187 260 1160 q 351 1214 314 1214 q 417 1188 390 1214 q 443 1122 443 1161 l 443 1124 m 689 1124 q 662 1058 689 1085 q 597 1031 635 1031 q 533 1058 560 1031 q 506 1122 506 1085 q 533 1187 506 1160 q 597 1214 560 1214 q 663 1188 636 1214 q 689 1122 689 1161 l 689 1124 z "},"È":{"ha":926,"x_min":35,"x_max":903,"o":"m 835 946 l 835 661 l 792 661 q 791 669 792 664 q 789 678 790 674 q 768 768 781 739 q 729 821 756 797 q 718 830 724 825 q 707 839 713 835 q 705 841 706 840 q 703 842 704 842 q 624 878 667 868 q 506 888 581 888 q 409 878 429 888 q 389 831 389 868 l 389 513 q 540 565 501 514 q 592 717 579 615 l 635 718 l 635 238 l 592 238 q 544 396 582 340 q 389 451 506 451 l 389 172 q 409 71 389 93 q 501 49 429 49 q 723 110 639 49 q 860 294 807 171 l 903 296 l 835 0 l 35 0 l 35 43 l 67 43 q 144 73 126 42 q 163 207 163 104 l 163 738 q 146 869 163 838 q 35 901 129 901 l 35 946 l 835 946 l 835 946 m 310 1233 l 492 1233 l 565 1008 l 506 1008 l 310 1233 l 310 1233 z "},"Í":{"ha":540,"x_min":29,"x_max":511,"o":"m 29 946 l 511 946 l 511 903 l 479 903 q 401 870 419 901 q 383 736 383 839 l 383 208 q 401 73 383 104 q 479 42 419 42 l 511 43 l 511 0 l 29 0 l 29 43 l 61 43 q 139 74 121 42 q 157 207 157 106 l 157 738 q 140 869 157 836 q 29 901 124 901 l 29 946 l 29 946 m 463 1233 l 267 1008 l 207 1008 l 279 1233 l 463 1233 l 463 1233 z "},"Î":{"ha":540,"x_min":29,"x_max":511,"o":"m 29 946 l 511 946 l 511 903 l 479 903 q 401 870 419 901 q 383 736 383 839 l 383 208 q 401 73 383 104 q 479 42 419 42 l 511 43 l 511 0 l 29 0 l 29 43 l 61 43 q 139 74 121 42 q 157 207 157 106 l 157 738 q 140 869 157 836 q 29 901 124 901 l 29 946 l 29 946 m 331 1238 l 461 1003 l 414 1003 l 267 1122 l 126 1003 l 78 1003 l 206 1238 l 331 1238 l 331 1238 z "},"Ï":{"ha":540,"x_min":29,"x_max":511,"o":"m 29 946 l 511 946 l 511 903 l 479 903 q 401 870 419 901 q 383 736 383 839 l 383 208 q 401 73 383 104 q 479 42 419 42 l 511 43 l 511 0 l 29 0 l 29 43 l 61 43 q 139 74 121 42 q 157 207 157 106 l 157 738 q 140 869 157 836 q 29 901 124 901 l 29 946 l 29 946 m 239 1124 q 212 1058 239 1085 q 147 1031 185 1031 q 83 1058 110 1031 q 56 1122 56 1085 q 83 1187 56 1160 q 147 1214 110 1214 q 213 1188 186 1214 q 239 1122 239 1161 l 239 1124 m 485 1124 q 458 1058 485 1085 q 393 1031 431 1031 q 328 1058 356 1031 q 301 1122 301 1085 q 328 1187 301 1160 q 393 1214 356 1214 q 458 1188 432 1214 q 485 1122 485 1161 l 485 1124 z "},"Ì":{"ha":540,"x_min":29,"x_max":511,"o":"m 29 946 l 511 946 l 511 903 l 479 903 q 401 870 419 901 q 383 736 383 839 l 383 208 q 401 73 383 104 q 479 42 419 42 l 511 43 l 511 0 l 29 0 l 29 43 l 61 43 q 139 74 121 42 q 157 207 157 106 l 157 738 q 140 869 157 836 q 29 901 124 901 l 29 946 l 29 946 m 128 1233 l 310 1233 l 383 1008 l 324 1008 l 128 1233 l 128 1233 z "},"Ó":{"ha":1081,"x_min":47,"x_max":1033,"o":"m 540 964 q 893 824 753 963 q 1033 474 1033 685 q 892 122 1033 263 q 540 -18 751 -18 q 188 122 329 -18 q 47 474 47 263 q 188 824 47 685 q 540 963 329 963 l 540 964 m 540 911 q 360 792 426 910 q 293 469 293 674 q 357 147 293 260 q 540 33 421 33 q 724 147 660 33 q 788 469 788 260 q 722 792 788 674 q 540 910 656 910 l 540 911 m 696 1233 l 500 1008 l 440 1008 l 513 1233 l 696 1233 l 696 1233 z "},"Ô":{"ha":1081,"x_min":47,"x_max":1033,"o":"m 540 964 q 893 824 753 963 q 1033 474 1033 685 q 892 122 1033 263 q 540 -18 751 -18 q 188 122 329 -18 q 47 474 47 263 q 188 824 47 685 q 540 963 329 963 l 540 964 m 540 911 q 360 792 426 910 q 293 469 293 674 q 357 147 293 260 q 540 33 421 33 q 724 147 660 33 q 788 469 788 260 q 722 792 788 674 q 540 910 656 910 l 540 911 m 601 1238 l 732 1003 l 685 1003 l 538 1122 l 397 1003 l 349 1003 l 476 1238 l 601 1238 l 601 1238 z "},"":{"ha":347,"x_min":0,"x_max":0,"o":""},"Ò":{"ha":1081,"x_min":47,"x_max":1033,"o":"m 540 964 q 893 824 753 963 q 1033 474 1033 685 q 892 122 1033 263 q 540 -18 751 -18 q 188 122 329 -18 q 47 474 47 263 q 188 824 47 685 q 540 963 329 963 l 540 964 m 540 911 q 360 792 426 910 q 293 469 293 674 q 357 147 293 260 q 540 33 421 33 q 724 147 660 33 q 788 469 788 260 q 722 792 788 674 q 540 910 656 910 l 540 911 m 385 1233 l 567 1233 l 640 1008 l 581 1008 l 385 1233 l 385 1233 z "},"Ú":{"ha":1003,"x_min":24,"x_max":979,"o":"m 24 946 l 500 946 l 500 903 l 458 903 q 382 871 400 901 q 364 738 364 840 l 364 263 q 419 113 364 168 q 565 57 474 57 q 761 147 713 57 q 810 364 810 238 l 810 739 q 792 872 810 842 q 674 901 775 901 l 674 946 l 979 946 l 979 903 l 961 903 q 883 871 901 901 q 865 738 865 840 l 865 363 q 851 209 865 274 q 808 104 836 144 q 686 15 768 49 q 510 -18 604 -18 q 240 66 342 -18 q 138 290 138 150 l 138 739 q 119 871 138 840 q 42 901 101 901 l 24 903 l 24 946 l 24 946 m 768 1233 l 572 1008 l 513 1008 l 585 1233 l 768 1233 l 768 1233 z "},"Û":{"ha":1003,"x_min":24,"x_max":979,"o":"m 24 946 l 500 946 l 500 903 l 458 903 q 382 871 400 901 q 364 738 364 840 l 364 263 q 419 113 364 168 q 565 57 474 57 q 761 147 713 57 q 810 364 810 238 l 810 739 q 792 872 810 842 q 674 901 775 901 l 674 946 l 979 946 l 979 903 l 961 903 q 883 871 901 901 q 865 738 865 840 l 865 363 q 851 209 865 274 q 808 104 836 144 q 686 15 768 49 q 510 -18 604 -18 q 240 66 342 -18 q 138 290 138 150 l 138 739 q 119 871 138 840 q 42 901 101 901 l 24 903 l 24 946 l 24 946 m 656 1238 l 786 1003 l 739 1003 l 592 1122 l 451 1003 l 403 1003 l 531 1238 l 656 1238 l 656 1238 z "},"Ù":{"ha":1003,"x_min":24,"x_max":979,"o":"m 24 946 l 500 946 l 500 903 l 458 903 q 382 871 400 901 q 364 738 364 840 l 364 263 q 419 113 364 168 q 565 57 474 57 q 761 147 713 57 q 810 364 810 238 l 810 739 q 792 872 810 842 q 674 901 775 901 l 674 946 l 979 946 l 979 903 l 961 903 q 883 871 901 901 q 865 738 865 840 l 865 363 q 851 209 865 274 q 808 104 836 144 q 686 15 768 49 q 510 -18 604 -18 q 240 66 342 -18 q 138 290 138 150 l 138 739 q 119 871 138 840 q 42 901 101 901 l 24 903 l 24 946 l 24 946 m 401 1233 l 583 1233 l 657 1008 l 597 1008 l 401 1233 l 401 1233 z "},"ı":{"ha":386,"x_min":32,"x_max":367,"o":"m 294 632 l 294 161 q 308 58 294 85 q 360 32 321 32 l 367 33 l 367 0 l 32 0 l 32 33 l 39 33 q 91 58 78 32 q 104 160 104 85 l 104 471 q 91 571 104 544 q 39 597 78 597 l 32 599 l 32 632 l 294 632 l 294 632 z "},"˜":{"ha":463,"x_min":40,"x_max":424,"o":"m 293 963 l 424 728 l 376 728 l 229 847 l 89 728 l 40 728 l 168 963 l 293 963 l 293 963 z "},"ˆ":{"ha":463,"x_min":1,"x_max":460,"o":"m 460 915 q 439 886 451 903 q 411 850 426 869 q 383 819 399 835 q 353 793 368 803 q 331 780 342 785 q 310 775 321 775 q 259 783 285 775 q 210 801 233 792 q 192 808 200 804 q 175 814 183 811 q 169 816 172 815 q 163 818 165 817 q 132 826 146 822 q 113 829 118 829 q 74 817 92 829 q 39 775 56 804 l 1 799 l 39 851 q 60 876 49 864 q 85 899 72 889 q 112 917 99 910 q 135 924 125 924 q 183 917 160 924 q 232 901 207 910 q 279 885 256 892 q 328 878 303 878 q 381 894 356 878 q 422 938 406 911 l 460 915 l 460 915 z "},"ˉ":{"ha":463,"x_min":19,"x_max":444,"o":"m 444 899 l 444 804 l 19 804 l 19 899 l 444 899 l 444 899 z "},"˘":{"ha":463,"x_min":50,"x_max":413,"o":"m 413 958 q 356 826 406 875 q 233 778 307 778 q 112 825 160 778 q 50 957 64 872 l 97 958 q 157 900 125 918 q 236 882 189 882 q 317 903 281 882 q 367 957 353 925 l 413 958 l 413 958 z "},"˙":{"ha":463,"x_min":139,"x_max":322,"o":"m 322 856 q 295 790 322 817 q 231 763 268 763 q 166 790 193 763 q 139 854 139 817 q 166 919 139 892 q 231 946 193 946 q 296 919 269 946 q 322 854 322 893 l 322 856 z "},"˚":{"ha":463,"x_min":100,"x_max":361,"o":"m 361 856 q 323 763 361 801 q 231 725 285 725 q 138 763 176 725 q 100 854 100 801 q 138 947 100 908 q 231 985 176 985 q 323 947 285 985 q 361 854 361 908 l 361 856 m 285 856 q 269 893 285 878 q 231 908 254 908 q 192 893 208 908 q 176 854 176 878 q 192 817 176 832 q 231 801 208 801 q 269 817 254 801 q 285 854 285 832 l 285 856 z "},"¸":{"ha":463,"x_min":76,"x_max":386,"o":"m 313 0 l 272 -71 q 358 -112 329 -86 q 386 -174 386 -137 q 338 -252 386 -225 q 197 -279 289 -279 l 76 -279 l 76 -243 l 126 -243 q 197 -228 172 -243 q 221 -185 221 -212 q 204 -147 221 -158 q 167 -126 188 -135 q 165 -126 165 -126 q 163 -125 164 -125 q 160 -124 161 -125 q 158 -124 160 -124 l 242 0 l 313 0 l 313 0 z "},"ʺ":{"ha":463,"x_min":0,"x_max":463,"o":"m 238 958 l 60 735 l 0 735 l 51 958 l 238 958 l 238 958 m 463 958 l 286 735 l 228 735 l 278 958 l 463 958 l 463 958 z "},"˛":{"ha":463,"x_min":89,"x_max":374,"o":"m 319 0 q 252 -41 272 -18 q 232 -101 232 -64 q 272 -182 232 -156 q 360 -212 311 -208 q 366 -212 363 -212 q 374 -212 369 -212 l 374 -254 q 346 -254 360 -254 q 318 -256 332 -254 q 290 -256 304 -256 q 263 -257 276 -257 q 253 -257 258 -257 q 244 -257 249 -257 q 138 -222 186 -253 q 89 -124 89 -192 q 149 -16 89 -54 q 319 24 210 22 l 319 0 l 319 0 z "},"ˇ":{"ha":463,"x_min":40,"x_max":424,"o":"m 171 728 l 40 963 l 88 963 l 235 843 l 375 963 l 424 963 l 296 728 l 171 728 l 171 728 z "},"Ł":{"ha":347,"x_min":0,"x_max":0,"o":""},"ł":{"ha":347,"x_min":0,"x_max":0,"o":""},"Š":{"ha":772,"x_min":71,"x_max":725,"o":"m 71 332 l 113 332 q 209 120 129 204 q 390 36 289 36 q 512 78 464 36 q 560 183 560 119 q 547 243 560 218 q 504 292 535 268 q 475 311 492 301 q 438 331 458 321 l 299 403 q 147 511 210 446 q 83 686 83 576 q 163 888 83 813 q 378 963 243 963 q 444 955 414 963 q 501 939 475 947 q 552 922 528 929 q 600 914 576 914 q 621 920 613 914 q 636 940 629 926 q 640 949 638 944 q 643 958 642 953 l 683 960 l 683 656 l 643 656 q 553 831 619 751 q 378 910 488 910 q 269 874 311 910 q 226 781 226 838 q 276 685 226 722 q 393 613 325 647 q 434 593 414 603 q 476 574 454 583 q 647 461 569 528 q 725 272 725 394 q 629 65 725 146 q 385 -15 533 -15 q 313 -8 347 -15 q 249 6 278 -1 q 194 19 219 13 q 150 26 169 26 q 125 15 135 26 q 113 -18 115 4 l 71 -18 l 71 332 l 71 332 m 336 1022 l 206 1257 l 253 1257 l 400 1138 l 540 1257 l 589 1257 l 461 1022 l 336 1022 l 336 1022 z "},"š":{"ha":540,"x_min":47,"x_max":504,"o":"m 47 -18 l 47 207 l 83 207 q 147 74 97 121 q 269 26 196 26 q 346 50 317 26 q 375 113 375 74 q 358 167 375 142 q 310 206 340 192 l 183 265 q 83 344 118 294 q 47 453 47 393 q 109 592 47 535 q 260 649 171 649 q 298 644 279 649 q 336 635 317 640 q 348 631 342 633 q 360 628 354 629 q 385 623 372 625 q 410 621 397 621 q 432 628 424 621 q 444 649 440 635 l 476 650 l 476 450 l 444 450 q 374 573 414 535 q 272 611 333 611 q 208 590 235 611 q 182 536 182 568 q 215 468 182 493 q 294 421 249 443 q 319 410 307 415 q 343 399 331 404 q 453 325 403 369 q 504 192 504 281 q 445 41 504 99 q 292 -17 386 -17 q 247 -11 269 -17 q 203 0 224 -6 q 163 11 182 6 q 125 17 143 17 q 97 8 108 17 q 83 -18 86 0 l 47 -18 l 47 -18 m 214 729 l 83 964 l 131 964 l 278 844 l 418 964 l 467 964 l 339 729 l 214 729 l 214 729 z "},"Ž":{"ha":347,"x_min":0,"x_max":0,"o":""},"ž":{"ha":347,"x_min":0,"x_max":0,"o":""},"¦":{"ha":347,"x_min":0,"x_max":0,"o":""},"Ð":{"ha":347,"x_min":0,"x_max":0,"o":""},"ð":{"ha":347,"x_min":0,"x_max":0,"o":""},"Ý":{"ha":1003,"x_min":36,"x_max":979,"o":"m 588 460 l 750 739 q 758 751 754 744 q 767 763 763 757 q 790 806 779 783 q 801 851 801 828 q 781 890 801 881 q 738 901 761 900 q 724 903 731 903 q 710 903 717 903 l 710 946 l 979 946 l 979 904 q 902 865 933 899 q 849 793 871 832 q 831 765 839 779 q 817 738 824 750 l 622 410 l 622 208 q 640 72 622 101 q 758 42 658 42 l 758 0 l 269 0 l 269 43 l 303 43 q 379 73 361 42 q 397 207 397 104 l 397 365 l 199 739 q 196 743 197 740 q 193 749 194 746 q 189 755 190 751 q 185 763 188 758 q 127 851 160 810 q 36 903 94 893 l 36 946 l 506 946 l 506 904 l 451 904 q 407 894 421 903 q 393 863 393 885 q 393 855 393 858 q 394 849 393 851 q 406 812 396 833 q 443 738 415 790 l 588 460 l 588 460 m 793 1233 l 597 1008 l 538 1008 l 610 1233 l 793 1233 l 793 1233 z "},"ý":{"ha":694,"x_min":15,"x_max":685,"o":"m 426 254 l 515 471 q 536 524 531 506 q 542 557 542 542 q 542 559 542 558 q 542 560 542 560 q 531 588 542 579 q 496 597 519 597 l 468 599 l 468 632 l 685 632 l 685 599 q 639 584 657 594 q 606 546 621 574 q 590 514 597 533 q 572 469 582 494 l 350 -125 q 281 -248 325 -194 q 154 -301 236 -301 q 53 -271 92 -301 q 15 -189 15 -240 q 40 -128 15 -153 q 100 -104 64 -104 q 156 -123 142 -104 q 174 -165 169 -142 q 176 -174 175 -169 q 176 -182 176 -178 q 184 -212 179 -200 q 206 -225 189 -225 q 227 -219 217 -225 q 249 -201 238 -214 q 292 -126 269 -178 q 339 10 314 -75 l 132 471 q 128 477 131 474 q 125 485 126 481 q 90 550 110 521 q 29 596 69 579 q 28 596 29 596 q 28 597 28 596 q 26 597 26 597 q 25 597 25 597 l 25 632 l 376 632 l 376 599 l 353 599 q 317 588 329 597 q 306 560 306 579 q 313 524 306 542 q 326 489 319 506 q 331 480 329 485 q 336 469 333 475 l 426 254 l 426 254 m 589 969 l 393 744 l 333 744 l 406 969 l 589 969 l 589 969 z "},"Þ":{"ha":347,"x_min":0,"x_max":0,"o":""},"þ":{"ha":347,"x_min":0,"x_max":0,"o":""},"−":{"ha":833,"x_min":26,"x_max":806,"o":"m 26 0 l 26 390 l 806 390 l 806 0 l 26 0 l 26 0 z "},"×":{"ha":347,"x_min":0,"x_max":0,"o":""},"¹":{"ha":347,"x_min":0,"x_max":0,"o":""},"²":{"ha":347,"x_min":0,"x_max":0,"o":""},"³":{"ha":347,"x_min":0,"x_max":0,"o":""},"½":{"ha":347,"x_min":0,"x_max":0,"o":""},"¼":{"ha":347,"x_min":0,"x_max":0,"o":""},"¾":{"ha":347,"x_min":0,"x_max":0,"o":""},"₣":{"ha":347,"x_min":0,"x_max":0,"o":""},"Ğ":{"ha":347,"x_min":0,"x_max":0,"o":""},"ğ":{"ha":347,"x_min":0,"x_max":0,"o":""},"İ":{"ha":347,"x_min":0,"x_max":0,"o":""},"Ş":{"ha":347,"x_min":0,"x_max":0,"o":""},"ş":{"ha":347,"x_min":0,"x_max":0,"o":""},"Ć":{"ha":347,"x_min":0,"x_max":0,"o":""},"ć":{"ha":347,"x_min":0,"x_max":0,"o":""},"Č":{"ha":347,"x_min":0,"x_max":0,"o":""},"č":{"ha":347,"x_min":0,"x_max":0,"o":""},"đ":{"ha":347,"x_min":0,"x_max":0,"o":""},"→":{"ha":833,"x_min":-26,"x_max":858,"o":"m -26 300 l -26 364 l 681 364 q 667 382 675 369 q 650 410 658 394 q 644 420 647 415 q 638 431 640 425 q 621 464 628 447 q 614 492 614 481 q 619 505 614 500 q 632 510 625 510 q 640 509 638 510 q 646 506 643 508 q 650 503 649 504 q 653 499 651 501 q 731 423 689 456 q 821 363 774 390 q 828 358 824 361 q 836 354 832 356 q 851 343 844 349 q 858 329 858 338 q 858 326 858 328 q 856 322 857 324 q 847 314 853 318 q 829 303 840 310 q 777 272 803 289 q 731 239 751 256 q 720 231 725 235 q 711 222 715 226 q 699 209 708 219 q 678 188 689 199 q 674 183 676 185 q 671 181 672 182 q 649 160 660 168 q 633 151 639 151 q 619 156 625 151 q 614 168 614 161 q 620 195 614 179 q 635 228 626 211 q 643 244 639 236 q 653 258 647 251 q 667 281 660 271 q 681 299 675 292 l -26 300 l -26 300 z "},"⌂":{"ha":833,"x_min":26,"x_max":806,"o":"m 26 0 l 26 390 l 806 390 l 806 0 l 26 0 l 26 0 z "},"–":{"ha":694,"x_min":46,"x_max":647,"o":"m 46 392 l 647 392 l 647 271 l 46 271 l 46 392 l 46 392 z "},"­":{"ha":347,"x_min":0,"x_max":0,"o":""},"■":{"ha":947,"x_min":106,"x_max":842,"o":"m 106 0 l 106 506 l 474 919 l 842 506 l 842 0 l 106 0 l 106 0 m 169 64 l 776 64 l 776 478 l 474 818 l 169 478 l 169 64 l 169 64 z "},"•":{"ha":833,"x_min":275,"x_max":544,"o":"m 275 397 q 314 490 275 451 q 408 529 353 529 q 505 490 465 529 q 544 396 544 451 q 505 301 544 340 q 408 263 465 263 q 314 301 353 263 q 275 396 275 340 l 275 397 z "},"¯":{"ha":347,"x_min":0,"x_max":0,"o":""},"°":{"ha":347,"x_min":0,"x_max":0,"o":""},"·":{"ha":347,"x_min":0,"x_max":0,"o":""},"‗":{"ha":347,"x_min":0,"x_max":0,"o":""},"‼":{"ha":347,"x_min":0,"x_max":0,"o":""},"ⁿ":{"ha":347,"x_min":0,"x_max":0,"o":""},"₧":{"ha":347,"x_min":0,"x_max":0,"o":""},"Γ":{"ha":347,"x_min":0,"x_max":0,"o":""},"Θ":{"ha":347,"x_min":0,"x_max":0,"o":""},"Φ":{"ha":347,"x_min":0,"x_max":0,"o":""},"α":{"ha":347,"x_min":0,"x_max":0,"o":""},"δ":{"ha":963,"x_min":0,"x_max":963,"o":"m 529 964 l 963 0 l 0 0 l 429 964 l 529 964 l 529 964 m 421 729 l 235 226 q 223 191 226 203 q 219 171 219 179 q 229 151 219 157 q 264 144 239 146 l 294 146 l 667 146 l 421 729 l 421 729 z "},"ε":{"ha":347,"x_min":0,"x_max":0,"o":""},"σ":{"ha":347,"x_min":0,"x_max":0,"o":""},"τ":{"ha":347,"x_min":0,"x_max":0,"o":""},"φ":{"ha":347,"x_min":0,"x_max":0,"o":""},"←":{"ha":347,"x_min":0,"x_max":0,"o":""},"↑":{"ha":347,"x_min":0,"x_max":0,"o":""},"↓":{"ha":347,"x_min":0,"x_max":0,"o":""},"↔":{"ha":347,"x_min":0,"x_max":0,"o":""},"↕":{"ha":347,"x_min":0,"x_max":0,"o":""},"↨":{"ha":347,"x_min":0,"x_max":0,"o":""},"∟":{"ha":347,"x_min":0,"x_max":0,"o":""},"∩":{"ha":347,"x_min":0,"x_max":0,"o":""},"≡":{"ha":347,"x_min":0,"x_max":0,"o":""},"⌐":{"ha":347,"x_min":0,"x_max":0,"o":""},"⌠":{"ha":347,"x_min":0,"x_max":0,"o":""},"⌡":{"ha":347,"x_min":0,"x_max":0,"o":""},"▬":{"ha":347,"x_min":0,"x_max":0,"o":""},"○":{"ha":347,"x_min":0,"x_max":0,"o":""},"▲":{"ha":347,"x_min":0,"x_max":0,"o":""},"►":{"ha":347,"x_min":0,"x_max":0,"o":""},"▼":{"ha":347,"x_min":0,"x_max":0,"o":""},"◄":{"ha":347,"x_min":0,"x_max":0,"o":""},"◘":{"ha":347,"x_min":0,"x_max":0,"o":""},"◙":{"ha":347,"x_min":0,"x_max":0,"o":""},"Ř":{"ha":347,"x_min":0,"x_max":0,"o":""},"▀":{"ha":347,"x_min":0,"x_max":0,"o":""},"▄":{"ha":347,"x_min":0,"x_max":0,"o":""},"█":{"ha":347,"x_min":0,"x_max":0,"o":""},"▌":{"ha":347,"x_min":0,"x_max":0,"o":""},"▐":{"ha":347,"x_min":0,"x_max":0,"o":""},"░":{"ha":347,"x_min":0,"x_max":0,"o":""},"▒":{"ha":347,"x_min":0,"x_max":0,"o":""},"▓":{"ha":347,"x_min":0,"x_max":0,"o":""},"☺":{"ha":347,"x_min":0,"x_max":0,"o":""},"☻":{"ha":347,"x_min":0,"x_max":0,"o":""},"☼":{"ha":347,"x_min":0,"x_max":0,"o":""},"♀":{"ha":347,"x_min":0,"x_max":0,"o":""},"♂":{"ha":347,"x_min":0,"x_max":0,"o":""},"♠":{"ha":347,"x_min":0,"x_max":0,"o":""},"♣":{"ha":347,"x_min":0,"x_max":0,"o":""},"♥":{"ha":347,"x_min":0,"x_max":0,"o":""},"♦":{"ha":347,"x_min":0,"x_max":0,"o":""},"♪":{"ha":347,"x_min":0,"x_max":0,"o":""},"♫":{"ha":347,"x_min":0,"x_max":0,"o":""},"Ă":{"ha":347,"x_min":0,"x_max":0,"o":""},"ă":{"ha":347,"x_min":0,"x_max":0,"o":""},"Ą":{"ha":347,"x_min":0,"x_max":0,"o":""},"ą":{"ha":347,"x_min":0,"x_max":0,"o":""},"Ď":{"ha":347,"x_min":0,"x_max":0,"o":""},"ď":{"ha":347,"x_min":0,"x_max":0,"o":""},"Đ":{"ha":347,"x_min":0,"x_max":0,"o":""},"Ę":{"ha":347,"x_min":0,"x_max":0,"o":""},"ę":{"ha":347,"x_min":0,"x_max":0,"o":""},"Ě":{"ha":347,"x_min":0,"x_max":0,"o":""},"ě":{"ha":347,"x_min":0,"x_max":0,"o":""},"Ĺ":{"ha":347,"x_min":0,"x_max":0,"o":""},"ĺ":{"ha":347,"x_min":0,"x_max":0,"o":""},"Ľ":{"ha":347,"x_min":0,"x_max":0,"o":""},"ľ":{"ha":347,"x_min":0,"x_max":0,"o":""},"Ń":{"ha":347,"x_min":0,"x_max":0,"o":""},"ń":{"ha":347,"x_min":0,"x_max":0,"o":""},"Ň":{"ha":347,"x_min":0,"x_max":0,"o":""},"ň":{"ha":347,"x_min":0,"x_max":0,"o":""},"Ő":{"ha":347,"x_min":0,"x_max":0,"o":""},"ő":{"ha":347,"x_min":0,"x_max":0,"o":""},"Ŕ":{"ha":347,"x_min":0,"x_max":0,"o":""},"ŕ":{"ha":347,"x_min":0,"x_max":0,"o":""},"ř":{"ha":347,"x_min":0,"x_max":0,"o":""},"Ś":{"ha":347,"x_min":0,"x_max":0,"o":""},"ś":{"ha":347,"x_min":0,"x_max":0,"o":""},"Ţ":{"ha":347,"x_min":0,"x_max":0,"o":""},"ţ":{"ha":347,"x_min":0,"x_max":0,"o":""},"Ť":{"ha":347,"x_min":0,"x_max":0,"o":""},"ť":{"ha":347,"x_min":0,"x_max":0,"o":""},"Ů":{"ha":347,"x_min":0,"x_max":0,"o":""},"ů":{"ha":347,"x_min":0,"x_max":0,"o":""},"ű":{"ha":347,"x_min":0,"x_max":0,"o":""},"Ű":{"ha":347,"x_min":0,"x_max":0,"o":""},"Ź":{"ha":347,"x_min":0,"x_max":0,"o":""},"ź":{"ha":347,"x_min":0,"x_max":0,"o":""},"Ż":{"ha":347,"x_min":0,"x_max":0,"o":""},"ż":{"ha":347,"x_min":0,"x_max":0,"o":""},"Ŀ":{"ha":347,"x_min":0,"x_max":0,"o":""},"ŀ":{"ha":347,"x_min":0,"x_max":0,"o":""},"─":{"ha":347,"x_min":0,"x_max":0,"o":""},"│":{"ha":347,"x_min":0,"x_max":0,"o":""},"┌":{"ha":347,"x_min":0,"x_max":0,"o":""},"┐":{"ha":347,"x_min":0,"x_max":0,"o":""},"└":{"ha":347,"x_min":0,"x_max":0,"o":""},"┘":{"ha":347,"x_min":0,"x_max":0,"o":""},"├":{"ha":347,"x_min":0,"x_max":0,"o":""},"┤":{"ha":347,"x_min":0,"x_max":0,"o":""},"┬":{"ha":347,"x_min":0,"x_max":0,"o":""},"┴":{"ha":347,"x_min":0,"x_max":0,"o":""},"┼":{"ha":347,"x_min":0,"x_max":0,"o":""},"═":{"ha":347,"x_min":0,"x_max":0,"o":""},"║":{"ha":347,"x_min":0,"x_max":0,"o":""},"╒":{"ha":347,"x_min":0,"x_max":0,"o":""},"╓":{"ha":347,"x_min":0,"x_max":0,"o":""},"╔":{"ha":347,"x_min":0,"x_max":0,"o":""},"╕":{"ha":347,"x_min":0,"x_max":0,"o":""},"╖":{"ha":347,"x_min":0,"x_max":0,"o":""},"╗":{"ha":347,"x_min":0,"x_max":0,"o":""},"╘":{"ha":347,"x_min":0,"x_max":0,"o":""},"╙":{"ha":347,"x_min":0,"x_max":0,"o":""},"╚":{"ha":347,"x_min":0,"x_max":0,"o":""},"╛":{"ha":347,"x_min":0,"x_max":0,"o":""},"╜":{"ha":347,"x_min":0,"x_max":0,"o":""},"╝":{"ha":347,"x_min":0,"x_max":0,"o":""},"╞":{"ha":347,"x_min":0,"x_max":0,"o":""},"╟":{"ha":347,"x_min":0,"x_max":0,"o":""},"╠":{"ha":347,"x_min":0,"x_max":0,"o":""},"╡":{"ha":347,"x_min":0,"x_max":0,"o":""},"╢":{"ha":347,"x_min":0,"x_max":0,"o":""},"╣":{"ha":347,"x_min":0,"x_max":0,"o":""},"╤":{"ha":347,"x_min":0,"x_max":0,"o":""},"╥":{"ha":347,"x_min":0,"x_max":0,"o":""},"╦":{"ha":347,"x_min":0,"x_max":0,"o":""},"╧":{"ha":347,"x_min":0,"x_max":0,"o":""},"╨":{"ha":347,"x_min":0,"x_max":0,"o":""},"╩":{"ha":347,"x_min":0,"x_max":0,"o":""},"╪":{"ha":347,"x_min":0,"x_max":0,"o":""},"╫":{"ha":347,"x_min":0,"x_max":0,"o":""},"╬":{"ha":347,"x_min":0,"x_max":0,"o":""}}}
